{"glyphs":{"0":{"ha":1088,"x_min":0,"x_max":0,"o":"m 665 765 b 660 249 685 581 671 404 b 415 243 610 222 486 225 b 442 750 414 322 419 697 b 665 765 507 772 618 776 z m 1033 779 b 836 1022 986 860 899 965 b 151 971 663 1042 329 1031 b 39 228 69 806 36 406 b 183 -4 61 157 140 46 b 936 28 397 -47 772 -11 b 1033 779 1032 208 1049 508 z "},"1":{"ha":540,"x_min":0,"x_max":0,"o":"m 464 1072 b 74 1025 368 1074 171 1046 b 42 836 58 975 43 899 b 142 825 61 828 122 825 b 156 4 139 567 142 246 b 436 28 203 -1 400 6 b 464 1072 451 368 464 740 z "},"2":{"ha":844,"x_min":0,"x_max":0,"o":"m 800 607 b 714 1085 800 786 792 942 b 96 1042 589 1113 236 1083 b 60 811 76 989 63 878 b 474 836 158 824 372 842 b 488 726 493 810 500 776 b 57 453 417 688 188 543 b 54 10 26 319 42 114 b 769 13 239 -37 564 -7 b 796 232 794 68 799 188 b 397 251 703 229 442 228 b 390 317 385 258 376 308 b 800 607 550 414 707 514 z "},"3":{"ha":875,"x_min":0,"x_max":0,"o":"m 850 399 b 626 583 800 497 715 554 b 796 782 690 617 772 700 b 710 1032 789 861 740 992 b 133 1075 501 1100 354 1101 b 74 836 107 1051 71 917 b 424 807 128 831 339 856 b 442 669 442 764 454 735 b 249 629 415 647 283 632 b 219 439 229 574 217 496 b 472 414 286 444 440 440 b 460 261 475 329 492 308 b 61 181 353 207 206 197 b 89 -53 51 94 74 0 b 740 49 207 -64 621 -32 b 850 399 794 97 839 279 z "},"4":{"ha":1031,"x_min":0,"x_max":0,"o":"m 554 743 b 550 481 553 653 554 538 b 372 479 519 458 399 468 b 494 754 390 533 443 665 b 554 743 519 797 556 813 z m 986 242 b 982 442 993 294 988 389 b 878 447 963 446 922 447 b 863 1042 879 668 878 949 b 378 1067 765 1049 478 1085 b 40 424 297 956 103 603 b 69 226 40 383 54 290 b 553 221 199 207 447 224 b 546 6 553 118 549 61 b 869 19 565 -17 792 -3 b 876 236 871 76 874 163 b 986 242 914 236 950 238 z "},"5":{"ha":875,"x_min":0,"x_max":0,"o":"m 804 825 b 783 1058 806 903 804 986 b 86 1014 571 1067 285 1081 b 44 456 64 876 39 632 b 456 354 122 396 404 399 b 449 258 458 324 456 282 b 81 175 389 224 200 183 b 119 -81 78 131 93 -58 b 772 106 335 -51 572 -10 b 803 551 832 226 853 419 b 379 643 674 576 507 615 b 400 800 381 696 379 758 b 804 825 517 815 689 815 z "},"6":{"ha":982,"x_min":0,"x_max":0,"o":"m 610 375 b 588 236 622 340 596 278 b 397 228 572 218 460 203 b 372 396 379 275 371 331 b 610 375 424 404 568 403 z m 922 572 b 393 674 786 638 525 663 b 419 799 393 717 399 767 b 832 885 521 822 729 874 b 797 1110 839 961 808 1067 b 135 1015 650 1118 265 1074 b 99 57 57 860 15 219 b 846 51 354 -65 672 -54 b 922 572 904 154 939 447 z "},"7":{"ha":844,"x_min":0,"x_max":0,"o":"m 801 843 b 761 1071 808 896 786 1001 b 69 1058 569 1082 300 1092 b 58 839 54 989 53 907 b 424 846 154 829 326 857 b 75 31 342 633 200 358 b 386 -17 149 -6 297 -28 b 801 843 544 306 722 683 z "},"8":{"ha":1015,"x_min":0,"x_max":0,"o":"m 597 392 b 574 192 619 351 611 228 b 390 203 526 192 433 183 b 375 389 368 226 364 331 b 597 392 440 403 557 410 z m 560 847 b 556 678 576 799 572 724 b 390 689 522 668 414 657 b 413 865 381 703 388 843 b 560 847 446 878 536 886 z m 985 374 b 756 590 944 494 803 564 b 926 831 824 629 900 733 b 808 1064 911 932 865 1025 b 150 1053 717 1094 411 1099 b 57 703 97 946 68 832 b 204 536 76 664 154 597 b 42 381 156 492 85 436 b 113 22 42 239 78 107 b 860 33 256 -32 715 -67 b 985 374 933 119 990 306 z "},"9":{"ha":936,"x_min":0,"x_max":0,"o":"m 563 628 b 364 640 510 638 417 629 b 407 804 365 693 381 764 b 563 800 446 807 524 800 b 563 628 571 765 572 692 z m 839 119 b 788 1042 904 240 925 713 b 146 1031 554 1082 368 1086 b 49 417 76 883 15 592 b 560 365 186 383 447 381 b 556 278 563 335 563 301 b 136 178 490 243 267 186 b 192 -50 133 133 163 -28 b 839 119 428 -21 621 4 z "}," ":{"ha":449,"x_min":0,"x_max":0,"o":""},"!":{"ha":492,"x_min":0,"x_max":0,"o":"m 372 -4 b 346 178 381 58 367 122 b 218 207 314 194 251 214 b 69 118 178 200 81 175 b 69 -37 63 82 53 -6 b 372 -4 94 -85 343 -61 z m 433 1074 b 104 1085 338 1111 219 1100 b 111 363 104 847 96 607 b 339 381 146 354 299 372 b 433 1074 350 479 389 772 z "},"\"":{"ha":642,"x_min":0,"x_max":0,"o":"m 290 1063 b 60 1018 211 1081 133 1065 b 128 613 78 929 119 750 b 268 644 174 607 231 625 b 290 1063 292 746 290 913 z m 603 1033 b 361 1015 526 1060 444 1054 b 361 614 365 928 376 749 b 510 631 407 604 468 615 b 603 1033 550 726 576 888 z "},"#":{"ha":803,"x_min":0,"x_max":0,"o":"m 454 449 b 360 443 422 447 392 444 b 363 543 361 476 361 510 l 454 549 b 454 449 454 515 454 482 z m 750 208 b 749 453 757 263 754 399 b 661 456 736 456 701 456 b 663 561 661 490 663 525 b 735 567 690 563 719 565 b 733 811 742 621 739 757 b 664 813 724 813 694 813 b 661 1039 664 892 663 968 b 460 1014 629 1044 485 1036 b 454 807 457 944 456 876 b 369 803 426 806 397 804 b 372 1001 371 869 372 936 b 154 981 307 1003 221 1001 b 150 790 153 922 151 858 b 68 783 110 788 81 785 b 63 517 57 731 49 607 b 147 526 81 521 111 524 b 146 431 147 494 146 463 b 83 426 115 428 94 428 b 78 158 72 374 64 249 b 149 168 94 161 118 165 b 153 22 150 118 151 68 b 344 44 185 17 319 24 b 350 183 346 90 349 138 b 457 189 385 186 422 188 b 456 4 457 128 456 65 b 650 13 519 3 585 -10 b 656 201 651 71 654 133 b 750 208 694 204 731 206 z "},"$":{"ha":903,"x_min":0,"x_max":0,"o":"m 842 569 b 428 626 756 581 514 611 b 449 706 400 631 422 700 b 815 749 539 726 711 742 b 801 922 822 799 806 894 b 590 910 746 924 689 919 b 613 1140 597 976 599 1050 b 303 1101 524 1151 396 1140 b 313 885 307 1033 311 982 b 135 846 228 872 179 858 b 54 457 71 736 54 576 b 357 438 144 432 288 444 b 451 397 396 433 443 435 b 411 354 454 385 425 361 b 86 292 365 332 185 304 b 125 107 83 263 99 140 b 332 135 200 114 251 124 b 338 -54 335 83 336 26 b 590 -36 389 -68 543 -50 b 613 176 608 32 608 99 b 790 239 686 193 728 214 b 842 569 849 307 874 486 z "},"%":{"ha":1125,"x_min":0,"x_max":0,"o":"m 889 264 b 886 169 889 232 886 201 b 793 147 861 151 824 147 b 756 150 781 147 768 147 b 754 185 756 161 754 174 b 760 325 754 233 753 278 b 869 343 793 340 833 343 l 881 343 b 889 264 886 317 889 290 z m 389 819 b 386 725 389 788 386 757 b 293 703 361 707 324 703 b 256 706 281 703 268 703 b 254 740 256 717 254 729 b 260 881 254 789 253 833 b 369 899 293 896 333 899 l 381 899 b 389 819 386 872 389 846 z m 1069 376 b 929 524 1067 421 968 515 b 682 490 881 535 767 518 b 990 1053 783 692 889 888 b 692 1081 961 1063 824 1094 b 571 876 649 1011 610 943 b 569 932 571 894 571 914 b 429 1079 567 976 468 1071 b 88 996 357 1096 135 1050 b 57 686 67 901 53 797 b 167 526 58 650 115 544 b 393 538 221 514 313 519 b 133 -42 308 365 226 181 b 428 -51 163 -51 296 -65 b 558 235 469 42 513 138 b 557 131 556 200 556 165 b 667 -29 558 94 615 -11 b 1046 53 767 -53 1001 -12 b 1069 376 1067 122 1076 263 z "},"&":{"ha":875,"x_min":0,"x_max":0,"o":"m 833 306 b 425 329 686 306 535 300 b 411 438 410 350 408 376 b 669 476 443 460 601 475 b 640 611 672 517 661 572 b 443 622 604 610 469 608 b 461 724 431 668 442 692 b 821 774 549 767 765 765 b 758 939 824 832 786 924 b 593 936 699 939 644 939 b 613 1140 597 996 600 1065 b 303 1101 524 1151 396 1140 b 311 899 307 1036 310 988 b 168 860 265 889 218 875 b 81 672 138 829 88 731 b 254 546 106 615 189 564 b 40 408 163 517 99 467 b 149 136 49 322 90 211 b 333 107 188 121 256 111 b 338 -54 336 63 336 13 b 590 -36 389 -68 543 -50 b 610 106 603 11 607 57 b 792 119 686 108 753 114 b 833 306 817 164 843 244 z "},"’":{"ha":408,"x_min":0,"x_max":0,"o":"m 394 994 b 147 1099 324 1058 240 1094 b 43 700 128 1008 93 825 b 196 640 86 667 150 647 b 394 994 261 715 331 863 z "},"(":{"ha":560,"x_min":0,"x_max":0,"o":"m 511 917 b 471 1106 511 972 489 1072 b 139 999 324 1085 201 1038 b 117 47 35 821 24 176 b 419 -58 201 13 321 -44 b 465 124 442 -28 460 50 b 369 172 424 129 389 158 b 386 861 322 265 353 731 b 511 917 424 886 457 910 z "},")":{"ha":560,"x_min":0,"x_max":0,"o":"m 442 993 b 139 1099 356 1028 238 1085 b 93 917 117 1068 99 990 b 189 868 135 911 169 882 b 172 179 236 775 206 310 b 47 124 135 156 100 131 b 88 -65 47 68 69 -32 b 419 42 235 -44 357 4 b 442 993 524 219 535 864 z "},"*":{"ha":674,"x_min":0,"x_max":0,"o":"m 640 621 b 474 785 569 706 538 721 b 640 949 524 847 589 890 b 482 1024 593 992 497 1026 b 426 968 471 1010 450 989 b 426 1076 426 1006 426 1042 b 254 1065 375 1078 307 1076 b 251 954 253 1033 251 994 b 169 1021 218 978 182 1003 b 22 918 111 996 46 943 b 171 783 64 865 104 849 b 29 608 132 746 71 661 b 185 531 61 574 129 526 b 256 603 199 550 229 578 b 260 481 257 560 257 517 b 414 493 286 478 394 481 b 418 606 415 529 417 567 b 497 533 449 579 481 551 b 640 621 553 546 608 593 z "},"+":{"ha":603,"x_min":0,"x_max":0,"o":"m 551 379 b 547 592 558 426 553 544 b 443 596 531 594 492 596 b 444 828 444 656 444 758 b 176 814 364 829 258 828 b 169 594 174 754 169 656 b 65 589 121 593 82 590 b 63 357 56 543 47 435 b 172 367 89 361 128 365 b 183 156 175 308 179 215 b 422 171 224 151 392 156 b 433 374 426 233 431 321 b 551 379 482 375 524 376 z "},",":{"ha":429,"x_min":0,"x_max":0,"o":"m 393 217 b 132 310 318 276 231 308 b 28 -69 114 225 79 50 b 189 -122 74 -100 140 -117 b 393 217 257 -50 328 90 z "},"-":{"ha":444,"x_min":0,"x_max":0,"o":"m 382 364 b 378 613 389 418 383 558 b 69 610 318 624 132 617 b 67 338 60 556 53 429 b 382 364 167 358 281 351 z "},".":{"ha":492,"x_min":0,"x_max":0,"o":"m 394 99 b 282 224 394 144 335 224 b 121 188 258 224 153 214 b 82 58 92 164 82 106 b 192 -36 82 6 160 -36 b 381 21 232 -36 364 -25 b 394 99 389 46 394 72 z "},"/":{"ha":899,"x_min":0,"x_max":0,"o":"m 879 1053 b 581 1081 850 1063 713 1094 b 22 -42 364 725 218 425 b 317 -51 51 -51 185 -65 b 879 1053 479 317 686 739 z "},":":{"ha":492,"x_min":0,"x_max":0,"o":"m 394 99 b 282 224 394 144 335 224 b 121 188 258 224 153 214 b 82 58 92 164 82 106 b 192 -36 82 6 160 -36 b 381 21 232 -36 364 -25 b 394 99 389 46 394 72 z m 381 571 b 275 704 381 619 324 704 b 121 665 251 704 151 693 b 85 528 94 640 85 578 b 189 426 85 471 158 426 b 368 488 228 426 353 438 b 381 571 376 514 381 543 z "},";":{"ha":436,"x_min":0,"x_max":0,"o":"m 374 168 b 113 261 299 226 210 260 b 8 -118 93 176 58 1 b 169 -171 53 -149 121 -165 b 374 168 238 -99 308 42 z m 369 578 b 264 711 369 626 313 711 b 110 672 240 711 140 700 b 74 535 83 647 74 585 b 178 433 74 478 147 433 b 357 494 217 433 342 444 b 369 578 365 521 369 550 z "},"<":{"ha":614,"x_min":0,"x_max":0,"o":"m 581 1053 b 313 1081 556 1063 431 1094 b 53 503 225 881 146 697 b 304 -46 125 315 210 136 b 564 -15 324 -54 476 -26 b 335 515 497 129 400 358 b 581 1053 413 679 493 836 z "},"=":{"ha":444,"x_min":0,"x_max":0,"o":"m 382 175 b 378 415 389 228 383 363 b 69 413 318 426 132 419 b 67 150 60 361 53 238 b 382 175 167 169 281 163 z m 382 542 b 378 782 389 594 383 729 b 69 779 318 793 132 786 b 67 517 60 728 53 604 b 382 542 167 536 281 529 z "},">":{"ha":614,"x_min":0,"x_max":0,"o":"m 582 542 b 331 1090 510 729 425 908 b 71 1060 310 1099 158 1071 b 300 529 136 915 235 686 b 54 -8 222 365 140 208 b 322 -36 79 -18 204 -50 b 582 542 410 163 489 347 z "},"?":{"ha":786,"x_min":0,"x_max":0,"o":"m 499 24 b 475 181 510 99 481 165 b 167 138 393 219 235 224 b 171 -24 153 119 154 -12 b 499 24 229 -62 447 -36 z m 722 678 b 696 1039 743 771 714 967 b 101 1042 601 1093 243 1122 b 36 772 67 942 54 868 b 364 794 79 789 304 831 b 369 685 374 764 376 722 b 171 543 290 642 208 582 b 174 310 164 482 160 371 b 478 338 233 311 422 319 b 514 514 492 401 490 454 b 722 678 571 547 668 625 z "},"@":{"ha":982,"x_min":0,"x_max":0,"o":"m 689 382 b 579 376 654 382 606 367 b 589 653 557 432 574 574 b 688 685 633 679 646 681 b 689 382 686 581 686 492 z m 931 214 b 881 1056 940 443 961 800 b 121 965 696 1092 276 1072 b 86 72 46 825 1 267 b 703 -37 188 -12 600 -67 b 732 111 724 0 739 36 b 306 214 576 133 425 140 b 331 817 271 394 282 688 b 664 886 408 893 599 889 b 676 825 674 867 676 825 b 396 771 571 826 483 811 b 379 269 347 664 336 347 b 694 240 478 238 618 240 b 696 183 696 226 694 197 b 931 214 728 179 906 199 z "},"A":{"ha":1128,"x_min":0,"x_max":0,"o":"m 676 436 b 456 435 647 428 506 422 b 549 779 454 472 536 751 b 610 779 567 783 592 783 b 676 436 639 706 668 539 z m 1119 -3 b 924 1065 1068 390 993 713 b 224 1057 768 1107 363 1093 b 174 863 204 1014 188 921 b 250 846 190 851 250 846 b 4 -24 158 582 31 179 b 317 -19 79 -36 235 -42 b 374 150 333 56 342 85 b 731 160 449 169 626 174 b 779 -26 744 79 757 51 b 1119 -3 869 -29 1007 -25 z "},"B":{"ha":1142,"x_min":0,"x_max":0,"o":"m 708 399 b 671 176 711 307 704 228 b 493 158 625 163 546 147 b 492 414 485 217 478 308 b 708 399 550 435 675 428 z m 676 675 b 485 654 649 651 521 642 b 492 858 481 693 488 789 b 629 861 533 875 589 871 b 676 675 660 818 679 746 z m 1108 410 b 872 582 1049 490 940 553 b 1051 768 940 618 1006 696 b 960 1068 1043 854 992 1025 b 68 1056 693 1107 279 1096 b 49 821 60 986 51 908 b 142 813 74 807 122 817 b 138 -33 135 508 118 107 b 582 -51 263 -61 419 -60 b 993 3 722 -44 901 -18 b 1108 410 1050 56 1097 281 z "},"C":{"ha":911,"x_min":0,"x_max":0,"o":"m 867 218 b 439 279 815 246 515 219 b 460 772 392 379 426 632 b 844 835 578 829 692 818 b 844 1089 860 940 850 1044 b 139 985 758 1135 265 1068 b 94 63 35 794 1 201 b 825 -43 313 -32 596 -40 b 867 218 854 -18 869 135 z "},"D":{"ha":1174,"x_min":0,"x_max":0,"o":"m 747 778 b 700 243 775 656 753 406 b 479 229 642 221 554 207 b 476 797 469 253 474 736 b 747 778 549 835 689 835 z m 1132 839 b 936 1078 1079 936 1007 1007 b 57 1064 693 1118 303 1101 b 42 831 54 1032 43 928 l 121 825 b 125 -19 118 567 108 186 b 1004 10 382 -83 867 -40 b 1132 839 1103 201 1129 557 z "},"E":{"ha":942,"x_min":0,"x_max":0,"o":"m 881 864 b 871 1094 883 919 888 1046 b 65 1067 658 1103 294 1118 b 39 854 50 1003 40 925 b 128 853 64 854 103 853 b 136 -14 121 572 115 243 b 869 -14 410 -46 626 -39 b 872 211 888 56 882 143 b 528 221 789 222 593 199 b 531 435 518 269 510 392 b 844 454 631 456 743 442 b 840 633 851 508 846 579 b 532 638 781 644 546 632 b 543 856 510 692 518 821 b 881 864 656 868 768 858 z "},"F":{"ha":882,"x_min":0,"x_max":0,"o":"m 836 1083 b 50 1057 689 1092 289 1122 b 43 849 49 1025 47 932 b 114 847 58 846 97 847 b 111 -32 101 618 85 260 b 451 -6 215 -47 393 -29 b 449 396 444 140 444 385 b 772 428 557 424 663 411 b 778 625 792 503 794 547 b 444 640 693 631 513 618 b 463 840 446 678 435 819 b 815 849 576 846 696 847 b 836 1083 835 919 839 1004 z "},"G":{"ha":1056,"x_min":0,"x_max":0,"o":"m 997 -62 b 978 668 997 144 989 447 b 540 625 874 669 661 654 b 529 432 524 560 521 497 b 669 429 571 436 626 435 b 663 286 671 390 675 336 b 429 290 618 281 499 258 b 492 776 396 400 442 703 b 917 853 606 825 797 836 b 882 1114 921 928 907 1035 b 178 1000 714 1104 338 1075 b 56 225 100 854 42 429 b 242 11 110 114 186 65 b 678 7 378 -14 539 -1 l 678 -67 b 997 -62 776 -94 925 -74 z "},"H":{"ha":1058,"x_min":0,"x_max":0,"o":"m 981 1090 b 667 1065 929 1103 714 1092 b 664 721 660 965 678 789 b 407 700 632 707 475 697 b 419 1065 407 814 403 953 b 74 1056 400 1090 151 1081 b 81 -46 67 851 53 144 b 406 -31 185 -54 310 -53 b 413 340 401 93 404 217 b 656 365 444 356 614 369 b 661 -29 676 250 654 75 b 974 -25 699 -33 913 -37 b 981 1090 978 140 1003 811 z "},"I":{"ha":486,"x_min":0,"x_max":0,"o":"m 410 1067 b 93 1044 314 1068 190 1067 b 103 -22 83 746 85 306 b 383 3 150 -28 347 -21 b 410 1067 399 360 410 718 z "},"J":{"ha":851,"x_min":0,"x_max":0,"o":"m 764 1071 b 411 1051 639 1100 490 1075 b 406 244 433 794 439 386 b 60 185 290 186 181 189 b 60 -56 44 78 56 -11 b 749 36 143 -101 625 -47 b 764 1071 765 228 793 854 z "},"K":{"ha":1038,"x_min":0,"x_max":0,"o":"m 1011 1032 b 683 1092 907 1058 779 1097 b 474 703 626 988 521 781 l 414 703 b 408 1060 399 818 404 958 b 78 1054 369 1064 161 1072 b 71 -49 74 890 49 228 b 404 -25 122 -61 357 -51 b 406 317 411 74 407 238 l 457 318 b 668 -51 497 249 575 90 b 1000 7 735 -49 922 -29 b 751 510 926 181 818 318 b 1011 1032 822 665 965 943 z "},"L":{"ha":840,"x_min":0,"x_max":0,"o":"m 793 303 b 425 297 679 289 540 267 b 428 1061 425 417 422 786 b 67 1043 367 1069 106 1067 b 82 -4 51 779 78 222 b 789 28 303 -19 676 14 b 793 303 804 122 801 208 z "},"M":{"ha":1372,"x_min":0,"x_max":0,"o":"m 1313 -4 b 1269 1097 1293 369 1285 731 b 838 1092 1163 1115 926 1117 b 689 718 819 1042 715 785 l 638 718 b 517 1081 590 831 553 963 b 88 1029 489 1089 214 1072 b 44 -35 74 894 39 253 b 329 -28 149 -47 236 -47 b 354 425 331 38 342 375 l 401 426 b 576 -1 439 325 497 147 b 701 -4 618 -8 660 -4 b 888 446 769 154 851 360 l 938 446 b 965 -25 943 424 960 51 b 1313 -4 1078 -35 1246 -43 z "},"N":{"ha":1149,"x_min":0,"x_max":0,"o":"m 1074 1067 b 788 1042 978 1076 882 1068 b 775 625 785 940 779 642 l 710 621 b 546 1082 653 774 592 924 b 69 1032 464 1096 94 1060 b 82 -18 60 753 63 163 b 356 -7 178 -37 267 -33 b 363 431 349 160 351 314 l 431 439 b 632 -19 488 281 551 121 b 1067 24 794 -17 971 8 b 1074 1067 1076 367 1076 724 z "},"O":{"ha":1144,"x_min":0,"x_max":0,"o":"m 700 806 b 694 261 721 611 706 425 b 438 256 642 233 511 236 b 465 789 435 339 442 733 b 700 806 533 813 650 817 z m 1088 819 b 881 1076 1039 904 946 1017 b 160 1022 697 1097 346 1085 b 40 240 74 847 38 428 b 193 -4 64 165 147 49 b 985 29 418 -50 813 -11 b 1088 819 1086 219 1104 536 z "},"P":{"ha":1115,"x_min":0,"x_max":0,"o":"m 694 793 b 671 601 690 713 685 636 b 463 554 640 563 510 549 b 476 829 454 610 461 735 b 694 793 526 843 640 838 z m 1068 896 b 846 1088 1046 926 929 1039 b 78 1069 710 1103 193 1104 b 44 839 74 1028 47 932 b 121 825 69 831 106 825 b 121 -33 110 518 106 56 b 442 -21 217 -42 358 -31 b 438 261 447 69 436 171 b 953 343 553 269 813 297 b 1068 896 1008 450 1067 733 z "},"Q":{"ha":1144,"x_min":0,"x_max":0,"o":"m 700 342 b 631 428 664 383 638 415 b 493 375 582 419 522 408 b 553 240 499 344 522 296 b 438 256 511 242 469 247 b 465 789 435 339 442 733 b 700 806 533 813 650 817 b 700 342 718 643 710 486 z m 1088 819 b 881 1076 1039 904 946 1017 b 160 1022 697 1097 346 1085 b 40 240 74 847 38 428 b 193 -4 64 165 147 49 b 717 -11 333 -33 540 -28 b 819 -146 758 -68 796 -118 b 1057 -47 922 -124 1015 -114 b 985 29 1044 -33 1018 -6 b 1088 819 1086 221 1104 536 z "},"R":{"ha":1092,"x_min":0,"x_max":0,"o":"m 663 793 b 618 563 671 728 663 646 b 456 542 565 544 515 543 b 453 806 444 599 447 725 b 663 793 501 815 631 828 z m 1043 49 b 879 396 1026 90 917 328 b 1028 822 957 533 1017 688 b 829 1071 986 928 896 1033 b 63 1051 607 1088 160 1083 b 38 818 47 989 39 890 b 114 813 63 813 96 814 b 128 -22 110 549 108 246 b 449 -1 260 -36 390 -19 b 456 250 453 71 457 176 b 536 264 493 269 494 264 b 728 -26 599 172 661 58 b 1043 49 828 -22 993 17 z "},"S":{"ha":922,"x_min":0,"x_max":0,"o":"m 849 858 b 826 1107 850 936 849 1035 b 132 997 600 1115 347 1083 b 44 482 65 840 38 658 b 468 381 128 422 414 425 b 460 285 471 350 467 308 b 82 208 396 250 208 217 b 122 -54 79 164 93 10 b 800 92 319 -36 600 6 b 846 579 863 213 899 447 b 438 654 710 604 574 626 b 469 806 439 707 444 761 b 849 858 594 832 722 838 z "},"T":{"ha":1004,"x_min":0,"x_max":0,"o":"m 961 1060 b 64 1026 868 1079 142 1065 b 39 742 42 935 35 829 b 317 756 118 750 232 764 b 335 -26 315 472 308 289 b 671 8 446 -36 560 -11 b 713 790 668 211 690 674 b 947 811 792 796 869 800 b 961 1060 957 867 968 988 z "},"U":{"ha":1082,"x_min":0,"x_max":0,"o":"m 1014 1047 b 657 1025 890 1044 775 1053 b 660 324 654 824 658 544 b 426 296 608 271 488 267 b 425 1022 414 513 406 725 b 75 1018 299 1039 194 1033 b 72 232 57 874 71 407 b 204 -1 92 168 164 44 b 871 8 403 -21 701 3 b 1008 250 921 74 988 181 b 1014 1047 1003 461 1010 808 z "},"V":{"ha":1019,"x_min":0,"x_max":0,"o":"m 992 1031 b 694 1061 960 1047 840 1079 b 532 519 647 906 592 658 l 472 521 b 357 1063 415 668 378 907 b 38 1031 333 1076 146 1044 b 282 -17 71 772 190 256 b 643 0 389 -22 536 -12 b 992 1031 753 338 888 726 z "},"W":{"ha":1453,"x_min":0,"x_max":0,"o":"m 1429 1075 b 1149 1075 1329 1086 1233 1094 b 1100 647 1135 932 1118 786 l 1050 651 b 928 1065 1011 792 969 928 b 617 1065 828 1085 719 1075 b 488 604 582 947 532 726 l 450 604 b 378 1054 428 756 406 904 b 43 1043 258 1076 149 1063 b 207 -22 104 686 132 333 b 619 -22 353 -31 458 -37 b 721 393 656 138 701 319 l 781 393 b 847 -17 794 331 839 26 b 1285 0 1000 -18 1125 -12 b 1429 1075 1322 207 1415 747 z "},"X":{"ha":1040,"x_min":0,"x_max":0,"o":"m 1033 1053 b 701 1081 1001 1063 847 1094 b 524 774 644 975 586 853 b 379 1075 481 847 418 989 b 58 1049 294 1082 140 1058 b 281 506 88 921 219 600 b 25 -42 179 338 78 113 b 351 -51 57 -51 206 -65 b 517 243 382 28 469 181 b 692 -46 543 203 654 31 b 1013 -15 717 -54 904 -26 b 728 515 931 129 808 358 b 1033 1053 824 679 925 836 z "},"Y":{"ha":1071,"x_min":0,"x_max":0,"o":"m 1040 1057 b 729 1075 1007 1067 882 1086 b 546 729 700 1019 596 781 b 375 1076 492 793 383 1042 b 40 1057 350 1085 154 1065 b 346 414 72 913 249 544 b 354 0 350 276 354 138 b 676 8 453 -1 576 -14 b 685 400 681 122 683 258 b 1040 1057 800 601 935 881 z "},"Z":{"ha":861,"x_min":0,"x_max":0,"o":"m 806 204 b 428 214 707 215 528 203 b 788 828 546 410 669 575 b 785 1074 799 897 789 1006 b 54 1076 543 1138 203 1085 b 74 858 51 999 54 929 b 429 850 186 838 314 856 b 43 217 361 717 179 421 b 83 -19 36 163 57 53 b 789 -8 278 -31 554 -43 b 806 204 804 64 811 135 z "},"[":{"ha":585,"x_min":0,"x_max":0,"o":"m 536 169 b 393 194 508 175 453 178 b 408 864 385 375 392 683 b 533 875 447 865 497 871 b 522 1076 540 928 528 1024 b 99 1047 407 1099 219 1074 b 103 -10 89 763 85 303 b 533 -17 242 -25 396 -33 b 536 169 540 36 542 117 z "},"\\":{"ha":790,"x_min":0,"x_max":0,"o":"m 771 -15 b 313 1075 597 326 379 878 b 25 1049 236 1082 99 1058 b 225 506 51 921 179 608 b 482 -46 314 303 449 31 b 771 -15 504 -54 672 -26 z "},"]":{"ha":585,"x_min":0,"x_max":0,"o":"m 526 6 b 522 1063 536 289 540 750 b 92 1069 385 1078 229 1086 b 89 883 86 1017 83 936 b 232 858 117 878 172 875 b 217 189 242 678 235 368 b 92 178 179 188 128 182 b 103 -24 86 125 97 29 b 526 6 218 -46 406 -22 z "},"^":{"ha":792,"x_min":0,"x_max":0,"o":"m 775 583 b 560 1042 713 708 621 907 b 219 1035 499 1046 296 1049 b 25 561 143 889 65 694 b 274 553 49 553 163 540 b 369 758 297 622 338 697 b 404 793 374 768 386 793 b 426 765 417 793 422 772 b 531 558 446 731 501 625 b 775 583 549 551 692 574 z "},"_":{"ha":707,"x_min":0,"x_max":0,"o":"m 643 1 b 635 244 654 54 646 190 b 76 242 526 256 190 249 b 71 -25 57 189 44 64 b 643 1 253 -4 460 -11 z "},"‘":{"ha":408,"x_min":0,"x_max":0,"o":"m 333 701 b 292 1122 342 813 314 974 b 51 963 204 1100 124 1046 b 188 599 86 885 157 729 b 333 701 238 617 296 663 z "},"a":{"ha":961,"x_min":0,"x_max":0,"o":"m 585 225 b 407 207 528 214 438 204 b 390 336 382 222 392 318 b 569 400 419 363 508 383 b 585 225 578 335 583 296 z m 900 6 b 817 821 924 214 892 713 b 181 832 654 861 386 860 b 146 640 156 807 143 713 b 551 632 226 642 493 651 b 551 576 554 619 553 586 b 79 453 424 565 160 500 b 56 88 58 389 38 164 b 264 -22 115 39 218 -8 b 606 25 351 -12 451 -1 l 611 -29 b 900 6 703 -25 850 -10 z "},"b":{"ha":989,"x_min":0,"x_max":0,"o":"m 586 558 b 553 225 589 467 583 276 b 392 238 511 211 440 226 b 390 574 383 296 378 468 b 586 558 443 594 556 588 z m 946 556 b 694 804 899 663 779 772 b 385 786 604 804 435 796 b 390 1075 381 825 386 1006 b 76 1065 317 1092 172 1085 b 72 -12 71 761 56 128 b 368 -31 157 -33 260 -33 l 372 29 b 817 15 492 11 650 -11 b 946 556 868 68 935 426 z "},"c":{"ha":819,"x_min":0,"x_max":0,"o":"m 781 164 b 422 208 733 183 492 165 b 442 631 379 281 411 529 b 760 676 547 672 622 664 b 760 860 774 753 764 828 b 125 783 683 893 239 843 b 85 51 31 646 0 151 b 742 -25 281 -17 535 -22 b 781 164 768 -7 783 103 z "},"d":{"ha":1044,"x_min":0,"x_max":0,"o":"m 617 608 b 615 221 618 556 624 240 b 406 207 549 201 458 189 b 428 593 389 283 403 488 b 617 608 488 624 556 624 z m 947 -18 b 947 1079 969 260 947 781 b 629 1083 869 1107 721 1094 b 635 826 626 1011 635 906 b 192 789 483 835 326 817 b 64 193 94 697 43 311 b 231 -26 111 119 168 26 b 639 15 313 -36 526 -4 l 643 -44 b 947 -18 742 -51 861 -40 z "},"e":{"ha":978,"x_min":0,"x_max":0,"o":"m 601 525 b 394 500 550 510 475 497 b 428 644 401 557 415 601 b 583 671 496 671 533 668 b 601 525 603 636 604 565 z m 928 347 b 832 874 932 514 901 758 b 139 797 756 907 253 857 b 99 64 44 660 14 164 b 786 -31 294 -4 581 -28 b 824 178 811 -12 826 117 b 394 242 776 197 464 199 b 375 306 385 258 378 279 b 928 347 554 311 833 332 z "},"f":{"ha":867,"x_min":0,"x_max":0,"o":"m 840 953 b 803 1124 842 1014 828 1106 b 292 1053 600 1121 485 1122 b 228 750 258 1013 228 822 b 49 738 158 749 78 740 b 46 522 39 696 32 592 b 224 533 90 529 163 532 b 238 -4 224 344 232 72 b 565 10 318 -15 469 -10 b 565 546 564 82 563 397 b 803 568 647 556 697 553 b 808 754 822 640 825 681 b 572 764 756 760 631 765 b 593 907 572 789 581 885 b 840 953 661 951 758 949 z "},"g":{"ha":964,"x_min":0,"x_max":0,"o":"m 563 619 b 556 242 563 507 561 353 b 383 244 493 240 410 231 b 414 603 367 333 383 501 b 563 619 458 621 517 614 z m 899 849 b 569 856 818 863 683 858 l 565 794 b 139 769 449 796 221 813 b 56 135 58 651 15 294 b 232 25 92 93 176 51 b 539 40 344 28 436 36 b 506 -64 531 -10 519 -51 b 122 -118 403 -99 229 -107 b 154 -307 118 -172 132 -250 b 724 -228 306 -300 579 -282 b 881 40 811 -194 857 -81 b 899 849 899 136 904 783 z "},"h":{"ha":951,"x_min":0,"x_max":0,"o":"m 882 890 b 600 871 836 900 642 892 b 599 589 594 793 611 642 b 367 574 569 578 426 558 b 378 871 367 661 363 783 b 67 864 361 890 136 883 b 72 -43 61 706 47 104 b 364 -32 165 -50 278 -49 b 372 228 360 64 365 132 b 590 247 392 264 553 250 b 596 -31 608 158 590 50 b 876 -26 631 -33 822 -36 b 882 890 881 101 901 674 z "},"i":{"ha":438,"x_min":0,"x_max":0,"o":"m 369 824 b 83 807 283 825 171 824 b 92 3 75 592 75 240 b 344 21 135 -1 311 4 b 369 824 358 279 369 572 z m 407 932 b 378 1064 415 978 401 1024 b 238 1086 343 1076 275 1090 b 74 1021 193 1081 85 1063 b 74 907 67 994 56 931 b 407 932 101 872 375 890 z "},"j":{"ha":479,"x_min":0,"x_max":0,"o":"m 396 814 b 78 799 283 836 149 817 b 72 -32 97 603 101 75 b -239 -76 -31 -76 -131 -72 b -239 -260 -253 -157 -243 -226 b 372 -132 -164 -294 286 -264 b 396 814 388 14 422 649 z m 407 932 b 378 1064 415 978 401 1024 b 238 1086 343 1076 275 1090 b 74 1021 193 1081 85 1063 b 74 907 67 994 56 931 b 407 932 101 872 375 890 z "},"k":{"ha":933,"x_min":0,"x_max":0,"o":"m 897 43 b 656 482 821 240 715 356 b 872 706 736 565 807 651 b 633 864 796 789 721 832 b 374 629 539 796 439 692 b 368 1069 363 717 365 996 b 69 1053 333 1072 144 1067 b 64 -18 65 928 43 193 b 364 1 111 -28 321 -19 b 367 286 369 76 368 233 l 411 286 b 593 -24 446 231 539 83 b 897 43 654 -22 826 15 z "},"l":{"ha":490,"x_min":0,"x_max":0,"o":"m 407 1069 b 96 1051 336 1088 208 1075 b 100 -3 69 878 85 150 b 400 19 218 -19 283 -15 b 407 1069 383 156 388 864 z "},"m":{"ha":1235,"x_min":0,"x_max":0,"o":"m 1181 -3 b 1143 893 1163 282 1157 614 b 754 889 1047 907 835 907 b 621 546 739 853 656 614 l 574 544 b 465 881 531 629 499 790 b 79 842 440 888 193 874 b 40 -26 67 739 35 192 b 296 -21 133 -36 213 -35 b 315 318 297 24 301 247 l 361 324 b 518 -1 394 246 447 111 b 631 -3 556 -7 593 -3 b 801 342 692 118 768 276 l 844 339 b 869 -18 850 322 864 40 b 1181 -3 969 -25 1121 -33 z "},"n":{"ha":1033,"x_min":0,"x_max":0,"o":"m 965 868 b 708 850 879 875 793 869 b 696 474 706 775 697 549 l 642 467 b 492 881 590 581 533 763 b 63 843 418 892 85 864 b 74 -6 54 635 57 129 b 321 4 160 -21 240 -15 b 329 331 314 128 319 244 l 388 335 b 569 -7 439 217 497 97 b 960 26 715 -6 874 15 b 965 868 968 282 968 613 z "},"o":{"ha":992,"x_min":0,"x_max":0,"o":"m 611 250 b 379 231 568 235 439 218 b 400 624 369 324 379 583 b 608 638 474 649 539 644 b 611 250 626 497 614 358 z m 925 706 b 747 840 899 738 804 801 b 131 804 611 872 267 839 b 46 201 58 633 42 413 b 285 -12 108 111 199 22 b 876 49 432 -15 629 -11 b 925 706 944 188 950 588 z "},"p":{"ha":990,"x_min":0,"x_max":0,"o":"m 588 588 b 578 271 596 463 599 367 b 382 247 529 213 426 240 b 382 575 368 350 375 511 b 588 588 424 590 540 613 z m 911 708 b 718 844 868 751 782 813 b 375 800 594 844 472 821 l 376 869 b 76 846 249 867 124 860 b 75 -262 56 636 64 11 b 364 -250 161 -269 289 -258 b 360 31 369 -168 358 -51 b 825 57 453 25 688 13 b 911 708 924 274 958 542 z "},"q":{"ha":1003,"x_min":0,"x_max":0,"o":"m 610 232 b 399 247 557 210 429 217 b 433 610 396 343 403 556 b 608 608 483 618 560 621 b 610 232 617 549 622 342 z m 929 876 b 613 888 838 900 731 892 l 604 811 b 176 804 506 821 269 825 b 58 207 99 639 64 414 b 304 -25 106 96 219 8 b 615 -6 394 -25 565 -15 b 610 -256 619 -47 614 -183 b 926 -235 685 -264 829 -265 b 929 876 932 82 946 731 z "},"r":{"ha":975,"x_min":0,"x_max":0,"o":"m 593 461 b 386 410 549 418 442 411 b 385 613 376 454 379 549 b 574 640 419 635 543 651 b 593 461 576 626 599 507 z m 931 25 b 779 297 915 58 814 244 b 925 442 838 349 896 408 b 771 869 940 597 849 807 b 376 831 672 874 478 856 l 376 897 b 86 875 272 908 131 888 b 83 -31 57 778 71 118 b 381 -14 206 -42 326 -28 b 383 157 385 43 379 89 l 465 179 b 625 -33 529 101 594 0 b 931 25 717 -31 885 0 z "},"s":{"ha":858,"x_min":0,"x_max":0,"o":"m 778 697 b 757 886 779 756 776 831 b 133 803 554 893 326 868 b 54 378 74 683 49 511 b 435 275 129 332 386 308 b 428 196 438 251 433 214 b 88 138 371 169 201 143 b 125 -62 85 104 100 -46 b 747 79 331 -40 557 -8 b 775 451 804 171 822 351 b 408 536 653 471 531 515 b 436 657 410 576 414 624 b 778 697 549 676 664 681 z "},"t":{"ha":904,"x_min":0,"x_max":0,"o":"m 864 782 b 617 789 835 788 735 790 b 619 1058 618 857 619 1014 b 276 1018 533 1060 378 1057 b 264 781 267 950 264 846 b 57 757 142 775 82 768 b 35 540 36 688 31 607 b 261 551 107 546 185 558 b 278 -21 260 336 253 219 b 608 7 378 -28 508 -8 b 624 576 606 161 604 488 b 853 593 694 581 782 585 b 864 782 861 635 871 728 z "},"u":{"ha":978,"x_min":0,"x_max":0,"o":"m 913 849 b 592 832 814 857 697 854 b 593 311 589 679 592 479 b 385 278 549 278 444 271 b 410 860 385 471 392 635 b 94 818 325 858 167 843 b 51 182 78 708 50 314 b 197 -1 69 133 161 33 b 608 50 354 13 501 22 l 611 -17 b 907 18 697 -19 868 -4 b 913 849 901 179 908 667 z "},"v":{"ha":918,"x_min":0,"x_max":0,"o":"m 892 849 b 624 872 864 861 754 886 b 488 464 579 749 526 589 l 417 461 b 321 874 403 515 338 772 b 33 836 299 885 135 865 b 253 -12 63 639 171 194 b 578 0 350 -17 482 -10 b 892 849 676 256 799 618 z "},"w":{"ha":1322,"x_min":0,"x_max":0,"o":"m 1286 869 b 1021 869 1196 878 1097 885 b 976 479 1008 761 993 585 l 935 472 b 821 863 899 588 860 754 b 542 863 731 878 633 871 b 429 458 511 776 468 561 l 389 457 b 326 868 368 569 336 696 b 39 846 219 885 133 861 b 186 -31 54 546 118 240 b 544 -29 318 -37 399 -40 b 635 285 578 92 618 229 l 689 285 b 749 -25 701 238 740 7 b 1156 -12 886 -26 1011 -22 b 1286 869 1189 146 1274 621 z "},"x":{"ha":936,"x_min":0,"x_max":0,"o":"m 929 871 b 631 894 900 879 763 906 b 476 636 592 828 500 679 b 342 890 428 724 383 804 b 50 824 271 896 140 863 b 253 419 118 693 211 515 b 22 -33 163 281 69 93 b 317 -42 51 -42 185 -53 b 460 213 344 24 422 154 b 622 -37 518 133 575 50 b 911 -12 644 -44 813 -21 b 656 426 838 135 732 307 b 929 871 742 563 832 692 z "},"y":{"ha":964,"x_min":0,"x_max":0,"o":"m 926 868 b 613 857 819 886 689 871 b 489 601 575 775 539 708 b 357 850 418 714 368 819 b 36 807 244 847 138 850 b 342 317 60 738 221 465 b 356 -39 340 210 344 136 b 636 -19 399 -43 603 -37 b 657 321 646 171 653 218 b 926 868 792 560 858 710 z "},"z":{"ha":760,"x_min":0,"x_max":0,"o":"m 711 168 b 378 175 625 176 465 167 b 694 664 482 326 590 468 b 693 856 704 718 696 803 b 47 858 479 906 182 876 b 65 667 44 799 47 721 b 379 661 164 651 278 665 b 38 157 319 557 157 315 b 75 -26 32 114 53 29 b 696 -17 247 -36 489 -44 b 711 168 710 39 717 114 z "},"{":{"ha":560,"x_min":0,"x_max":0,"o":"m 519 938 b 471 1106 519 993 489 1072 b 133 983 324 1085 197 1061 b 138 647 72 908 151 775 b 51 525 131 589 51 525 b 125 361 51 525 129 410 b 117 47 113 225 69 78 b 431 -72 188 0 332 -58 b 476 103 453 -42 471 29 b 369 165 435 108 385 144 b 415 406 346 197 414 294 b 349 525 415 440 349 525 b 426 606 349 525 424 567 b 392 861 435 697 367 828 b 519 938 419 900 465 931 z "},"|":{"ha":638,"x_min":0,"x_max":0,"o":"m 592 810 b 585 1056 601 864 593 1001 b 57 1053 489 1067 158 1060 b 53 783 40 999 29 874 b 167 792 82 788 136 789 b 171 226 164 613 165 413 b 72 222 139 225 92 224 b 68 -24 57 174 47 60 b 571 0 218 -6 421 -11 b 565 225 581 50 574 175 b 471 229 546 228 506 228 b 488 804 478 422 485 614 b 592 810 519 806 561 807 z "},"}":{"ha":560,"x_min":0,"x_max":0,"o":"m 513 522 b 439 686 513 522 435 638 b 447 1000 451 822 493 969 b 133 1119 376 1047 232 1106 b 88 944 111 1089 93 1018 b 194 882 129 939 179 903 b 149 642 218 850 150 753 b 215 522 149 607 215 522 b 138 442 215 522 140 482 b 172 186 129 351 196 219 b 44 110 143 147 97 117 b 93 -58 44 54 75 -25 b 431 64 240 -37 365 -14 b 426 400 492 139 413 274 b 513 522 432 458 513 522 z "},"~":{"ha":789,"x_min":0,"x_max":0,"o":"m 756 917 b 653 1028 735 965 693 1003 b 510 921 653 1028 578 885 b 240 1044 408 975 317 1089 b 42 735 168 1003 86 846 b 147 629 57 699 93 661 b 231 733 174 672 210 722 b 507 611 263 751 418 621 b 756 917 588 603 722 861 z "},"¡":{"ha":492,"x_min":0,"x_max":0,"o":"m 390 -21 b 383 701 390 217 399 456 b 156 683 349 710 196 692 b 61 -10 143 583 106 290 b 390 -21 157 -47 274 -36 z m 425 946 b 425 1101 432 982 442 1069 b 122 1068 400 1149 151 1125 b 149 886 114 1006 126 942 b 276 857 179 869 242 850 b 425 946 315 864 414 889 z "},"¢":{"ha":863,"x_min":0,"x_max":0,"o":"m 789 750 b 775 924 796 800 779 896 b 574 910 719 925 672 919 b 596 1140 581 976 582 1050 b 286 1101 507 1151 379 1140 b 296 885 290 1033 294 982 b 135 846 211 872 179 858 b 69 244 71 736 33 408 b 292 176 129 192 218 193 b 314 -36 296 99 296 32 b 569 -31 361 -50 518 -44 b 574 149 571 50 571 97 b 747 136 654 138 672 143 b 786 321 774 169 789 292 b 431 372 688 333 476 350 b 451 686 389 458 415 617 b 789 750 543 707 685 743 z "},"£":{"ha":844,"x_min":0,"x_max":0,"o":"m 811 850 b 790 1074 813 919 811 1008 b 129 975 575 1082 333 1053 b 92 739 104 897 99 806 b 219 638 133 710 182 667 b 85 632 151 636 101 633 b 82 422 75 578 68 514 b 175 432 101 426 133 429 b 60 253 153 400 122 349 b 63 14 49 186 58 79 b 779 11 300 -49 633 3 b 760 224 782 86 779 156 b 411 232 650 243 524 226 b 549 433 472 313 507 372 b 722 461 649 435 686 457 b 722 642 729 515 728 588 b 481 689 615 663 578 658 b 489 801 467 714 465 761 b 811 850 608 825 692 831 z "},"⁄":{"ha":899,"x_min":0,"x_max":0,"o":"m 879 1053 b 581 1081 850 1063 713 1094 b 22 -42 364 725 218 425 b 317 -51 51 -51 185 -65 b 879 1053 479 317 686 739 z "},"¥":{"ha":1019,"x_min":0,"x_max":0,"o":"m 983 1085 b 686 1101 876 1093 710 1110 b 554 771 651 1007 569 815 b 526 736 551 761 542 736 b 482 778 503 736 488 765 b 354 1100 439 882 390 985 b 35 1081 211 1111 65 1092 b 161 746 64 992 110 869 b 96 742 135 744 111 743 b 94 479 86 689 81 567 b 279 494 153 490 217 492 b 329 407 296 463 313 433 l 331 382 b 96 375 251 383 142 381 b 94 113 86 322 81 200 b 336 131 171 128 256 126 b 343 -47 338 68 340 10 b 654 -21 389 -53 618 -46 b 660 121 656 26 658 74 b 915 138 744 129 833 128 b 911 376 922 190 917 324 b 675 379 868 385 756 383 b 725 492 690 411 707 450 b 915 504 789 494 854 497 b 911 743 922 557 917 690 b 833 749 894 746 865 749 b 983 1085 888 876 942 1003 z "},"ƒ":{"ha":874,"x_min":0,"x_max":0,"o":"m 835 893 b 807 1079 836 957 826 1060 b 315 1004 656 1076 460 1076 b 258 628 272 931 260 782 b 135 622 208 626 164 624 b 131 368 117 572 104 453 b 261 378 174 372 217 375 b 264 199 263 307 265 246 b 60 151 188 153 142 156 b 60 -40 49 67 57 -6 b 578 33 115 -76 494 -33 b 594 388 590 110 593 247 b 708 393 633 389 671 390 b 701 625 719 444 711 574 b 600 631 678 628 642 629 b 624 825 604 721 611 793 b 835 893 675 871 747 879 z "},"§":{"ha":903,"x_min":0,"x_max":0,"o":"m 567 571 b 564 471 579 539 575 511 b 351 503 528 471 411 476 b 361 604 340 540 340 563 b 567 571 428 592 525 572 z m 839 743 b 407 808 756 756 481 793 b 425 897 394 840 404 876 b 814 949 525 913 713 942 b 800 1126 821 999 804 1097 b 147 1049 656 1132 275 1088 b 65 346 67 939 32 544 b 365 299 153 321 297 306 b 478 283 403 294 451 286 b 485 217 528 278 504 226 b 100 150 440 193 196 164 b 139 -39 97 119 114 -6 b 790 96 350 -18 601 18 b 839 743 858 258 894 525 z "},"'":{"ha":408,"x_min":0,"x_max":0,"o":"m 361 1071 b 90 1053 276 1097 183 1092 b 90 651 96 965 108 786 b 257 667 142 642 210 653 b 361 1071 303 763 333 925 z "},"“":{"ha":642,"x_min":0,"x_max":0,"o":"m 332 650 b 238 1051 325 756 278 911 b 33 911 158 1035 89 988 b 208 560 75 836 163 685 b 332 650 253 574 301 615 z m 568 686 b 544 1104 579 793 560 956 b 324 985 465 1096 390 1056 b 433 608 351 904 411 740 b 568 686 479 617 532 654 z "},"«":{"ha":1022,"x_min":0,"x_max":0,"o":"m 581 946 b 313 968 556 954 431 979 b 53 506 225 808 146 661 b 304 67 125 356 210 213 b 564 92 324 61 476 83 b 335 517 497 207 400 390 b 581 946 413 647 493 772 z m 978 946 b 710 968 951 954 828 979 b 450 506 622 808 543 661 b 701 67 522 356 606 213 b 961 92 721 61 874 83 b 732 517 894 207 797 390 b 978 946 810 647 890 772 z "},"‹":{"ha":614,"x_min":0,"x_max":0,"o":"m 581 946 b 313 968 556 954 431 979 b 53 506 225 808 146 661 b 304 67 125 356 210 213 b 564 92 324 61 476 83 b 335 517 497 207 400 390 b 581 946 413 647 493 772 z "},"›":{"ha":614,"x_min":0,"x_max":0,"o":"m 582 533 b 331 972 510 685 425 828 b 71 949 310 979 158 957 b 300 524 136 832 235 649 b 54 94 222 393 140 268 b 322 72 79 86 204 61 b 582 533 410 231 489 379 z "},"ﬁ":{"ha":1289,"x_min":0,"x_max":0,"o":"m 840 953 b 803 1124 842 1014 828 1106 b 292 1053 600 1121 485 1122 b 228 750 258 1013 228 822 b 49 738 158 749 78 740 b 46 522 39 696 32 592 b 224 533 90 529 163 532 b 238 -4 224 344 232 72 b 565 10 318 -15 469 -10 b 565 546 564 82 563 397 b 803 568 647 556 697 553 b 808 754 822 640 825 681 b 572 764 756 760 631 765 b 593 907 572 789 581 885 b 840 953 661 951 758 949 z m 1214 817 b 928 800 1129 818 1015 817 b 936 -4 919 585 921 233 b 1189 14 979 -8 1157 -3 b 1214 817 1203 272 1214 564 z m 1251 925 b 1222 1057 1261 971 1246 1017 b 1082 1079 1189 1069 1121 1083 b 918 1014 1039 1074 931 1056 b 918 900 911 988 900 924 b 1251 925 946 865 1219 883 z "},"ﬂ":{"ha":1367,"x_min":0,"x_max":0,"o":"m 840 953 b 803 1124 842 1014 828 1106 b 292 1053 600 1121 485 1122 b 228 750 258 1013 228 822 b 49 738 158 749 78 740 b 46 522 39 696 32 592 b 224 533 90 529 163 532 b 238 -4 224 344 232 72 b 565 10 318 -15 469 -10 b 565 546 564 82 563 397 b 803 568 647 556 697 553 b 808 754 822 640 825 681 b 572 764 756 760 631 765 b 593 907 572 789 581 885 b 840 953 661 951 758 949 z m 1281 1069 b 969 1051 1208 1088 1082 1075 b 974 -3 943 878 958 150 b 1274 19 1092 -19 1157 -15 b 1281 1069 1257 156 1261 864 z "},"–":{"ha":611,"x_min":0,"x_max":0,"o":"m 546 364 b 539 613 554 418 547 558 b 76 610 449 624 171 617 b 72 338 61 556 50 429 b 546 364 222 358 394 351 z "},"†":{"ha":518,"x_min":0,"x_max":0,"o":"m 471 365 b 465 613 479 419 472 558 b 389 617 450 615 414 615 b 411 1040 392 758 411 900 b 151 1019 331 1042 235 1040 b 147 614 149 901 147 761 b 72 610 122 613 88 611 b 69 339 60 556 51 429 b 149 347 92 343 125 344 b 160 8 151 228 154 113 b 371 32 200 3 339 10 b 383 360 375 142 381 251 b 471 365 407 361 447 363 z "},"‡":{"ha":526,"x_min":0,"x_max":0,"o":"m 475 183 b 471 419 483 236 478 368 b 389 425 456 422 415 424 b 393 540 390 464 392 501 b 475 544 415 542 453 543 b 471 782 483 597 478 731 b 397 786 457 783 419 785 b 400 1040 399 871 400 956 b 151 1019 315 1042 238 1042 b 147 783 150 949 149 868 b 72 779 124 782 88 781 b 69 521 60 728 51 608 b 146 528 89 524 125 526 b 147 421 146 493 147 457 b 72 418 124 419 88 419 b 69 158 60 367 51 246 b 153 167 92 161 131 165 b 160 0 154 108 157 53 b 375 24 201 -6 343 1 b 382 178 376 75 381 126 b 475 183 408 179 450 181 z "},"·":{"ha":492,"x_min":0,"x_max":0,"o":"m 400 494 b 288 619 400 540 340 619 b 126 583 264 619 158 610 b 88 454 97 560 88 501 b 197 360 88 401 165 360 b 386 417 238 360 369 371 b 400 494 394 442 400 468 z "},"¶":{"ha":1140,"x_min":0,"x_max":0,"o":"m 425 803 b 422 586 424 731 422 658 b 358 607 393 593 369 600 b 378 785 353 665 375 767 b 425 803 383 792 401 797 z m 765 806 b 764 542 771 725 774 599 b 697 546 751 542 728 543 b 700 818 699 635 701 724 b 765 806 733 815 757 813 z m 1074 1044 b 181 1057 964 1085 339 1076 b 28 582 103 976 13 781 b 211 344 74 508 150 400 b 425 299 249 328 333 313 b 432 -7 426 192 429 89 b 688 -15 518 -31 603 -17 b 690 264 688 82 689 174 b 757 256 718 261 742 258 b 769 -1 756 182 765 71 b 1064 -22 822 -19 943 -36 b 1074 1044 1088 331 1079 729 z "},"•":{"ha":492,"x_min":0,"x_max":0,"o":"m 417 499 b 294 669 417 563 351 669 b 119 621 269 669 154 656 b 78 444 89 589 78 508 b 197 315 78 372 163 315 b 401 393 242 315 385 329 b 417 499 411 426 417 464 z "},"‚":{"ha":408,"x_min":0,"x_max":0,"o":"m 394 300 b 147 404 324 364 240 400 b 43 6 128 314 93 131 b 196 -54 86 -28 150 -47 b 394 300 261 21 331 168 z "},"„":{"ha":664,"x_min":0,"x_max":0,"o":"m 338 392 b 110 449 269 442 192 461 b 63 38 103 357 93 171 b 204 8 104 13 163 6 b 338 392 253 93 297 250 z m 647 324 b 417 410 583 381 506 410 b 307 32 397 325 358 151 b 450 -15 347 3 407 -12 b 647 324 514 57 583 197 z "},"”":{"ha":642,"x_min":0,"x_max":0,"o":"m 335 1051 b 106 1107 267 1101 189 1121 b 60 697 100 1015 90 829 b 201 667 101 672 160 665 b 335 1051 250 753 294 910 z m 639 936 b 407 1022 574 993 496 1024 b 299 646 388 938 349 765 b 440 597 338 617 397 601 b 639 936 506 669 575 810 z "},"»":{"ha":1003,"x_min":0,"x_max":0,"o":"m 582 533 b 331 972 510 685 425 828 b 71 949 310 979 158 957 b 300 524 136 832 235 649 b 54 94 222 393 140 268 b 322 72 79 86 204 61 b 582 533 410 231 489 379 z m 968 533 b 717 972 896 685 811 828 b 457 949 697 979 544 957 b 686 524 522 832 621 649 b 440 94 608 393 528 268 b 708 72 465 86 590 61 b 968 533 796 231 875 379 z "},"…":{"ha":1267,"x_min":0,"x_max":0,"o":"m 333 104 b 244 242 333 156 286 242 b 115 203 225 242 142 231 b 85 60 93 176 85 113 b 172 -43 85 3 147 -43 b 322 19 204 -43 310 -32 b 333 104 329 46 333 76 z m 719 126 b 629 264 719 176 671 264 b 501 224 611 264 526 253 b 469 82 478 199 469 135 b 557 -21 469 24 532 -21 b 708 42 590 -21 696 -10 b 719 126 715 68 719 97 z m 1115 110 b 1025 247 1115 161 1067 247 b 897 208 1006 247 922 236 b 865 65 874 182 865 118 b 953 -37 865 8 928 -37 b 1104 25 986 -37 1092 -26 b 1115 110 1111 51 1115 82 z "},"‰":{"ha":1478,"x_min":0,"x_max":0,"o":"m 889 264 b 886 169 889 232 886 201 b 793 147 861 151 824 147 b 756 150 781 147 768 147 b 754 185 756 161 754 174 b 760 325 754 233 753 278 b 869 343 793 340 833 343 l 881 343 b 889 264 886 317 889 290 z m 389 819 b 386 725 389 788 386 757 b 293 703 361 707 324 703 b 256 706 281 703 268 703 b 254 740 256 717 254 729 b 260 881 254 789 253 833 b 369 899 293 896 333 899 l 381 899 b 389 819 386 872 389 846 z m 1250 264 b 1247 169 1250 232 1247 201 b 1154 147 1222 151 1185 147 b 1117 150 1142 147 1129 147 b 1115 185 1117 161 1115 174 b 1121 325 1115 233 1114 278 b 1231 343 1154 340 1194 343 l 1242 343 b 1250 264 1247 317 1250 290 z m 1431 376 b 1290 524 1428 421 1329 515 b 1001 475 1233 536 1086 511 b 929 524 975 500 946 519 b 682 490 881 535 767 518 b 990 1053 783 692 889 888 b 692 1081 961 1063 824 1094 b 571 876 649 1011 610 943 b 569 932 571 894 571 914 b 429 1079 567 976 468 1071 b 88 996 357 1096 135 1050 b 57 686 67 901 53 797 b 167 526 58 650 115 544 b 393 538 221 514 313 519 b 133 -42 308 365 226 181 b 428 -51 163 -51 296 -65 b 558 235 469 42 513 138 b 557 131 556 200 556 165 b 667 -29 558 94 615 -11 b 981 8 742 -47 890 -29 b 1028 -29 996 -10 1013 -24 b 1407 53 1128 -53 1363 -12 b 1431 376 1428 122 1438 263 z "},"¿":{"ha":786,"x_min":0,"x_max":0,"o":"m 729 278 b 401 256 686 261 460 218 b 396 365 392 285 389 328 b 594 507 475 407 556 468 b 592 740 600 568 604 679 b 288 713 532 739 343 731 b 251 536 274 649 274 596 b 43 372 194 503 96 425 b 69 11 22 279 51 83 b 664 8 164 -43 522 -72 b 729 278 697 108 711 182 z m 599 913 b 594 1074 613 931 610 1063 b 267 1026 536 1113 318 1085 b 290 869 256 951 285 885 b 599 913 372 831 531 826 z "},"`":{"ha":429,"x_min":0,"x_max":0,"o":"m 397 786 b 292 1051 346 872 311 993 b 28 1011 193 1060 104 1044 b 235 764 94 919 165 818 b 397 786 283 763 351 769 z "},"´":{"ha":429,"x_min":0,"x_max":0,"o":"m 397 1011 b 133 1042 321 1042 232 1051 b 28 788 114 985 79 869 b 190 772 74 774 142 771 b 397 1011 260 826 331 924 z "},"ˆ":{"ha":718,"x_min":0,"x_max":0,"o":"m 656 767 b 493 1047 608 843 539 964 b 238 1043 447 1049 294 1051 b 92 753 181 953 122 833 b 279 747 110 747 196 740 b 350 874 296 790 326 836 b 376 894 354 879 363 894 b 393 878 386 894 390 882 b 472 751 408 857 450 792 b 656 767 486 747 593 761 z "},"˜":{"ha":714,"x_min":0,"x_max":0,"o":"m 685 964 b 592 1038 665 996 629 1021 b 463 967 592 1038 524 942 b 221 1047 372 1003 289 1078 b 42 843 156 1019 82 917 b 136 774 56 819 89 794 b 211 842 160 801 193 835 b 461 761 242 854 381 767 b 685 964 533 756 654 926 z "},"¯":{"ha":1128,"x_min":0,"x_max":0,"o":"m 860 1060 b 853 1258 871 1103 863 1215 b 297 1256 746 1268 411 1261 b 293 1039 279 1213 267 1111 b 860 1060 474 1056 678 1050 z "},"˘":{"ha":718,"x_min":0,"x_max":0,"o":"m 682 1001 b 476 1031 663 1006 568 1038 b 369 949 467 1011 407 949 b 265 1028 350 949 286 990 b 63 989 250 1032 140 1008 b 225 826 114 921 149 883 b 522 831 272 790 453 783 b 682 1001 611 892 649 929 z "},"˙":{"ha":492,"x_min":0,"x_max":0,"o":"m 581 1142 b 493 1244 581 1179 533 1244 b 368 1215 475 1244 393 1236 b 338 1108 346 1196 338 1147 b 422 1031 338 1065 399 1031 b 569 1078 454 1031 557 1039 b 581 1142 576 1097 581 1119 z "},"¨":{"ha":726,"x_min":0,"x_max":0,"o":"m 315 885 b 226 1008 315 931 268 1008 b 99 972 208 1008 125 999 b 68 844 76 950 68 892 b 156 751 68 793 131 751 b 306 808 188 751 292 763 b 315 885 311 832 315 860 z m 658 893 b 574 1015 658 939 613 1015 b 450 981 554 1015 475 1006 b 421 854 428 957 421 900 b 504 763 421 803 481 763 b 649 818 535 763 636 772 b 658 893 654 842 658 868 z "},"˚":{"ha":608,"x_min":0,"x_max":0,"o":"m 404 915 b 401 854 404 894 401 874 b 307 840 375 843 338 840 b 268 842 294 840 281 840 b 267 864 268 849 267 857 b 272 954 267 894 265 924 b 385 965 306 964 347 965 l 396 965 b 404 915 400 949 404 932 z m 588 988 b 444 1082 585 1017 485 1076 b 97 1029 371 1093 146 1064 b 67 829 76 968 63 900 b 178 726 68 806 125 735 b 564 779 279 708 518 736 b 588 988 585 824 594 914 z "},"¸":{"ha":900,"x_min":0,"x_max":0,"o":"m 646 274 b 404 286 601 281 457 299 b 385 10 407 181 408 58 b 186 -33 347 -19 251 -25 b 207 -171 185 -74 193 -158 b 608 -124 319 -169 501 -169 b 646 274 654 -57 654 160 z "},"˝":{"ha":642,"x_min":0,"x_max":0,"o":"m 335 1096 b 106 1108 267 1118 189 1124 b 60 871 100 1056 90 949 b 201 865 101 860 160 860 b 335 1096 250 918 294 1011 z m 647 1078 b 417 1107 583 1106 504 1115 b 307 883 396 1058 358 956 b 450 868 346 869 407 867 b 647 1078 514 914 583 1000 z "},"˛":{"ha":900,"x_min":0,"x_max":0,"o":"m 731 -33 b 532 10 679 -26 572 -21 b 519 65 524 28 519 46 b 526 189 519 106 525 147 b 474 193 510 193 492 193 b 285 163 411 193 344 203 b 276 22 281 111 276 74 b 308 -124 276 -26 281 -82 b 710 -171 417 -169 592 -169 b 731 -42 726 -156 731 -65 z "},"ˇ":{"ha":904,"x_min":0,"x_max":0,"o":"m 656 1040 b 468 1046 638 1046 551 1053 b 396 919 451 1003 419 957 b 371 899 393 914 385 899 b 354 915 361 899 357 911 b 275 1042 339 936 297 1001 b 92 1026 261 1046 154 1032 b 254 747 139 950 208 829 b 510 751 300 744 453 743 b 656 1040 567 840 625 960 z "},"—":{"ha":774,"x_min":0,"x_max":0,"o":"m 708 364 b 700 613 721 418 711 558 b 83 610 581 624 210 617 b 78 338 63 556 49 429 b 708 364 278 358 507 351 z "},"Æ":{"ha":1539,"x_min":0,"x_max":0,"o":"m 724 782 b 719 432 721 668 719 549 b 528 435 665 426 565 424 b 681 779 532 472 663 751 b 724 782 693 782 710 782 z m 1478 864 b 1468 1094 1481 919 1485 1046 b 819 1090 1299 1101 1036 1108 b 403 1057 660 1090 488 1078 b 319 863 376 1014 343 921 b 393 846 335 851 393 846 b -3 -24 256 582 58 179 b 310 -19 69 -36 224 -42 b 396 150 340 56 354 85 b 724 164 468 168 619 174 b 733 -14 725 101 729 42 b 771 -18 746 -15 758 -17 l 771 -26 b 868 -26 800 -28 832 -28 b 1467 -14 1082 -28 1265 -35 b 1469 211 1485 56 1479 143 b 1125 221 1386 222 1190 199 b 1122 239 1124 226 1124 232 b 1122 418 1122 300 1122 360 b 1128 435 1124 424 1125 431 b 1442 454 1228 456 1340 442 b 1438 633 1449 508 1443 579 b 1129 638 1378 644 1143 632 b 1140 856 1107 692 1115 821 b 1478 864 1253 868 1365 858 z "},"ª":{"ha":700,"x_min":0,"x_max":0,"o":"m 401 522 b 292 517 367 522 318 507 b 303 793 269 572 288 714 b 400 825 347 819 358 821 b 401 522 399 721 399 632 z m 643 1 b 635 244 654 54 646 190 b 76 242 526 256 190 249 b 71 -25 57 189 44 64 b 643 1 253 -4 460 -11 z m 644 354 b 625 990 651 519 649 778 b 110 911 519 992 197 951 b 93 410 61 804 50 488 b 407 381 192 378 331 381 b 410 324 408 367 408 338 b 644 354 442 319 619 339 z "},"Ł":{"ha":910,"x_min":0,"x_max":0,"o":"m 863 303 b 494 297 749 289 610 267 b 493 485 494 336 494 403 b 624 507 538 492 582 499 b 617 706 635 553 626 663 b 493 692 589 704 544 699 b 497 1061 493 815 494 946 b 136 1043 436 1069 175 1067 b 133 638 131 940 131 793 b 61 625 104 632 81 628 b 57 407 43 579 31 476 b 139 425 83 414 111 419 b 151 -4 144 254 150 93 b 858 28 372 -19 746 14 b 863 303 874 122 871 208 z "},"Ø":{"ha":1144,"x_min":0,"x_max":0,"o":"m 710 593 b 694 275 710 481 701 374 b 607 256 674 264 642 258 b 710 593 640 369 675 482 z m 549 793 b 439 447 511 681 475 568 b 465 776 443 582 450 743 b 549 793 489 783 518 789 z m 1088 806 b 881 1049 1039 886 946 992 b 867 1050 876 1050 872 1050 b 901 1142 879 1082 890 1113 b 685 1174 881 1153 781 1190 b 642 1057 671 1135 656 1096 b 160 997 472 1054 281 1036 b 40 254 74 832 38 432 b 193 22 64 183 147 72 b 315 7 229 15 271 11 b 281 -122 304 -35 293 -78 b 494 -133 301 -133 399 -150 b 533 4 507 -87 519 -42 b 985 54 707 10 883 32 b 1088 806 1086 235 1104 535 z "},"Œ":{"ha":1497,"x_min":0,"x_max":0,"o":"m 682 808 b 679 254 679 631 675 436 b 438 256 619 233 504 238 b 465 789 435 339 442 733 b 682 808 526 810 626 815 z m 1436 864 b 1426 1094 1439 919 1443 1046 b 729 1085 1244 1101 954 1110 b 160 1022 542 1083 303 1069 b 40 240 74 847 38 428 b 193 -4 64 165 147 49 b 692 -14 326 -32 521 -29 l 692 -14 b 1425 -14 965 -46 1182 -39 b 1428 211 1443 56 1438 143 b 1083 221 1344 222 1149 199 b 1074 332 1079 246 1074 290 b 1085 432 1078 365 1082 397 b 1086 435 1085 432 1086 433 b 1400 454 1186 456 1299 442 b 1396 633 1407 508 1401 579 b 1093 636 1340 644 1132 633 b 1088 819 1093 699 1092 760 l 1085 824 b 1099 856 1089 838 1093 849 b 1436 864 1211 868 1324 858 z "},"º":{"ha":700,"x_min":0,"x_max":0,"o":"m 443 683 b 440 578 443 649 440 613 b 335 553 411 557 368 553 b 292 556 319 553 306 553 b 290 594 290 568 290 582 b 296 751 290 649 288 699 b 421 772 333 768 381 772 l 433 772 b 443 683 439 743 443 714 z m 643 1 b 635 244 654 54 646 190 b 76 242 526 256 190 249 b 71 -25 57 189 44 64 b 643 1 253 -4 460 -11 z m 649 810 b 489 975 646 860 533 965 b 100 881 407 993 154 942 b 65 533 76 775 61 657 b 190 354 67 493 132 374 b 622 446 304 328 571 372 b 649 810 646 524 656 681 z "},"æ":{"ha":1519,"x_min":0,"x_max":0,"o":"m 585 225 b 407 207 528 214 438 204 b 390 336 382 222 392 318 b 569 400 419 363 508 383 b 585 225 578 335 583 296 z m 1143 525 b 936 500 1092 510 1017 497 b 969 644 943 557 957 601 b 1125 671 1038 671 1075 668 b 1143 525 1144 636 1146 565 z m 1469 347 b 1374 874 1474 514 1443 758 b 779 829 1311 900 967 872 b 181 832 615 861 371 857 b 146 640 156 807 143 713 b 551 632 226 642 493 651 b 551 576 554 619 553 586 b 79 453 424 565 160 500 b 56 88 58 389 38 164 b 264 -22 115 39 218 -8 b 606 25 351 -12 451 -1 l 611 -29 b 894 4 699 -25 839 -10 b 1328 -31 1042 -19 1200 -29 b 1365 178 1353 -12 1368 117 b 936 242 1318 197 1006 199 b 917 306 926 258 919 279 b 1469 347 1096 311 1375 332 z "},"ı":{"ha":438,"x_min":0,"x_max":0,"o":"m 369 846 b 83 829 283 847 171 846 b 92 3 75 601 75 253 b 344 22 135 -1 311 4 b 369 846 358 294 369 581 z "},"ł":{"ha":611,"x_min":0,"x_max":0,"o":"m 558 501 b 553 696 569 546 561 654 b 461 688 531 696 499 692 b 476 1069 464 847 469 993 b 165 1051 406 1088 278 1075 b 151 640 154 981 151 819 b 58 625 114 635 82 629 b 56 411 43 579 32 479 b 153 432 88 418 119 425 b 169 -3 157 240 163 64 b 469 19 288 -19 353 -15 b 460 483 461 83 458 276 b 558 501 493 489 526 494 z "},"ø":{"ha":992,"x_min":0,"x_max":0,"o":"m 618 469 b 611 250 618 389 613 314 b 533 233 594 244 565 239 b 618 469 561 313 589 392 z m 468 639 b 376 394 436 560 407 479 b 400 624 379 494 388 599 b 468 639 424 632 446 636 z m 925 706 b 763 831 900 735 819 792 b 799 914 774 858 786 886 b 594 940 779 922 685 953 b 556 853 581 911 568 882 b 131 804 404 850 221 828 b 46 201 58 633 42 413 b 247 6 99 124 174 47 b 211 -111 236 -32 224 -71 b 414 -121 231 -121 324 -135 b 449 -11 425 -85 438 -49 b 876 49 569 -7 711 8 b 925 706 944 188 950 588 z "},"œ":{"ha":1561,"x_min":0,"x_max":0,"o":"m 611 250 b 379 231 568 235 439 218 b 400 624 369 324 379 583 b 608 638 474 649 539 644 b 611 250 626 497 614 358 z m 1185 525 b 978 500 1133 510 1058 497 b 1011 644 985 557 999 601 b 1167 671 1079 671 1117 668 b 1185 525 1186 636 1188 565 z m 1511 347 b 1415 874 1515 514 1485 758 b 779 818 1347 903 951 868 b 747 840 768 826 757 833 b 131 804 611 872 267 839 b 46 201 58 633 42 413 b 285 -12 108 111 199 22 b 797 31 417 -15 586 -12 b 1369 -31 979 -12 1201 -29 b 1407 178 1394 -12 1410 117 b 978 242 1360 197 1047 199 b 958 306 968 258 961 279 b 1511 347 1138 311 1417 332 z "},"ß":{"ha":1085,"x_min":0,"x_max":0,"o":"m 608 842 b 604 675 626 794 622 719 b 422 660 569 665 447 628 b 443 860 411 674 418 838 b 608 842 478 872 583 881 z m 1051 376 b 813 589 1010 496 863 564 b 990 826 883 626 963 731 b 868 1056 975 926 928 1018 b 97 1042 774 1085 369 1088 b 97 -71 82 850 75 208 b 444 -78 215 -93 324 -76 b 429 432 426 81 418 375 b 653 421 479 450 611 439 b 607 251 676 381 669 303 b 501 233 578 244 539 236 b 511 31 486 136 499 78 b 921 104 636 35 853 60 b 1051 376 997 189 1057 310 z "},"¬":{"ha":1025,"x_min":0,"x_max":0,"o":"m 924 815 b 79 832 742 821 292 849 b 65 438 61 790 58 506 b 681 440 288 444 585 442 b 676 38 706 314 688 163 b 897 43 753 28 821 26 b 924 815 910 167 936 575 z "},"µ":{"ha":1067,"x_min":0,"x_max":0,"o":"m 994 1058 b 663 1049 960 1065 738 1060 b 651 507 669 907 668 606 b 406 514 596 492 426 496 b 428 1053 397 681 418 885 b 94 1036 379 1057 122 1060 b 103 -24 81 681 83 315 b 383 0 150 -29 347 -22 b 396 228 388 99 392 129 b 758 243 507 228 639 238 b 985 325 815 253 899 276 b 994 1058 997 524 1018 826 z "},"™":{"ha":1056,"x_min":0,"x_max":0,"o":"m 426 896 b 426 1043 436 947 432 989 b 49 1040 313 1057 160 1056 b 46 889 43 985 38 942 b 154 892 71 896 122 903 b 165 518 154 813 156 563 b 306 531 204 511 275 510 b 317 897 306 651 311 779 b 426 896 342 904 394 889 z m 1017 518 b 985 1042 1001 693 994 867 b 785 1040 922 1046 853 1047 b 742 838 769 963 750 874 b 717 838 736 813 722 810 b 688 1038 711 868 692 1017 b 485 1029 622 1038 553 1036 b 451 503 474 928 449 664 b 565 503 494 497 529 493 b 575 713 568 572 572 643 b 592 726 576 747 590 735 b 647 507 610 651 628 581 b 786 507 690 497 743 501 b 843 739 801 567 824 681 b 856 735 844 744 856 743 b 874 513 861 661 867 586 b 1017 518 924 501 971 508 z "},"Ð":{"ha":1174,"x_min":0,"x_max":0,"o":"m 747 778 b 700 243 775 656 753 406 b 479 229 642 221 554 207 b 474 401 475 238 474 311 b 624 407 525 403 575 404 b 617 606 635 450 626 563 b 474 610 585 608 533 610 b 476 797 475 700 475 775 b 747 778 549 835 689 835 z m 1132 839 b 936 1078 1079 936 1007 1007 b 57 1064 693 1118 303 1101 b 42 831 54 1032 43 928 l 121 825 b 118 606 121 758 119 683 b 61 603 96 604 76 604 b 57 386 43 560 31 458 b 115 390 76 388 96 389 b 125 -19 115 235 117 85 b 1004 10 382 -83 867 -40 b 1132 839 1103 201 1129 557 z "},"±":{"ha":603,"x_min":0,"x_max":0,"o":"m 547 13 b 542 244 557 64 550 193 b 72 242 450 254 168 249 b 68 -11 57 192 46 74 b 547 13 221 7 394 1 z m 551 539 b 547 751 558 586 553 704 b 443 756 531 754 492 756 b 444 988 444 815 444 918 b 176 974 364 989 258 988 b 169 754 174 914 169 815 b 65 749 121 753 82 750 b 63 517 56 703 47 594 b 172 526 89 521 128 525 b 183 315 175 468 179 375 b 422 331 224 311 392 315 b 433 533 426 393 431 481 b 551 539 482 535 524 536 z "},"Þ":{"ha":990,"x_min":0,"x_max":0,"o":"m 588 740 b 578 424 596 615 599 519 b 382 400 529 365 426 393 b 382 728 368 503 375 664 b 588 740 424 743 540 765 z m 911 861 b 718 997 868 904 782 965 b 375 953 594 997 472 974 l 376 1119 b 76 1096 249 1117 124 1110 b 75 -12 56 886 64 261 b 364 0 161 -19 289 -8 b 360 183 369 82 358 101 b 825 210 453 178 688 165 b 911 861 924 426 958 694 z "},"÷":{"ha":600,"x_min":0,"x_max":0,"o":"m 444 160 b 347 288 444 207 393 288 b 207 250 326 288 235 276 b 172 118 182 226 172 167 b 268 21 172 64 240 21 b 433 79 304 21 419 32 b 444 160 440 104 444 132 z m 546 385 b 539 633 554 439 547 579 b 76 631 449 644 171 638 b 72 358 61 576 50 450 b 546 385 222 379 394 372 z m 433 867 b 340 1004 433 918 383 1004 b 207 965 321 1004 233 993 b 175 824 183 939 175 875 b 265 719 175 765 240 719 b 422 782 299 719 408 731 b 433 867 429 808 433 839 z "},"°":{"ha":608,"x_min":0,"x_max":0,"o":"m 389 819 b 386 725 389 788 386 757 b 293 703 361 707 324 703 b 256 706 281 703 268 703 b 254 740 256 717 254 729 b 260 881 254 789 253 833 b 369 899 293 896 333 899 l 381 899 b 389 819 386 872 389 846 z m 569 932 b 429 1079 567 976 468 1071 b 88 996 357 1096 135 1050 b 57 686 67 901 53 797 b 167 526 58 650 115 544 b 546 608 267 503 501 543 b 569 932 567 678 576 818 z "},"þ":{"ha":990,"x_min":0,"x_max":0,"o":"m 588 588 b 578 271 596 463 599 367 b 382 247 529 213 426 240 b 382 575 368 350 375 511 b 588 588 424 590 540 613 z m 911 708 b 718 844 868 751 782 813 b 375 800 594 844 472 821 l 376 1008 b 76 985 249 1006 124 999 b 75 -262 56 775 64 11 b 364 -250 161 -269 289 -258 b 360 31 369 -168 358 -51 b 825 57 453 25 688 13 b 911 708 924 274 958 542 z "},"®":{"ha":1140,"x_min":0,"x_max":0,"o":"m 619 560 b 510 522 594 532 533 519 b 517 669 503 571 513 639 b 601 660 539 676 588 678 b 619 560 604 636 625 604 z m 807 229 b 717 433 800 251 746 378 b 799 571 724 457 796 539 b 697 822 781 669 754 751 b 356 800 633 831 410 818 b 349 222 347 706 339 286 b 501 217 394 218 461 211 b 501 332 504 265 500 283 b 515 389 501 346 506 385 b 558 363 532 397 549 381 b 656 200 592 303 611 261 b 807 229 708 193 769 200 z m 822 167 b 311 178 711 111 460 125 b 325 858 249 347 251 729 b 796 894 388 924 643 939 b 822 167 847 704 872 393 z m 1068 225 b 1050 832 1079 324 1074 669 b 872 1075 1001 913 938 1017 b 228 1040 807 1072 419 1081 b 67 840 171 978 118 900 b 74 231 54 669 54 428 b 213 -15 99 157 165 38 b 926 4 350 -21 681 -31 b 1068 225 981 75 1019 151 z "},"−":{"ha":444,"x_min":0,"x_max":0,"o":"m 382 364 b 378 613 389 418 383 558 b 69 610 318 624 132 617 b 67 338 60 556 53 429 b 382 364 167 358 281 351 z "},"ð":{"ha":1100,"x_min":0,"x_max":0,"o":"m 617 608 b 615 221 618 556 624 240 b 406 207 549 201 458 189 b 428 593 389 283 403 488 b 617 608 488 624 556 624 z m 1054 772 b 1047 954 1065 810 1057 914 b 947 979 1024 961 989 969 b 947 1079 947 1014 947 1047 b 629 1083 869 1107 721 1094 b 629 1040 629 1071 629 1056 b 499 1064 575 1050 529 1058 b 494 868 481 1028 468 939 b 635 847 539 863 586 854 b 635 826 635 840 635 833 b 192 789 483 835 326 817 b 64 193 94 697 43 311 b 231 -26 111 119 168 26 b 639 15 313 -36 526 -4 l 643 -44 b 947 -18 742 -51 861 -40 b 950 790 963 182 956 511 b 1054 772 986 783 1021 778 z "},"×":{"ha":936,"x_min":0,"x_max":0,"o":"m 929 1010 b 631 1033 900 1018 763 1044 b 476 775 592 967 500 818 b 342 1029 428 863 383 943 b 50 963 271 1035 140 1001 b 253 558 118 832 211 654 b 22 106 163 419 69 232 b 317 97 51 97 185 86 b 460 351 344 163 422 293 b 622 101 518 272 575 189 b 911 126 644 94 813 118 b 656 565 838 274 732 446 b 929 1010 742 701 832 831 z "},"©":{"ha":1140,"x_min":0,"x_max":0,"o":"m 772 207 b 772 350 775 232 781 290 b 550 379 689 360 614 347 b 553 644 532 458 526 589 b 756 706 594 678 728 690 b 726 840 757 753 742 826 b 379 761 601 839 485 821 b 356 268 328 683 299 375 b 772 207 425 221 703 190 z m 822 167 b 311 178 711 111 460 125 b 325 858 249 347 251 729 b 796 894 388 924 643 939 b 822 167 847 704 872 393 z m 1068 225 b 1050 832 1079 324 1074 669 b 872 1075 1001 913 938 1017 b 228 1040 807 1072 419 1081 b 67 840 171 978 118 900 b 74 231 54 669 54 428 b 213 -15 99 157 165 38 b 926 4 350 -21 681 -31 b 1068 225 981 75 1019 151 z "},"Á":{"ha":1128,"x_min":0,"x_max":0,"o":"m 676 393 b 456 392 647 385 506 379 b 549 701 454 425 536 676 b 610 701 567 704 592 704 b 676 393 639 635 668 486 z m 1119 -3 b 924 958 1068 351 993 642 b 224 951 768 996 363 983 b 174 776 204 913 188 829 b 250 761 190 765 250 761 b 4 -21 158 524 31 161 b 317 -18 79 -33 235 -37 b 374 135 333 50 342 76 b 731 144 449 153 626 157 b 779 -24 744 71 757 46 b 1119 -3 869 -26 1007 -22 z m 844 1268 b 579 1299 768 1299 679 1308 b 475 1044 561 1242 526 1128 b 638 1029 521 1031 589 1028 b 844 1268 706 1083 778 1181 z "},"Â":{"ha":1128,"x_min":0,"x_max":0,"o":"m 676 393 b 456 392 647 385 506 379 b 549 701 454 425 536 676 b 610 701 567 704 592 704 b 676 393 639 635 668 486 z m 1119 -3 b 924 958 1068 351 993 642 b 224 951 768 996 363 983 b 174 776 204 913 188 829 b 250 761 190 765 250 761 b 4 -21 158 524 31 161 b 317 -18 79 -33 235 -37 b 374 135 333 50 342 76 b 731 144 449 153 626 157 b 779 -24 744 71 757 46 b 1119 -3 869 -26 1007 -22 z m 863 1039 b 700 1319 815 1117 746 1238 b 444 1315 654 1322 501 1324 b 299 1026 388 1226 329 1107 b 486 1021 317 1021 403 1014 b 558 1146 503 1063 535 1110 b 583 1168 561 1153 569 1168 b 600 1151 593 1168 597 1156 b 679 1024 615 1129 657 1065 b 863 1039 693 1019 800 1033 z "},"Ä":{"ha":1128,"x_min":0,"x_max":0,"o":"m 676 393 b 456 392 647 385 506 379 b 549 701 454 425 536 676 b 610 701 567 704 592 704 b 676 393 639 635 668 486 z m 1119 -3 b 924 958 1068 351 993 642 b 224 951 768 996 363 983 b 174 776 204 913 188 829 b 250 761 190 765 250 761 b 4 -21 158 524 31 161 b 317 -18 79 -33 235 -37 b 374 135 333 50 342 76 b 731 144 449 153 626 157 b 779 -24 744 71 757 46 b 1119 -3 869 -26 1007 -22 z m 575 1153 b 486 1276 575 1197 526 1276 b 358 1240 467 1276 383 1265 b 328 1113 336 1217 328 1160 b 414 1019 328 1060 389 1019 b 564 1075 446 1019 551 1029 b 575 1153 571 1100 575 1126 z m 918 1161 b 832 1283 918 1206 872 1283 b 710 1247 814 1283 733 1274 b 679 1122 688 1225 679 1168 b 763 1029 679 1069 739 1029 b 907 1085 794 1029 894 1040 b 918 1161 914 1110 918 1136 z "},"À":{"ha":1128,"x_min":0,"x_max":0,"o":"m 676 393 b 456 392 647 385 506 379 b 549 701 454 425 536 676 b 610 701 567 704 592 704 b 676 393 639 635 668 486 z m 1119 -3 b 924 958 1068 351 993 642 b 224 951 768 996 363 983 b 174 776 204 913 188 829 b 250 761 190 765 250 761 b 4 -21 158 524 31 161 b 317 -18 79 -33 235 -37 b 374 135 333 50 342 76 b 731 144 449 153 626 157 b 779 -24 744 71 757 46 b 1119 -3 869 -26 1007 -22 z m 717 1040 b 613 1307 665 1126 631 1247 b 349 1265 513 1314 424 1299 b 554 1018 414 1174 486 1072 b 717 1040 603 1018 671 1024 z "},"Å":{"ha":1128,"x_min":0,"x_max":0,"o":"m 676 393 b 456 392 647 385 506 379 b 549 701 454 425 536 676 b 610 701 567 704 592 704 b 676 393 639 635 668 486 z m 667 1124 b 664 1063 667 1103 665 1082 b 569 1047 639 1050 600 1047 b 532 1050 557 1047 544 1049 b 531 1072 531 1057 531 1065 b 536 1163 531 1103 528 1132 b 647 1174 569 1172 611 1174 l 658 1174 b 667 1124 664 1157 667 1140 z m 1119 -3 b 924 958 1068 351 993 642 b 808 975 893 967 854 971 b 826 988 817 979 822 983 b 851 1196 849 1032 858 1122 b 708 1290 849 1225 749 1285 b 361 1238 635 1301 408 1272 b 329 1038 340 1176 326 1108 b 376 972 331 1024 350 996 b 224 951 314 967 260 960 b 174 776 204 913 188 829 b 250 761 190 765 250 761 b 4 -21 158 524 31 161 b 317 -18 79 -33 235 -37 b 374 135 333 50 342 76 b 731 144 449 153 626 157 b 779 -24 744 71 757 46 b 1119 -3 869 -26 1007 -22 z "},"Ã":{"ha":1128,"x_min":0,"x_max":0,"o":"m 676 393 b 456 392 647 385 506 379 b 549 701 454 425 536 676 b 610 701 567 704 592 704 b 676 393 639 635 668 486 z m 1119 -3 b 924 958 1068 351 993 642 b 224 951 768 996 363 983 b 174 776 204 913 188 829 b 250 761 190 765 250 761 b 4 -21 158 524 31 161 b 317 -18 79 -33 235 -37 b 374 135 333 50 342 76 b 731 144 449 153 626 157 b 779 -24 744 71 757 46 b 1119 -3 869 -26 1007 -22 z m 913 1219 b 821 1293 894 1251 857 1276 b 692 1222 821 1293 753 1199 b 449 1304 601 1258 518 1333 b 271 1100 383 1276 310 1172 b 365 1029 285 1075 317 1050 b 440 1099 389 1058 421 1092 b 689 1018 469 1110 610 1024 b 913 1219 761 1013 883 1183 z "},"Ç":{"ha":911,"x_min":0,"x_max":0,"o":"m 867 261 b 439 319 815 288 515 264 b 460 788 392 414 426 656 b 844 847 578 842 692 832 b 844 1089 860 947 850 1047 b 139 990 758 1132 265 1068 b 94 114 35 808 1 244 b 401 38 188 75 293 51 b 385 -46 399 3 393 -28 b 186 -89 347 -75 251 -81 b 207 -226 185 -129 193 -214 b 608 -179 319 -225 501 -225 b 649 18 633 -143 644 -65 b 825 14 710 15 768 14 b 867 261 854 38 869 182 z "},"É":{"ha":942,"x_min":0,"x_max":0,"o":"m 881 778 b 871 985 883 828 888 942 b 65 960 658 993 294 1007 b 39 769 50 903 40 832 b 128 768 64 769 103 768 b 136 -12 121 515 115 219 b 869 -12 410 -42 626 -35 b 872 190 888 50 882 129 b 528 199 789 200 593 179 b 531 392 518 243 510 353 b 844 408 631 410 743 397 b 840 569 851 458 846 521 b 532 574 781 581 546 569 b 543 769 510 622 518 738 b 881 778 656 781 768 772 z m 750 1278 b 486 1308 675 1308 585 1318 b 381 1054 467 1251 432 1138 b 543 1039 426 1040 494 1038 b 750 1278 613 1093 683 1190 z "},"Ê":{"ha":942,"x_min":0,"x_max":0,"o":"m 881 778 b 871 985 883 828 888 942 b 65 960 658 993 294 1007 b 39 769 50 903 40 832 b 128 768 64 769 103 768 b 136 -12 121 515 115 219 b 869 -12 410 -42 626 -35 b 872 190 888 50 882 129 b 528 199 789 200 593 179 b 531 392 518 243 510 353 b 844 408 631 410 743 397 b 840 569 851 458 846 521 b 532 574 781 581 546 569 b 543 769 510 622 518 738 b 881 778 656 781 768 772 z m 781 1051 b 618 1332 733 1128 664 1249 b 363 1328 572 1335 419 1336 b 217 1039 306 1239 247 1119 b 404 1033 235 1033 321 1025 b 475 1158 421 1075 451 1121 b 501 1181 479 1164 488 1181 b 518 1163 511 1181 515 1167 b 597 1036 533 1142 575 1076 b 781 1051 611 1032 718 1046 z "},"Ë":{"ha":942,"x_min":0,"x_max":0,"o":"m 881 778 b 871 985 883 828 888 942 b 65 960 658 993 294 1007 b 39 769 50 903 40 832 b 128 768 64 769 103 768 b 136 -12 121 515 115 219 b 869 -12 410 -42 626 -35 b 872 190 888 50 882 129 b 528 199 789 200 593 179 b 531 392 518 243 510 353 b 844 408 631 410 743 397 b 840 569 851 458 846 521 b 532 574 781 581 546 569 b 543 769 510 622 518 738 b 881 778 656 781 768 772 z m 450 1167 b 361 1290 450 1211 401 1290 b 233 1254 342 1290 258 1281 b 203 1126 210 1231 203 1174 b 289 1033 203 1074 264 1033 b 439 1089 321 1033 426 1043 b 450 1167 446 1114 450 1140 z m 793 1175 b 707 1297 793 1219 746 1297 b 583 1261 689 1297 608 1288 b 554 1136 563 1239 554 1182 b 638 1043 554 1085 614 1043 b 782 1099 669 1043 769 1054 b 793 1175 789 1124 793 1150 z "},"È":{"ha":942,"x_min":0,"x_max":0,"o":"m 881 778 b 871 985 883 828 888 942 b 65 960 658 993 294 1007 b 39 769 50 903 40 832 b 128 768 64 769 103 768 b 136 -12 121 515 115 219 b 869 -12 410 -42 626 -35 b 872 190 888 50 882 129 b 528 199 789 200 593 179 b 531 392 518 243 510 353 b 844 408 631 410 743 397 b 840 569 851 458 846 521 b 532 574 781 581 546 569 b 543 769 510 622 518 738 b 881 778 656 781 768 772 z m 625 1056 b 519 1321 574 1142 539 1263 b 256 1281 421 1329 332 1314 b 463 1033 322 1189 393 1088 b 625 1056 511 1032 579 1039 z "},"Í":{"ha":486,"x_min":0,"x_max":0,"o":"m 410 960 b 93 940 314 961 190 960 b 103 -19 83 672 85 275 b 383 3 150 -25 347 -19 b 410 960 399 324 410 647 z m 503 1275 b 238 1306 426 1304 338 1315 b 133 1051 219 1249 185 1133 b 296 1036 179 1038 247 1033 b 503 1275 364 1090 436 1188 z "},"Î":{"ha":486,"x_min":0,"x_max":0,"o":"m 410 960 b 93 940 314 961 190 960 b 103 -19 83 672 85 275 b 383 3 150 -25 347 -19 b 410 960 399 324 410 647 z m 485 1036 b 354 1315 447 1113 390 1232 b 147 1311 317 1317 193 1319 b 28 1022 100 1222 53 1103 b 179 1017 43 1017 113 1010 b 238 1142 194 1058 219 1106 b 260 1164 240 1147 249 1164 b 272 1146 267 1164 271 1151 b 336 1021 285 1125 318 1061 b 485 1036 347 1017 435 1031 z "},"Ï":{"ha":486,"x_min":0,"x_max":0,"o":"m 410 960 b 93 940 314 961 190 960 b 103 -19 83 672 85 275 b 383 3 150 -25 347 -19 b 410 960 399 324 410 647 z m 210 1146 b 138 1271 210 1192 171 1271 b 33 1235 122 1271 54 1260 b 8 1107 15 1211 8 1154 b 79 1013 8 1054 60 1013 b 200 1069 106 1013 190 1024 b 210 1146 206 1094 210 1121 z m 488 1156 b 418 1278 488 1200 450 1278 b 318 1242 403 1278 338 1268 b 294 1115 300 1219 294 1163 b 361 1024 294 1064 343 1024 b 478 1079 388 1024 468 1035 b 488 1156 483 1103 488 1129 z "},"Ì":{"ha":486,"x_min":0,"x_max":0,"o":"m 410 960 b 93 940 314 961 190 960 b 103 -19 83 672 85 275 b 383 3 150 -25 347 -19 b 410 960 399 324 410 647 z m 364 1054 b 258 1311 311 1136 276 1254 b -6 1249 158 1311 69 1289 b 200 1018 60 1163 132 1068 b 364 1054 249 1022 317 1033 z "},"Ñ":{"ha":1149,"x_min":0,"x_max":0,"o":"m 1074 960 b 788 938 978 968 882 961 b 775 563 785 847 779 578 l 710 558 b 546 974 653 696 592 831 b 69 929 464 988 94 954 b 82 -17 60 676 63 146 b 356 -7 178 -35 267 -31 b 363 388 349 143 351 283 l 431 394 b 632 -18 488 253 551 108 b 1067 21 794 -15 971 7 b 1074 960 1076 329 1076 651 z m 921 1199 b 828 1272 901 1231 865 1256 b 700 1201 828 1272 760 1176 b 457 1283 608 1238 525 1313 b 278 1078 392 1254 318 1151 b 374 1008 292 1054 325 1029 b 449 1076 396 1038 429 1069 b 697 996 478 1089 618 1003 b 921 1199 769 990 890 1161 z "},"Ó":{"ha":1144,"x_min":0,"x_max":0,"o":"m 700 725 b 694 235 721 550 706 382 b 438 231 642 210 511 213 b 465 710 435 304 442 660 b 700 725 533 731 650 735 z m 1088 738 b 881 969 1039 814 946 914 b 160 919 697 988 346 976 b 40 217 74 763 38 385 b 193 -4 64 149 147 43 b 985 26 418 -44 813 -10 b 1088 738 1086 197 1104 482 z m 799 1276 b 535 1307 724 1306 633 1317 b 429 1053 515 1250 481 1135 b 592 1038 475 1039 543 1035 b 799 1276 661 1092 732 1189 z "},"Ô":{"ha":1144,"x_min":0,"x_max":0,"o":"m 700 725 b 694 235 721 550 706 382 b 438 231 642 210 511 213 b 465 710 435 304 442 660 b 700 725 533 731 650 735 z m 1088 738 b 881 969 1039 814 946 914 b 160 919 697 988 346 976 b 40 217 74 763 38 385 b 193 -4 64 149 147 43 b 985 26 418 -44 813 -10 b 1088 738 1086 197 1104 482 z m 846 1053 b 683 1332 799 1129 729 1250 b 428 1328 638 1335 485 1336 b 282 1039 371 1239 313 1119 b 469 1033 300 1033 386 1026 b 540 1160 486 1075 517 1122 b 567 1181 544 1165 553 1181 b 583 1164 576 1181 581 1168 b 661 1038 599 1143 640 1078 b 846 1053 676 1033 783 1046 z "},"Ö":{"ha":1144,"x_min":0,"x_max":0,"o":"m 700 725 b 694 235 721 550 706 382 b 438 231 642 210 511 213 b 465 710 435 304 442 660 b 700 725 533 731 650 735 z m 1088 738 b 881 969 1039 814 946 914 b 160 919 697 988 346 976 b 40 217 74 763 38 385 b 193 -4 64 149 147 43 b 985 26 418 -44 813 -10 b 1088 738 1086 197 1104 482 z m 515 1153 b 426 1276 515 1197 468 1276 b 299 1240 407 1276 324 1265 b 268 1113 276 1217 268 1160 b 356 1019 268 1060 331 1019 b 504 1075 388 1019 492 1029 b 515 1153 511 1100 515 1126 z m 858 1161 b 772 1283 858 1206 813 1283 b 650 1247 754 1283 674 1274 b 621 1122 628 1225 621 1168 b 704 1029 621 1069 679 1029 b 847 1085 735 1029 836 1040 b 858 1161 854 1110 858 1136 z "},"Ò":{"ha":1144,"x_min":0,"x_max":0,"o":"m 700 725 b 694 235 721 550 706 382 b 438 231 642 210 511 213 b 465 710 435 304 442 660 b 700 725 533 731 650 735 z m 1088 738 b 881 969 1039 814 946 914 b 160 919 697 988 346 976 b 40 217 74 763 38 385 b 193 -4 64 149 147 43 b 985 26 418 -44 813 -10 b 1088 738 1086 197 1104 482 z m 713 1065 b 607 1322 661 1146 625 1264 b 343 1260 508 1321 418 1300 b 550 1029 410 1174 481 1078 b 713 1065 599 1032 667 1044 z "},"Õ":{"ha":1144,"x_min":0,"x_max":0,"o":"m 700 725 b 694 235 721 550 706 382 b 438 231 642 210 511 213 b 465 710 435 304 442 660 b 700 725 533 731 650 735 z m 1088 738 b 881 969 1039 814 946 914 b 160 919 697 988 346 976 b 40 217 74 763 38 385 b 193 -4 64 149 147 43 b 985 26 418 -44 813 -10 b 1088 738 1086 197 1104 482 z m 913 1219 b 821 1293 894 1251 857 1276 b 692 1222 821 1293 753 1199 b 449 1304 601 1258 518 1333 b 271 1100 383 1276 310 1172 b 365 1029 285 1075 317 1050 b 440 1099 389 1058 421 1092 b 689 1018 469 1110 610 1024 b 913 1219 761 1013 883 1183 z "},"Š":{"ha":922,"x_min":0,"x_max":0,"o":"m 849 772 b 826 996 850 842 849 931 b 667 996 775 999 721 999 b 767 1207 707 1069 744 1149 b 579 1213 749 1213 663 1219 b 507 1086 563 1169 531 1124 b 482 1065 504 1081 496 1065 b 465 1082 472 1065 468 1078 b 386 1208 450 1103 408 1168 b 203 1193 372 1213 265 1199 b 342 956 242 1129 297 1033 b 132 897 269 940 199 921 b 44 433 65 757 38 593 b 468 343 128 381 414 382 b 460 257 471 315 467 276 b 82 188 396 225 208 194 b 122 -49 79 147 93 8 b 800 82 319 -32 600 6 b 846 521 863 192 899 403 b 438 589 710 544 574 564 b 469 725 439 636 444 685 b 849 772 594 749 722 754 z "},"Ú":{"ha":1082,"x_min":0,"x_max":0,"o":"m 1014 943 b 657 922 890 940 775 949 b 660 292 654 742 658 490 b 426 267 608 243 488 240 b 425 919 414 461 406 653 b 75 917 299 936 194 931 b 72 208 57 786 71 365 b 204 -1 92 151 164 40 b 871 7 403 -19 701 3 b 1008 225 921 67 988 163 b 1014 943 1003 415 1010 728 z m 810 1235 b 546 1264 735 1264 644 1274 b 440 1010 526 1207 492 1093 b 603 994 486 996 554 993 b 810 1235 672 1049 743 1146 z "},"Û":{"ha":1082,"x_min":0,"x_max":0,"o":"m 1014 943 b 657 922 890 940 775 949 b 660 292 654 742 658 490 b 426 267 608 243 488 240 b 425 919 414 461 406 653 b 75 917 299 936 194 931 b 72 208 57 786 71 365 b 204 -1 92 151 164 40 b 871 7 403 -19 701 3 b 1008 225 921 67 988 163 b 1014 943 1003 415 1010 728 z m 822 1014 b 661 1294 776 1090 707 1211 b 406 1290 615 1296 463 1299 b 260 1000 349 1201 289 1082 b 446 996 278 996 363 988 b 518 1121 464 1038 494 1083 b 544 1142 522 1126 531 1142 b 561 1125 553 1142 558 1129 b 639 999 576 1104 618 1039 b 822 1014 653 994 761 1008 z "},"Ü":{"ha":1082,"x_min":0,"x_max":0,"o":"m 1014 943 b 657 922 890 940 775 949 b 660 292 654 742 658 490 b 426 267 608 243 488 240 b 425 919 414 461 406 653 b 75 917 299 936 194 931 b 72 208 57 786 71 365 b 204 -1 92 151 164 40 b 871 7 403 -19 701 3 b 1008 225 921 67 988 163 b 1014 943 1003 415 1010 728 z m 494 1136 b 406 1260 494 1182 447 1260 b 278 1224 386 1260 303 1250 b 247 1096 256 1201 247 1143 b 333 1003 247 1044 308 1003 b 483 1060 367 1003 471 1014 b 494 1136 490 1083 494 1110 z m 838 1144 b 751 1267 838 1190 792 1267 b 629 1232 733 1267 653 1257 b 599 1106 607 1208 599 1151 b 682 1014 599 1054 658 1014 b 826 1069 714 1014 814 1024 b 838 1144 833 1093 838 1119 z "},"Ù":{"ha":1082,"x_min":0,"x_max":0,"o":"m 1014 943 b 657 922 890 940 775 949 b 660 292 654 742 658 490 b 426 267 608 243 488 240 b 425 919 414 461 406 653 b 75 917 299 936 194 931 b 72 208 57 786 71 365 b 204 -1 92 151 164 40 b 871 7 403 -19 701 3 b 1008 225 921 67 988 163 b 1014 943 1003 415 1010 728 z m 653 1024 b 547 1281 601 1106 567 1224 b 283 1218 449 1281 360 1258 b 490 988 350 1132 421 1036 b 653 1024 539 992 607 1003 z "},"Ý":{"ha":1019,"x_min":0,"x_max":0,"o":"m 1040 951 b 729 968 1007 960 882 978 b 546 657 700 918 596 703 b 375 969 492 714 383 938 b 40 951 350 976 154 958 b 346 372 72 821 249 490 b 354 0 350 249 354 124 b 676 7 453 -1 576 -12 b 685 360 681 110 683 232 b 1040 951 800 542 935 793 z m 782 1244 b 518 1275 707 1274 617 1285 b 413 1021 499 1218 464 1103 b 575 1006 458 1007 526 1003 b 782 1244 644 1060 715 1157 z "},"Ÿ":{"ha":1019,"x_min":0,"x_max":0,"o":"m 1040 951 b 729 968 1007 960 882 978 b 546 657 700 918 596 703 b 375 969 492 714 383 938 b 40 951 350 976 154 958 b 346 372 72 821 249 490 b 354 0 350 249 354 124 b 676 7 453 -1 576 -12 b 685 360 681 110 683 232 b 1040 951 800 542 935 793 z m 461 1153 b 372 1276 461 1197 414 1276 b 244 1240 354 1276 271 1265 b 214 1113 222 1217 214 1160 b 301 1019 214 1060 276 1019 b 451 1075 333 1019 438 1029 b 461 1153 457 1100 461 1126 z m 804 1161 b 718 1283 804 1206 758 1283 b 596 1247 700 1283 621 1274 b 567 1122 574 1225 567 1168 b 650 1029 567 1069 626 1029 b 794 1085 681 1029 782 1040 b 804 1161 800 1110 804 1136 z "},"Ž":{"ha":861,"x_min":0,"x_max":0,"o":"m 806 183 b 428 193 707 193 528 182 b 788 744 546 368 669 517 b 785 967 799 807 789 904 b 622 990 733 978 679 986 b 725 1207 664 1065 703 1146 b 538 1213 707 1213 621 1219 b 465 1086 521 1169 489 1124 b 440 1065 463 1081 454 1065 b 424 1082 431 1065 426 1078 b 344 1208 408 1103 367 1168 b 161 1193 331 1213 224 1199 b 282 986 196 1138 242 1057 b 54 969 190 979 110 971 b 74 772 51 899 54 836 b 429 765 186 754 314 769 b 43 194 361 644 179 379 b 83 -18 36 146 57 47 b 789 -7 278 -28 554 -39 b 806 183 804 58 811 121 z "},"á":{"ha":961,"x_min":0,"x_max":0,"o":"m 585 225 b 407 207 528 214 438 204 b 390 336 382 222 392 318 b 569 400 419 363 508 383 b 585 225 578 335 583 296 z m 900 6 b 817 821 924 214 892 713 b 181 832 654 861 386 860 b 146 640 156 807 143 713 b 551 632 226 642 493 651 b 551 576 554 619 553 586 b 79 453 424 565 160 500 b 56 88 58 389 38 164 b 264 -22 115 39 218 -8 b 606 25 351 -12 451 -1 l 611 -29 b 900 6 703 -25 850 -10 z m 757 1172 b 493 1201 682 1201 593 1213 b 388 949 475 1146 440 1031 b 551 932 433 933 503 931 b 757 1172 619 986 692 1083 z "},"â":{"ha":961,"x_min":0,"x_max":0,"o":"m 585 225 b 407 207 528 214 438 204 b 390 336 382 222 392 318 b 569 400 419 363 508 383 b 585 225 578 335 583 296 z m 900 6 b 817 821 924 214 892 713 b 181 832 654 861 386 860 b 146 640 156 807 143 713 b 551 632 226 642 493 651 b 551 576 554 619 553 586 b 79 453 424 565 160 500 b 56 88 58 389 38 164 b 264 -22 115 39 218 -8 b 606 25 351 -12 451 -1 l 611 -29 b 900 6 703 -25 850 -10 z m 789 944 b 628 1224 742 1021 672 1142 b 372 1219 581 1226 429 1228 b 225 931 314 1131 256 1011 b 413 925 243 925 329 918 b 485 1051 431 967 461 1014 b 510 1072 488 1057 497 1072 b 526 1056 519 1072 524 1060 b 606 929 542 1035 583 969 b 789 944 619 925 726 939 z "},"ä":{"ha":961,"x_min":0,"x_max":0,"o":"m 585 225 b 407 207 528 214 438 204 b 390 336 382 222 392 318 b 569 400 419 363 508 383 b 585 225 578 335 583 296 z m 900 6 b 817 821 924 214 892 713 b 181 832 654 861 386 860 b 146 640 156 807 143 713 b 551 632 226 642 493 651 b 551 576 554 619 553 586 b 79 453 424 565 160 500 b 56 88 58 389 38 164 b 264 -22 115 39 218 -8 b 606 25 351 -12 451 -1 l 611 -29 b 900 6 703 -25 850 -10 z m 464 1056 b 375 1179 464 1100 415 1179 b 247 1143 356 1179 272 1168 b 217 1015 225 1119 217 1063 b 303 922 217 963 278 922 b 453 978 335 922 440 932 b 464 1056 460 1003 464 1029 z m 807 1064 b 721 1186 807 1108 761 1186 b 599 1150 703 1186 622 1176 b 568 1025 576 1128 568 1071 b 651 932 568 972 628 932 b 796 988 683 932 783 943 b 807 1064 803 1013 807 1039 z "},"à":{"ha":961,"x_min":0,"x_max":0,"o":"m 585 225 b 407 207 528 214 438 204 b 390 336 382 222 392 318 b 569 400 419 363 508 383 b 585 225 578 335 583 296 z m 900 6 b 817 821 924 214 892 713 b 181 832 654 861 386 860 b 146 640 156 807 143 713 b 551 632 226 642 493 651 b 551 576 554 619 553 586 b 79 453 424 565 160 500 b 56 88 58 389 38 164 b 264 -22 115 39 218 -8 b 606 25 351 -12 451 -1 l 611 -29 b 900 6 703 -25 850 -10 z m 633 936 b 529 1203 582 1022 547 1143 b 265 1161 429 1210 340 1194 b 471 914 331 1069 403 968 b 633 936 519 914 588 919 z "},"å":{"ha":961,"x_min":0,"x_max":0,"o":"m 585 225 b 407 207 528 214 438 204 b 390 336 382 222 392 318 b 569 400 419 363 508 383 b 585 225 578 335 583 296 z m 585 1085 b 582 1026 585 1065 582 1046 b 493 1014 558 1015 522 1014 b 457 1015 481 1014 468 1014 b 456 1036 456 1022 456 1029 b 461 1122 456 1065 453 1093 b 565 1133 492 1131 532 1133 l 576 1133 b 585 1085 582 1117 585 1101 z m 900 6 b 817 821 924 214 892 713 b 181 832 654 861 386 860 b 146 640 156 807 143 713 b 551 632 226 642 493 651 b 551 576 554 619 553 586 b 79 453 424 565 160 500 b 56 88 58 389 38 164 b 264 -22 115 39 218 -8 b 606 25 351 -12 451 -1 l 611 -29 b 900 6 703 -25 850 -10 z m 758 1153 b 624 1243 756 1181 661 1238 b 296 1192 554 1253 340 1225 b 267 1003 275 1135 263 1071 b 371 906 267 982 322 914 b 735 956 467 889 693 915 b 758 1153 756 999 764 1083 z "},"ã":{"ha":961,"x_min":0,"x_max":0,"o":"m 585 225 b 407 207 528 214 438 204 b 390 336 382 222 392 318 b 569 400 419 363 508 383 b 585 225 578 335 583 296 z m 900 6 b 817 821 924 214 892 713 b 181 832 654 861 386 860 b 146 640 156 807 143 713 b 551 632 226 642 493 651 b 551 576 554 619 553 586 b 79 453 424 565 160 500 b 56 88 58 389 38 164 b 264 -22 115 39 218 -8 b 606 25 351 -12 451 -1 l 611 -29 b 900 6 703 -25 850 -10 z m 806 1114 b 713 1188 786 1146 750 1171 b 583 1117 713 1188 644 1093 b 342 1199 493 1153 410 1228 b 163 993 276 1171 203 1067 b 257 924 176 969 210 944 b 333 993 281 953 314 985 b 582 913 363 1004 501 918 b 806 1114 654 907 775 1078 z "},"ç":{"ha":819,"x_min":0,"x_max":0,"o":"m 781 164 b 422 208 733 183 492 165 b 442 631 379 281 411 529 b 760 676 547 672 622 664 b 760 860 774 753 764 828 b 125 783 683 893 239 843 b 85 51 31 646 0 151 b 349 -6 165 24 256 6 b 332 -82 346 -37 340 -65 b 154 -121 299 -108 213 -114 b 172 -244 153 -158 160 -235 b 533 -203 274 -243 438 -244 b 569 -21 557 -169 567 -97 b 742 -25 629 -24 688 -25 b 781 164 768 -7 783 103 z "},"é":{"ha":978,"x_min":0,"x_max":0,"o":"m 601 525 b 394 500 550 510 475 497 b 428 644 401 557 415 601 b 583 671 496 671 533 668 b 601 525 603 636 604 565 z m 928 347 b 832 874 932 514 901 758 b 139 797 756 907 253 857 b 99 64 44 660 14 164 b 786 -31 294 -4 581 -28 b 824 178 811 -12 826 117 b 394 242 776 197 464 199 b 375 306 385 258 378 279 b 928 347 554 311 833 332 z m 774 1183 b 510 1214 699 1214 610 1224 b 406 960 492 1157 457 1043 b 568 944 451 946 519 943 b 774 1183 636 999 708 1096 z "},"ê":{"ha":978,"x_min":0,"x_max":0,"o":"m 601 525 b 394 500 550 510 475 497 b 428 644 401 557 415 601 b 583 671 496 671 533 668 b 601 525 603 636 604 565 z m 928 347 b 832 874 932 514 901 758 b 139 797 756 907 253 857 b 99 64 44 660 14 164 b 786 -31 294 -4 581 -28 b 824 178 811 -12 826 117 b 394 242 776 197 464 199 b 375 306 385 258 378 279 b 928 347 554 311 833 332 z m 772 949 b 611 1229 726 1025 657 1147 b 356 1225 565 1232 413 1233 b 210 936 299 1136 240 1017 b 396 931 228 931 313 924 b 468 1056 414 972 444 1019 b 494 1078 472 1061 481 1078 b 511 1060 503 1078 508 1064 b 589 933 526 1039 568 974 b 772 949 603 929 711 943 z "},"ë":{"ha":978,"x_min":0,"x_max":0,"o":"m 601 525 b 394 500 550 510 475 497 b 428 644 401 557 415 601 b 583 671 496 671 533 668 b 601 525 603 636 604 565 z m 928 347 b 832 874 932 514 901 758 b 139 797 756 907 253 857 b 99 64 44 660 14 164 b 786 -31 294 -4 581 -28 b 824 178 811 -12 826 117 b 394 242 776 197 464 199 b 375 306 385 258 378 279 b 928 347 554 311 833 332 z m 463 1067 b 374 1190 463 1111 415 1190 b 246 1154 354 1190 271 1179 b 215 1026 224 1131 215 1074 b 303 933 215 974 278 933 b 451 989 335 933 439 943 b 463 1067 458 1014 463 1040 z m 806 1075 b 719 1197 806 1119 760 1197 b 597 1161 701 1197 621 1188 b 567 1036 575 1139 567 1082 b 651 943 567 983 626 943 b 794 999 682 943 783 954 b 806 1075 801 1024 806 1050 z "},"è":{"ha":978,"x_min":0,"x_max":0,"o":"m 601 525 b 394 500 550 510 475 497 b 428 644 401 557 415 601 b 583 671 496 671 533 668 b 601 525 603 636 604 565 z m 928 347 b 832 874 932 514 901 758 b 139 797 756 907 253 857 b 99 64 44 660 14 164 b 786 -31 294 -4 581 -28 b 824 178 811 -12 826 117 b 394 242 776 197 464 199 b 375 306 385 258 378 279 b 928 347 554 311 833 332 z m 586 950 b 481 1217 533 1036 499 1157 b 217 1175 381 1224 292 1208 b 422 928 282 1083 354 982 b 586 950 471 928 539 933 z "},"í":{"ha":438,"x_min":0,"x_max":0,"o":"m 369 846 b 83 829 283 847 171 846 b 92 3 75 601 75 253 b 344 22 135 -1 311 4 b 369 846 358 294 369 581 z m 458 1208 b 194 1239 383 1239 293 1249 b 89 985 175 1182 140 1068 b 251 969 135 971 203 968 b 458 1208 321 1024 392 1121 z "},"î":{"ha":438,"x_min":0,"x_max":0,"o":"m 369 846 b 83 829 283 847 171 846 b 92 3 75 601 75 253 b 344 22 135 -1 311 4 b 369 846 358 294 369 581 z m 464 947 b 329 1217 425 1021 367 1138 b 115 1213 290 1219 163 1221 b -7 935 67 1128 18 1013 b 149 931 8 931 79 922 b 210 1051 164 971 189 1015 b 231 1071 213 1056 219 1071 b 244 1054 239 1071 242 1058 b 310 933 257 1035 292 972 b 464 947 322 929 411 943 z "},"ï":{"ha":438,"x_min":0,"x_max":0,"o":"m 369 846 b 83 829 283 847 171 846 b 92 3 75 601 75 253 b 344 22 135 -1 311 4 b 369 846 358 294 369 581 z m 179 1060 b 107 1183 179 1106 140 1183 b 3 1149 92 1183 24 1174 b -21 1021 -15 1125 -21 1067 b 49 926 -21 968 29 926 b 169 983 75 926 160 938 b 179 1060 175 1007 179 1035 z m 457 1069 b 388 1190 457 1114 419 1190 b 288 1156 372 1190 307 1181 b 264 1029 269 1133 264 1076 b 332 938 264 978 313 938 b 449 993 357 938 438 947 b 457 1069 453 1017 457 1043 z "},"ì":{"ha":438,"x_min":0,"x_max":0,"o":"m 369 846 b 83 829 283 847 171 846 b 92 3 75 601 75 253 b 344 22 135 -1 311 4 b 369 846 358 294 369 581 z m 367 978 b 261 1244 315 1064 281 1185 b -3 1203 163 1251 74 1238 b 204 956 64 1111 135 1010 b 367 978 253 956 321 961 z "},"ñ":{"ha":1033,"x_min":0,"x_max":0,"o":"m 965 868 b 708 850 879 875 793 869 b 696 474 706 775 697 549 l 642 467 b 492 881 590 581 533 763 b 63 843 418 892 85 864 b 74 -6 54 635 57 129 b 321 4 160 -21 240 -15 b 329 331 314 128 319 244 l 388 335 b 569 -7 439 217 497 97 b 960 26 715 -6 874 15 b 965 868 968 282 968 613 z m 835 1133 b 742 1206 815 1164 779 1190 b 613 1136 742 1206 674 1111 b 371 1217 522 1172 439 1246 b 192 1013 306 1189 232 1086 b 286 943 206 989 239 964 b 361 1011 310 971 343 1004 b 611 931 390 1024 531 936 b 835 1133 683 925 804 1096 z "},"ó":{"ha":978,"x_min":0,"x_max":0,"o":"m 611 250 b 379 231 568 235 439 218 b 400 624 369 324 379 583 b 608 638 474 649 539 644 b 611 250 626 497 614 358 z m 925 706 b 747 840 899 738 804 801 b 131 804 611 872 267 839 b 46 201 58 633 42 413 b 285 -12 108 111 199 22 b 876 49 432 -15 629 -11 b 925 706 944 188 950 588 z m 790 1197 b 526 1226 715 1226 625 1236 b 421 972 507 1171 472 1056 b 583 957 467 958 535 956 b 790 1197 653 1011 724 1108 z "},"ô":{"ha":978,"x_min":0,"x_max":0,"o":"m 611 250 b 379 231 568 235 439 218 b 400 624 369 324 379 583 b 608 638 474 649 539 644 b 611 250 626 497 614 358 z m 925 706 b 747 840 899 738 804 801 b 131 804 611 872 267 839 b 46 201 58 633 42 413 b 285 -12 108 111 199 22 b 876 49 432 -15 629 -11 b 925 706 944 188 950 588 z m 774 958 b 611 1238 726 1035 657 1156 b 356 1233 565 1240 413 1242 b 210 944 299 1144 240 1025 b 397 939 228 939 313 932 b 468 1065 414 981 444 1028 b 494 1086 472 1071 481 1086 b 511 1069 504 1086 508 1074 b 589 943 526 1049 568 983 b 774 958 603 939 711 953 z "},"ö":{"ha":978,"x_min":0,"x_max":0,"o":"m 611 250 b 379 231 568 235 439 218 b 400 624 369 324 379 583 b 608 638 474 649 539 644 b 611 250 626 497 614 358 z m 925 706 b 747 840 899 738 804 801 b 131 804 611 872 267 839 b 46 201 58 633 42 413 b 285 -12 108 111 199 22 b 876 49 432 -15 629 -11 b 925 706 944 188 950 588 z m 450 1065 b 361 1189 450 1111 401 1189 b 233 1153 342 1189 258 1179 b 203 1025 211 1131 203 1072 b 289 932 203 974 264 932 b 439 989 321 932 426 943 b 450 1065 446 1013 450 1039 z m 793 1074 b 707 1196 793 1119 746 1196 b 583 1161 689 1196 608 1186 b 554 1035 563 1138 554 1081 b 638 943 554 983 614 943 b 782 999 669 943 769 953 b 793 1074 789 1022 793 1049 z "},"ò":{"ha":978,"x_min":0,"x_max":0,"o":"m 611 250 b 379 231 568 235 439 218 b 400 624 369 324 379 583 b 608 638 474 649 539 644 b 611 250 626 497 614 358 z m 925 706 b 747 840 899 738 804 801 b 131 804 611 872 267 839 b 46 201 58 633 42 413 b 285 -12 108 111 199 22 b 876 49 432 -15 629 -11 b 925 706 944 188 950 588 z m 583 950 b 479 1217 532 1036 497 1157 b 215 1175 379 1224 290 1208 b 421 928 281 1083 353 982 b 583 950 469 928 538 933 z "},"õ":{"ha":978,"x_min":0,"x_max":0,"o":"m 611 250 b 379 231 568 235 439 218 b 400 624 369 324 379 583 b 608 638 474 649 539 644 b 611 250 626 497 614 358 z m 925 706 b 747 840 899 738 804 801 b 131 804 611 872 267 839 b 46 201 58 633 42 413 b 285 -12 108 111 199 22 b 876 49 432 -15 629 -11 b 925 706 944 188 950 588 z m 808 1140 b 715 1214 789 1172 753 1197 b 586 1143 715 1214 647 1118 b 344 1225 496 1179 413 1254 b 165 1019 279 1196 206 1093 b 261 950 179 996 213 971 b 336 1018 283 979 317 1011 b 585 938 365 1031 504 944 b 808 1140 657 932 778 1103 z "},"š":{"ha":858,"x_min":0,"x_max":0,"o":"m 778 697 b 757 886 779 756 776 831 b 133 803 554 893 326 868 b 54 378 74 683 49 511 b 435 275 129 332 386 308 b 428 196 438 251 433 214 b 88 138 371 169 201 143 b 125 -62 85 104 100 -46 b 747 79 331 -40 557 -8 b 775 451 804 171 822 351 b 408 536 653 471 531 515 b 436 657 410 576 414 624 b 778 697 549 676 664 681 z m 704 1182 b 536 1186 688 1186 611 1193 b 471 1079 519 1150 492 1111 b 447 1061 468 1074 460 1061 b 432 1075 439 1061 435 1072 b 363 1183 419 1093 381 1149 b 197 1169 350 1186 253 1175 b 342 931 239 1104 301 1001 b 572 935 383 929 521 928 b 704 1182 624 1011 676 1113 z "},"ú":{"ha":964,"x_min":0,"x_max":0,"o":"m 913 849 b 592 832 814 857 697 854 b 593 311 589 679 592 479 b 385 278 549 278 444 271 b 410 860 385 471 392 635 b 94 818 325 858 167 843 b 51 182 78 708 50 314 b 197 -1 69 133 161 33 b 608 50 354 13 501 22 l 611 -17 b 907 18 697 -19 868 -4 b 913 849 901 179 908 667 z m 754 1174 b 490 1203 679 1203 589 1214 b 385 950 471 1147 436 1032 b 547 935 431 935 499 932 b 754 1174 617 988 688 1085 z "},"û":{"ha":964,"x_min":0,"x_max":0,"o":"m 913 849 b 592 832 814 857 697 854 b 593 311 589 679 592 479 b 385 278 549 278 444 271 b 410 860 385 471 392 635 b 94 818 325 858 167 843 b 51 182 78 708 50 314 b 197 -1 69 133 161 33 b 608 50 354 13 501 22 l 611 -17 b 907 18 697 -19 868 -4 b 913 849 901 179 908 667 z m 776 943 b 614 1224 729 1021 660 1142 b 358 1219 568 1226 415 1228 b 213 931 301 1131 243 1011 b 400 925 231 925 317 918 b 471 1050 417 967 447 1014 b 497 1072 475 1057 483 1072 b 514 1056 507 1072 511 1060 b 593 928 529 1033 571 969 b 776 943 607 924 714 938 z "},"ü":{"ha":964,"x_min":0,"x_max":0,"o":"m 913 849 b 592 832 814 857 697 854 b 593 311 589 679 592 479 b 385 278 549 278 444 271 b 410 860 385 471 392 635 b 94 818 325 858 167 843 b 51 182 78 708 50 314 b 197 -1 69 133 161 33 b 608 50 354 13 501 22 l 611 -17 b 907 18 697 -19 868 -4 b 913 849 901 179 908 667 z m 439 1063 b 350 1186 439 1107 392 1186 b 222 1150 331 1186 247 1176 b 192 1022 200 1126 192 1069 b 278 929 192 969 254 929 b 428 985 311 929 415 939 b 439 1063 435 1010 439 1036 z m 782 1071 b 696 1193 782 1115 736 1193 b 574 1157 678 1193 597 1183 b 543 1032 551 1135 543 1078 b 628 939 543 981 603 939 b 771 994 658 939 758 950 b 782 1071 778 1019 782 1046 z "},"ù":{"ha":964,"x_min":0,"x_max":0,"o":"m 913 849 b 592 832 814 857 697 854 b 593 311 589 679 592 479 b 385 278 549 278 444 271 b 410 860 385 471 392 635 b 94 818 325 858 167 843 b 51 182 78 708 50 314 b 197 -1 69 133 161 33 b 608 50 354 13 501 22 l 611 -17 b 907 18 697 -19 868 -4 b 913 849 901 179 908 667 z m 583 950 b 479 1217 532 1036 497 1157 b 215 1175 379 1224 290 1208 b 421 928 281 1083 353 982 b 583 950 469 928 538 933 z "},"ý":{"ha":964,"x_min":0,"x_max":0,"o":"m 926 868 b 613 857 819 886 689 871 b 489 601 575 775 539 708 b 357 850 418 714 368 819 b 36 807 244 847 138 850 b 342 317 60 738 221 465 b 356 -39 340 210 344 136 b 636 -19 399 -43 603 -37 b 657 321 646 171 653 218 b 926 868 792 560 858 710 z m 764 1199 b 500 1228 689 1228 599 1238 b 394 974 482 1171 446 1057 b 557 958 440 960 510 957 b 764 1199 626 1013 697 1110 z "},"ÿ":{"ha":964,"x_min":0,"x_max":0,"o":"m 926 868 b 613 857 819 886 689 871 b 489 601 575 775 539 708 b 357 850 418 714 368 819 b 36 807 244 847 138 850 b 342 317 60 738 221 465 b 356 -39 340 210 344 136 b 636 -19 399 -43 603 -37 b 657 321 646 171 653 218 b 926 868 792 560 858 710 z m 436 1076 b 347 1200 436 1122 388 1200 b 219 1164 328 1200 244 1190 b 189 1036 197 1142 189 1083 b 275 943 189 985 250 943 b 425 1000 307 943 413 954 b 436 1076 432 1024 436 1051 z m 779 1085 b 693 1207 779 1131 732 1207 b 569 1172 675 1207 594 1197 b 540 1046 549 1149 540 1092 b 624 954 540 994 600 954 b 768 1010 656 954 756 964 b 779 1085 775 1033 779 1060 z "},"ž":{"ha":760,"x_min":0,"x_max":0,"o":"m 711 168 b 378 175 625 176 465 167 b 694 664 482 326 590 468 b 693 856 704 718 696 803 b 47 858 479 906 182 876 b 65 667 44 799 47 721 b 379 661 164 651 278 665 b 38 157 319 557 157 315 b 75 -26 32 114 53 29 b 696 -17 247 -36 489 -44 b 711 168 710 39 717 114 z m 649 1182 b 481 1186 632 1186 556 1193 b 415 1081 464 1151 436 1113 b 392 1063 413 1076 404 1063 b 376 1076 383 1063 379 1074 b 307 1183 364 1094 325 1150 b 142 1171 294 1188 197 1175 b 286 935 183 1106 246 1004 b 517 939 328 933 465 932 b 649 1182 568 1014 621 1114 z "}," ":{"ha":444,"x_min":0,"x_max":0,"o":""},"Ā":{"ha":1128,"x_min":0,"x_max":0,"o":"m 676 393 b 456 392 647 385 506 379 b 549 701 454 425 536 676 b 610 701 567 704 592 704 b 676 393 639 635 668 486 z m 1119 -3 b 924 958 1068 351 993 642 b 224 951 768 996 363 983 b 174 776 204 913 188 829 b 250 761 190 765 250 761 b 4 -21 158 524 31 161 b 317 -18 79 -33 235 -37 b 374 135 333 50 342 76 b 731 144 449 153 626 157 b 779 -24 744 71 757 46 b 1119 -3 869 -26 1007 -22 z m 860 1060 b 853 1258 871 1103 863 1215 b 297 1256 746 1268 411 1261 b 293 1039 279 1213 267 1111 b 860 1060 474 1056 678 1050 z "},"ā":{"ha":961,"x_min":0,"x_max":0,"o":"m 585 225 b 407 207 528 214 438 204 b 390 336 382 222 392 318 b 569 400 419 363 508 383 b 585 225 578 335 583 296 z m 900 6 b 817 821 924 214 892 713 b 181 832 654 861 386 860 b 146 640 156 807 143 713 b 551 632 226 642 493 651 b 551 576 554 619 553 586 b 79 453 424 565 160 500 b 56 88 58 389 38 164 b 264 -22 115 39 218 -8 b 606 25 351 -12 451 -1 l 611 -29 b 900 6 703 -25 850 -10 z m 761 931 b 756 1108 772 969 764 1069 b 256 1106 658 1117 357 1111 b 251 911 239 1068 228 976 b 761 931 414 926 599 921 z "},"Ă":{"ha":1128,"x_min":0,"x_max":0,"o":"m 676 393 b 456 392 647 385 506 379 b 549 701 454 425 536 676 b 610 701 567 704 592 704 b 676 393 639 635 668 486 z m 1119 -3 b 924 958 1068 351 993 642 b 224 951 768 996 363 983 b 174 776 204 913 188 829 b 250 761 190 765 250 761 b 4 -21 158 524 31 161 b 317 -18 79 -33 235 -37 b 374 135 333 50 342 76 b 731 144 449 153 626 157 b 779 -24 744 71 757 46 b 1119 -3 869 -26 1007 -22 z m 904 1224 b 699 1253 885 1228 790 1260 b 592 1171 689 1233 629 1171 b 488 1250 572 1171 508 1213 b 285 1211 472 1254 363 1231 b 447 1049 336 1143 371 1106 b 744 1053 494 1013 675 1006 b 904 1224 833 1114 871 1151 z "},"ă":{"ha":961,"x_min":0,"x_max":0,"o":"m 585 225 b 407 207 528 214 438 204 b 390 336 382 222 392 318 b 569 400 419 363 508 383 b 585 225 578 335 583 296 z m 900 6 b 817 821 924 214 892 713 b 181 832 654 861 386 860 b 146 640 156 807 143 713 b 551 632 226 642 493 651 b 551 576 554 619 553 586 b 79 453 424 565 160 500 b 56 88 58 389 38 164 b 264 -22 115 39 218 -8 b 606 25 351 -12 451 -1 l 611 -29 b 900 6 703 -25 850 -10 z m 776 1090 b 592 1117 758 1094 674 1122 b 494 1043 582 1099 528 1043 b 401 1114 478 1042 419 1081 b 218 1079 388 1117 289 1096 b 365 932 265 1018 296 983 b 632 936 408 900 571 893 b 776 1090 713 992 746 1025 z "},"Ą":{"ha":1128,"x_min":0,"x_max":0,"o":"m 676 436 b 456 435 647 428 506 422 b 549 779 454 472 536 751 b 610 779 567 783 592 783 b 676 436 639 706 668 539 z m 1119 -3 b 924 1065 1068 390 993 713 b 224 1057 768 1107 363 1093 b 174 863 204 1014 188 921 b 250 846 190 851 250 846 b 4 -24 158 582 31 179 b 317 -19 79 -36 235 -42 b 374 150 333 56 342 85 b 731 160 449 169 626 174 b 751 69 738 121 743 94 b 632 38 710 68 669 63 b 624 -103 628 -14 624 -51 b 656 -249 624 -151 628 -207 b 1057 -296 764 -294 939 -294 b 1078 -167 1074 -281 1078 -190 l 1078 -158 b 879 -115 1026 -151 919 -146 b 867 -60 871 -97 867 -79 b 868 -26 867 -49 867 -37 b 1119 -3 947 -25 1040 -18 z "},"ą":{"ha":961,"x_min":0,"x_max":0,"o":"m 585 225 b 407 207 528 214 438 204 b 390 336 382 222 392 318 b 569 400 419 363 508 383 b 585 225 578 335 583 296 z m 900 6 b 817 821 924 214 892 713 b 181 832 654 861 386 860 b 146 640 156 807 143 713 b 551 632 226 642 493 651 b 551 576 554 619 553 586 b 79 453 424 565 160 500 b 56 88 58 389 38 164 b 264 -22 115 39 218 -8 b 454 1 319 -17 379 -10 b 451 -62 453 -19 451 -39 b 481 -193 451 -106 456 -156 b 842 -236 578 -235 735 -235 b 861 -119 857 -222 861 -142 l 861 -112 b 682 -74 815 -107 718 -100 b 671 -25 675 -58 671 -42 b 900 6 757 -18 860 -6 z "},"Ć":{"ha":911,"x_min":0,"x_max":0,"o":"m 867 196 b 439 251 815 221 515 199 b 460 694 392 342 426 569 b 844 751 578 746 692 736 b 844 981 860 846 850 940 b 139 886 758 1021 265 961 b 94 57 35 714 1 181 b 825 -39 313 -29 596 -36 b 867 196 854 -17 869 121 z m 750 1278 b 486 1308 675 1308 585 1318 b 381 1054 467 1251 432 1138 b 543 1039 426 1040 494 1038 b 750 1278 613 1093 683 1190 z "},"ć":{"ha":819,"x_min":0,"x_max":0,"o":"m 781 164 b 422 208 733 183 492 165 b 442 631 379 281 411 529 b 760 676 547 672 622 664 b 760 860 774 753 764 828 b 125 783 683 893 239 843 b 85 51 31 646 0 151 b 742 -25 281 -17 535 -22 b 781 164 768 -7 783 103 z m 718 1169 b 454 1200 643 1200 554 1210 b 350 946 436 1143 401 1029 b 513 931 396 932 464 929 b 718 1169 581 985 653 1082 z "},"Ĉ":{"ha":911,"x_min":0,"x_max":0,"o":"m 867 196 b 439 251 815 221 515 199 b 460 694 392 342 426 569 b 844 751 578 746 692 736 b 844 981 860 846 850 940 b 139 886 758 1021 265 961 b 94 57 35 714 1 181 b 825 -39 313 -29 596 -36 b 867 196 854 -17 869 121 z m 765 1053 b 603 1333 718 1131 649 1251 b 347 1329 557 1336 404 1338 b 201 1040 290 1240 232 1121 b 389 1035 219 1035 306 1028 b 461 1160 406 1076 438 1124 b 486 1182 464 1167 472 1182 b 503 1165 496 1182 500 1169 b 582 1038 518 1143 560 1079 b 765 1053 596 1033 703 1047 z "},"ĉ":{"ha":819,"x_min":0,"x_max":0,"o":"m 781 164 b 422 208 733 183 492 165 b 442 631 379 281 411 529 b 760 676 547 672 622 664 b 760 860 774 753 764 828 b 125 783 683 893 239 843 b 85 51 31 646 0 151 b 742 -25 281 -17 535 -22 b 781 164 768 -7 783 103 z m 733 931 b 572 1210 686 1007 617 1128 b 317 1206 525 1213 374 1214 b 169 917 258 1117 200 997 b 357 911 188 911 274 904 b 429 1038 375 953 406 1000 b 454 1058 432 1043 442 1058 b 471 1042 464 1058 468 1046 b 550 915 486 1021 528 956 b 733 931 564 911 671 925 z "},"Ċ":{"ha":911,"x_min":0,"x_max":0,"o":"m 867 196 b 439 251 815 221 515 199 b 460 694 392 342 426 569 b 844 751 578 746 692 736 b 844 981 860 846 850 940 b 139 886 758 1021 265 961 b 94 57 35 714 1 181 b 825 -39 313 -29 596 -36 b 867 196 854 -17 869 121 z m 581 1142 b 493 1244 581 1179 533 1244 b 368 1215 475 1244 393 1236 b 338 1108 346 1196 338 1147 b 422 1031 338 1065 399 1031 b 569 1078 454 1031 557 1039 b 581 1142 576 1097 581 1119 z "},"ċ":{"ha":819,"x_min":0,"x_max":0,"o":"m 781 164 b 422 208 733 183 492 165 b 442 631 379 281 411 529 b 760 676 547 672 622 664 b 760 860 774 753 764 828 b 125 783 683 893 239 843 b 85 51 31 646 0 151 b 742 -25 281 -17 535 -22 b 781 164 768 -7 783 103 z m 556 1008 b 478 1100 556 1042 514 1100 b 364 1074 460 1100 386 1093 b 338 978 344 1057 338 1013 b 414 908 338 939 392 908 b 546 950 442 908 535 915 b 556 1008 551 968 556 989 z "},"Č":{"ha":911,"x_min":0,"x_max":0,"o":"m 867 196 b 439 251 815 221 515 199 b 460 694 392 342 426 569 b 844 751 578 746 692 736 b 844 981 860 846 850 940 b 664 992 817 993 749 996 b 767 1207 706 1065 744 1147 b 579 1213 749 1213 663 1219 b 507 1086 563 1169 531 1124 b 482 1065 504 1081 496 1065 b 465 1082 472 1065 468 1078 b 386 1208 450 1103 408 1168 b 203 1193 372 1213 265 1199 b 344 950 243 1128 300 1029 b 139 886 256 932 179 910 b 94 57 35 714 1 181 b 825 -39 313 -29 596 -36 b 867 196 854 -17 869 121 z "},"č":{"ha":819,"x_min":0,"x_max":0,"o":"m 781 164 b 422 208 733 183 492 165 b 442 631 379 281 411 529 b 760 676 547 672 622 664 b 760 860 774 753 764 828 b 125 783 683 893 239 843 b 85 51 31 646 0 151 b 742 -25 281 -17 535 -22 b 781 164 768 -7 783 103 z m 704 1169 b 536 1174 688 1174 611 1181 b 471 1061 519 1136 492 1094 b 447 1042 468 1056 460 1042 b 432 1057 439 1042 435 1053 b 363 1171 419 1076 381 1135 b 197 1157 350 1175 253 1163 b 342 906 239 1089 301 979 b 572 910 383 903 521 901 b 704 1169 624 989 676 1097 z "},"Ď":{"ha":1174,"x_min":0,"x_max":0,"o":"m 747 700 b 700 219 775 590 753 365 b 479 207 642 199 554 186 b 476 718 469 228 474 663 b 747 700 549 751 689 751 z m 1132 756 b 936 969 1079 842 1007 907 b 760 986 883 978 824 983 b 864 1207 801 1063 840 1146 b 676 1213 846 1213 760 1219 b 604 1086 660 1169 628 1124 b 579 1065 601 1081 593 1065 b 563 1082 569 1065 565 1078 b 483 1208 547 1103 506 1168 b 300 1193 469 1213 363 1199 b 421 988 335 1138 381 1058 b 57 957 288 983 160 972 b 42 747 54 929 43 835 l 121 743 b 125 -18 118 510 108 168 b 1004 8 382 -75 867 -36 b 1132 756 1103 181 1129 501 z "},"ď":{"ha":1111,"x_min":0,"x_max":0,"o":"m 617 608 b 615 221 618 556 624 240 b 406 207 549 201 458 189 b 428 593 389 283 403 488 b 617 608 488 624 556 624 z m 947 -18 b 947 1079 969 260 947 781 b 629 1083 869 1107 721 1094 b 635 826 626 1011 635 906 b 192 789 483 835 326 817 b 64 193 94 697 43 311 b 231 -26 111 119 168 26 b 639 15 313 -36 526 -4 l 643 -44 b 947 -18 742 -51 861 -40 z m 1354 1172 b 1090 1201 1279 1201 1190 1213 b 985 949 1072 1146 1038 1031 b 1149 932 1031 933 1100 931 b 1354 1172 1217 986 1289 1083 z "},"Đ":{"ha":1174,"x_min":0,"x_max":0,"o":"m 747 778 b 700 243 775 656 753 406 b 479 229 642 221 554 207 b 474 401 475 238 474 311 b 624 407 525 403 575 404 b 617 606 635 450 626 563 b 474 610 585 608 533 610 b 476 797 475 700 475 775 b 747 778 549 835 689 835 z m 1132 839 b 936 1078 1079 936 1007 1007 b 57 1064 693 1118 303 1101 b 42 831 54 1032 43 928 l 121 825 b 118 606 121 758 119 683 b 61 603 96 604 76 604 b 57 386 43 560 31 458 b 115 390 76 388 96 389 b 125 -19 115 235 117 85 b 1004 10 382 -83 867 -40 b 1132 839 1103 201 1129 557 z "},"đ":{"ha":1100,"x_min":0,"x_max":0,"o":"m 617 608 b 615 221 618 556 624 240 b 406 207 549 201 458 189 b 428 593 389 283 403 488 b 617 608 488 624 556 624 z m 1054 772 b 1047 954 1065 810 1057 914 b 947 979 1024 961 989 969 b 947 1079 947 1014 947 1047 b 629 1083 869 1107 721 1094 b 629 1040 629 1071 629 1056 b 499 1064 575 1050 529 1058 b 494 868 481 1028 468 939 b 635 847 539 863 586 854 b 635 826 635 840 635 833 b 192 789 483 835 326 817 b 64 193 94 697 43 311 b 231 -26 111 119 168 26 b 639 15 313 -36 526 -4 l 643 -44 b 947 -18 742 -51 861 -40 b 950 790 963 182 956 511 b 1054 772 986 783 1021 778 z "},"Ē":{"ha":942,"x_min":0,"x_max":0,"o":"m 881 778 b 871 985 883 828 888 942 b 65 960 658 993 294 1007 b 39 769 50 903 40 832 b 128 768 64 769 103 768 b 136 -12 121 515 115 219 b 869 -12 410 -42 626 -35 b 872 190 888 50 882 129 b 528 199 789 200 593 179 b 531 392 518 243 510 353 b 844 408 631 410 743 397 b 840 569 851 458 846 521 b 532 574 781 581 546 569 b 543 769 510 622 518 738 b 881 778 656 781 768 772 z m 776 1060 b 769 1258 788 1103 779 1215 b 214 1256 663 1268 328 1261 b 210 1039 196 1213 183 1111 b 776 1060 390 1056 594 1050 z "},"ē":{"ha":978,"x_min":0,"x_max":0,"o":"m 601 525 b 394 500 550 510 475 497 b 428 644 401 557 415 601 b 583 671 496 671 533 668 b 601 525 603 636 604 565 z m 928 347 b 832 874 932 514 901 758 b 139 797 756 907 253 857 b 99 64 44 660 14 164 b 786 -31 294 -4 581 -28 b 824 178 811 -12 826 117 b 394 242 776 197 464 199 b 375 306 385 258 378 279 b 928 347 554 311 833 332 z m 761 944 b 756 1122 772 983 764 1083 b 256 1119 658 1131 357 1125 b 251 925 239 1082 228 990 b 761 944 414 940 599 935 z "},"Ĕ":{"ha":942,"x_min":0,"x_max":0,"o":"m 881 778 b 871 985 883 828 888 942 b 65 960 658 993 294 1007 b 39 769 50 903 40 832 b 128 768 64 769 103 768 b 136 -12 121 515 115 219 b 869 -12 410 -42 626 -35 b 872 190 888 50 882 129 b 528 199 789 200 593 179 b 531 392 518 243 510 353 b 844 408 631 410 743 397 b 840 569 851 458 846 521 b 532 574 781 581 546 569 b 543 769 510 622 518 738 b 881 778 656 781 768 772 z m 835 1238 b 629 1267 815 1242 721 1274 b 522 1185 619 1247 560 1185 b 418 1264 503 1185 439 1226 b 215 1225 403 1268 293 1244 b 378 1063 267 1157 301 1119 b 675 1067 425 1026 606 1019 b 835 1238 764 1128 801 1165 z "},"ĕ":{"ha":978,"x_min":0,"x_max":0,"o":"m 601 525 b 394 500 550 510 475 497 b 428 644 401 557 415 601 b 583 671 496 671 533 668 b 601 525 603 636 604 565 z m 928 347 b 832 874 932 514 901 758 b 139 797 756 907 253 857 b 99 64 44 660 14 164 b 786 -31 294 -4 581 -28 b 824 178 811 -12 826 117 b 394 242 776 197 464 199 b 375 306 385 258 378 279 b 928 347 554 311 833 332 z m 776 1104 b 592 1131 758 1108 674 1136 b 494 1057 582 1113 528 1057 b 401 1128 478 1056 419 1094 b 218 1093 388 1131 289 1110 b 365 946 265 1032 296 997 b 632 950 408 914 571 907 b 776 1104 713 1006 746 1039 z "},"Ė":{"ha":942,"x_min":0,"x_max":0,"o":"m 881 778 b 871 985 883 828 888 942 b 65 960 658 993 294 1007 b 39 769 50 903 40 832 b 128 768 64 769 103 768 b 136 -12 121 515 115 219 b 869 -12 410 -42 626 -35 b 872 190 888 50 882 129 b 528 199 789 200 593 179 b 531 392 518 243 510 353 b 844 408 631 410 743 397 b 840 569 851 458 846 521 b 532 574 781 581 546 569 b 543 769 510 622 518 738 b 881 778 656 781 768 772 z m 594 1156 b 507 1258 594 1193 547 1258 b 382 1229 489 1258 407 1250 b 351 1122 360 1210 351 1161 b 436 1044 351 1079 413 1044 b 583 1092 468 1044 571 1053 b 594 1156 590 1111 594 1133 z "},"ė":{"ha":978,"x_min":0,"x_max":0,"o":"m 601 525 b 394 500 550 510 475 497 b 428 644 401 557 415 601 b 583 671 496 671 533 668 b 601 525 603 636 604 565 z m 928 347 b 832 874 932 514 901 758 b 139 797 756 907 253 857 b 99 64 44 660 14 164 b 786 -31 294 -4 581 -28 b 824 178 811 -12 826 117 b 394 242 776 197 464 199 b 375 306 385 258 378 279 b 928 347 554 311 833 332 z m 597 1022 b 519 1114 597 1056 556 1114 b 406 1088 501 1114 428 1107 b 379 992 386 1071 379 1026 b 456 922 379 953 433 922 b 588 964 483 922 576 929 b 597 1022 593 982 597 1003 z "},"Ę":{"ha":942,"x_min":0,"x_max":0,"o":"m 881 864 b 871 1094 883 919 888 1046 b 65 1067 658 1103 294 1118 b 39 854 50 1003 40 925 b 128 853 64 854 103 853 b 136 -14 121 572 115 243 b 347 -32 210 -22 281 -28 b 346 -89 347 -50 346 -68 b 378 -235 346 -137 350 -193 b 779 -282 486 -281 661 -281 b 800 -153 796 -267 800 -176 l 800 -144 b 601 -101 749 -137 642 -132 b 589 -46 593 -83 589 -65 b 589 -33 589 -42 589 -37 b 869 -14 682 -31 774 -24 b 872 211 888 56 882 143 b 528 221 789 222 593 199 b 531 435 518 269 510 392 b 844 454 631 456 743 442 b 840 633 851 508 846 579 b 532 638 781 644 546 632 b 543 856 510 692 518 821 b 881 864 656 868 768 858 z "},"ę":{"ha":978,"x_min":0,"x_max":0,"o":"m 601 525 b 394 500 550 510 475 497 b 428 644 401 557 415 601 b 583 671 496 671 533 668 b 601 525 603 636 604 565 z m 928 347 b 832 874 932 514 901 758 b 139 797 756 907 253 857 b 99 64 44 660 14 164 b 331 7 168 40 247 21 b 326 -76 329 -19 326 -46 b 356 -207 326 -119 331 -169 b 717 -250 453 -249 610 -249 b 736 -133 732 -236 736 -156 l 736 -126 b 557 -87 690 -121 593 -114 b 546 -37 549 -71 546 -56 b 546 -19 546 -32 546 -25 b 786 -31 631 -26 714 -29 b 824 178 811 -12 826 117 b 394 242 776 197 464 199 b 375 306 385 258 378 279 b 928 347 554 311 833 332 z "},"Ě":{"ha":942,"x_min":0,"x_max":0,"o":"m 881 778 b 871 985 883 828 888 942 b 665 992 811 988 740 990 b 767 1207 706 1065 744 1147 b 579 1213 749 1213 663 1219 b 507 1086 563 1169 531 1124 b 482 1065 504 1081 496 1065 b 465 1082 472 1065 468 1078 b 386 1208 450 1103 408 1168 b 203 1193 372 1213 265 1199 b 322 989 238 1138 282 1060 b 65 960 229 983 140 975 b 39 769 50 903 40 832 b 128 768 64 769 103 768 b 136 -12 121 515 115 219 b 869 -12 410 -42 626 -35 b 872 190 888 50 882 129 b 528 199 789 200 593 179 b 531 392 518 243 510 353 b 844 408 631 410 743 397 b 840 569 851 458 846 521 b 532 574 781 581 546 569 b 543 769 510 622 518 738 b 881 778 656 781 768 772 z "},"ě":{"ha":978,"x_min":0,"x_max":0,"o":"m 601 525 b 394 500 550 510 475 497 b 428 644 401 557 415 601 b 583 671 496 671 533 668 b 601 525 603 636 604 565 z m 928 347 b 832 874 932 514 901 758 b 139 797 756 907 253 857 b 99 64 44 660 14 164 b 786 -31 294 -4 581 -28 b 824 178 811 -12 826 117 b 394 242 776 197 464 199 b 375 306 385 258 378 279 b 928 347 554 311 833 332 z m 732 1183 b 564 1188 715 1188 639 1194 b 499 1075 547 1150 519 1108 b 475 1056 496 1069 488 1056 b 460 1071 467 1056 463 1067 b 390 1185 447 1090 408 1149 b 225 1171 378 1189 281 1176 b 369 919 267 1103 329 993 b 600 924 411 917 549 915 b 732 1183 651 1003 704 1111 z "},"Ĝ":{"ha":1056,"x_min":0,"x_max":0,"o":"m 997 -57 b 978 601 997 129 989 403 b 540 563 874 603 661 589 b 529 389 524 504 521 447 b 669 386 571 393 626 392 b 663 257 671 351 675 303 b 429 261 618 253 499 232 b 492 699 396 360 442 632 b 917 768 606 742 797 753 b 882 1003 921 836 907 932 b 178 900 714 993 338 968 b 56 203 100 769 42 386 b 242 10 110 103 186 58 b 678 7 378 -12 539 -1 l 678 -60 b 997 -57 776 -85 925 -65 z m 821 1053 b 658 1333 774 1131 704 1251 b 403 1329 613 1336 460 1338 b 257 1040 346 1240 288 1121 b 444 1035 275 1035 361 1028 b 517 1160 461 1076 493 1124 b 542 1182 519 1167 528 1182 b 558 1165 551 1182 556 1169 b 638 1038 574 1143 615 1079 b 821 1053 651 1033 758 1047 z "},"ĝ":{"ha":964,"x_min":0,"x_max":0,"o":"m 563 619 b 556 242 563 507 561 353 b 383 244 493 240 410 231 b 414 603 367 333 383 501 b 563 619 458 621 517 614 z m 899 849 b 569 856 818 863 683 858 l 565 794 b 139 769 449 796 221 813 b 56 135 58 651 15 294 b 232 25 92 93 176 51 b 539 40 344 28 436 36 b 506 -64 531 -10 519 -51 b 122 -118 403 -99 229 -107 b 154 -307 118 -172 132 -250 b 724 -228 306 -300 579 -282 b 881 40 811 -194 857 -81 b 899 849 899 136 904 783 z m 789 944 b 628 1224 742 1021 672 1142 b 372 1219 581 1226 429 1228 b 225 931 314 1131 256 1011 b 413 925 243 925 329 918 b 485 1051 431 967 461 1014 b 510 1072 488 1057 497 1072 b 526 1056 519 1072 524 1060 b 606 929 542 1035 583 969 b 789 944 619 925 726 939 z "},"Ğ":{"ha":1056,"x_min":0,"x_max":0,"o":"m 997 -57 b 978 601 997 129 989 403 b 540 563 874 603 661 589 b 529 389 524 504 521 447 b 669 386 571 393 626 392 b 663 257 671 351 675 303 b 429 261 618 253 499 232 b 492 699 396 360 442 632 b 917 768 606 742 797 753 b 882 1003 921 836 907 932 b 178 900 714 993 338 968 b 56 203 100 769 42 386 b 242 10 110 103 186 58 b 678 7 378 -12 539 -1 l 678 -60 b 997 -57 776 -85 925 -65 z m 863 1251 b 657 1281 843 1256 749 1288 b 550 1199 647 1261 588 1199 b 446 1278 531 1199 467 1240 b 243 1239 431 1282 321 1258 b 406 1076 294 1171 329 1133 b 703 1081 453 1040 633 1033 b 863 1251 792 1142 829 1179 z "},"ğ":{"ha":964,"x_min":0,"x_max":0,"o":"m 563 619 b 556 242 563 507 561 353 b 383 244 493 240 410 231 b 414 603 367 333 383 501 b 563 619 458 621 517 614 z m 899 849 b 569 856 818 863 683 858 l 565 794 b 139 769 449 796 221 813 b 56 135 58 651 15 294 b 232 25 92 93 176 51 b 539 40 344 28 436 36 b 506 -64 531 -10 519 -51 b 122 -118 403 -99 229 -107 b 154 -307 118 -172 132 -250 b 724 -228 306 -300 579 -282 b 881 40 811 -194 857 -81 b 899 849 899 136 904 783 z m 776 1090 b 592 1117 758 1094 674 1122 b 494 1043 582 1099 528 1043 b 401 1114 478 1042 419 1081 b 218 1079 388 1117 289 1096 b 365 932 265 1018 296 983 b 632 936 408 900 571 893 b 776 1090 713 992 746 1025 z "},"Ġ":{"ha":1056,"x_min":0,"x_max":0,"o":"m 997 -57 b 978 601 997 129 989 403 b 540 563 874 603 661 589 b 529 389 524 504 521 447 b 669 386 571 393 626 392 b 663 257 671 351 675 303 b 429 261 618 253 499 232 b 492 699 396 360 442 632 b 917 768 606 742 797 753 b 882 1003 921 836 907 932 b 178 900 714 993 338 968 b 56 203 100 769 42 386 b 242 10 110 103 186 58 b 678 7 378 -12 539 -1 l 678 -60 b 997 -57 776 -85 925 -65 z m 650 1142 b 563 1244 650 1179 603 1244 b 438 1215 544 1244 463 1236 b 407 1108 415 1196 407 1147 b 492 1031 407 1065 468 1031 b 639 1078 524 1031 626 1039 b 650 1142 646 1097 650 1119 z "},"ġ":{"ha":964,"x_min":0,"x_max":0,"o":"m 563 619 b 556 242 563 507 561 353 b 383 244 493 240 410 231 b 414 603 367 333 383 501 b 563 619 458 621 517 614 z m 899 849 b 569 856 818 863 683 858 l 565 794 b 139 769 449 796 221 813 b 56 135 58 651 15 294 b 232 25 92 93 176 51 b 539 40 344 28 436 36 b 506 -64 531 -10 519 -51 b 122 -118 403 -99 229 -107 b 154 -307 118 -172 132 -250 b 724 -228 306 -300 579 -282 b 881 40 811 -194 857 -81 b 899 849 899 136 904 783 z m 611 1008 b 533 1100 611 1042 569 1100 b 419 1074 515 1100 442 1093 b 393 978 400 1057 393 1013 b 469 908 393 939 447 908 b 601 950 497 908 590 915 b 611 1008 607 968 611 989 z "},"Ģ":{"ha":1056,"x_min":0,"x_max":0,"o":"m 997 -62 b 978 668 997 144 989 447 b 540 625 874 669 661 654 b 529 432 524 560 521 497 b 669 429 571 436 626 435 b 663 286 671 390 675 336 b 429 290 618 281 499 258 b 492 776 396 400 442 703 b 917 853 606 825 797 836 b 882 1114 921 928 907 1035 b 178 1000 714 1104 338 1075 b 56 225 100 854 42 429 b 242 11 110 114 186 65 b 500 -3 322 -4 413 -6 b 482 -101 497 -44 492 -81 b 283 -144 444 -131 349 -136 b 304 -282 282 -185 290 -269 b 706 -235 417 -281 599 -281 b 743 -78 726 -204 738 -144 b 997 -62 833 -86 940 -71 z "},"ģ":{"ha":964,"x_min":0,"x_max":0,"o":"m 563 619 b 556 242 563 507 561 353 b 383 244 493 240 410 231 b 414 603 367 333 383 501 b 563 619 458 621 517 614 z m 899 849 b 569 856 818 863 683 858 l 565 794 b 139 769 449 796 221 813 b 56 135 58 651 15 294 b 232 25 92 93 176 51 b 539 40 344 28 436 36 b 506 -64 531 -10 519 -51 b 122 -118 403 -99 229 -107 b 154 -307 118 -172 132 -250 b 724 -228 306 -300 579 -282 b 881 40 811 -194 857 -81 b 899 849 899 136 904 783 z m 761 1108 b 742 1197 761 1135 754 1189 b 381 1167 640 1196 478 1196 b 347 911 339 1124 340 985 b 564 904 388 907 517 896 b 582 1081 563 971 561 1050 b 761 1108 615 1100 701 1103 z "},"Ĥ":{"ha":1058,"x_min":0,"x_max":0,"o":"m 981 982 b 667 958 929 993 714 983 b 664 649 660 869 678 711 b 407 631 632 636 475 628 b 419 958 407 732 403 858 b 74 950 400 982 151 972 b 81 -42 67 767 53 129 b 406 -28 185 -49 310 -47 b 413 307 401 83 404 196 b 656 329 444 319 614 332 b 661 -26 676 225 654 67 b 974 -22 699 -31 913 -33 b 981 982 978 126 1003 731 z m 821 1039 b 658 1319 774 1117 704 1238 b 403 1315 613 1322 460 1324 b 257 1026 346 1226 288 1107 b 444 1021 275 1021 361 1014 b 517 1146 461 1063 493 1110 b 542 1168 519 1153 528 1168 b 558 1151 551 1168 556 1156 b 638 1024 574 1129 615 1065 b 821 1039 651 1019 758 1033 z "},"ĥ":{"ha":951,"x_min":0,"x_max":0,"o":"m 882 890 b 600 871 836 900 642 892 b 599 589 594 793 611 642 b 367 574 569 578 426 558 b 378 871 367 661 363 783 b 67 864 361 890 136 883 b 72 -43 61 706 47 104 b 364 -32 165 -50 278 -49 b 372 228 360 64 365 132 b 590 247 392 264 553 250 b 596 -31 608 158 590 50 b 876 -26 631 -33 822 -36 b 882 890 881 101 901 674 z m 775 958 b 614 1238 728 1035 658 1156 b 358 1233 567 1240 415 1242 b 211 944 300 1144 242 1025 b 399 939 229 939 315 932 b 471 1065 417 981 447 1028 b 496 1086 474 1071 483 1086 b 513 1069 506 1086 510 1074 b 592 943 528 1049 569 983 b 775 958 606 939 713 953 z "},"Ħ":{"ha":1197,"x_min":0,"x_max":0,"o":"m 738 765 b 733 721 738 747 736 733 b 476 700 701 707 544 697 b 476 751 476 717 476 735 b 738 765 564 757 651 761 z m 1131 788 b 1118 983 1151 831 1136 942 b 1056 983 1100 985 1079 983 b 1050 1090 1054 1024 1053 1060 b 736 1065 999 1103 783 1092 b 735 974 735 1039 735 1007 b 479 963 651 971 564 967 b 489 1065 481 999 485 1033 b 143 1056 469 1090 221 1081 b 140 944 142 1028 142 989 b 78 940 117 943 96 942 b 69 725 43 897 22 796 b 136 731 92 726 114 729 b 150 -46 132 444 132 82 b 475 -31 254 -54 379 -53 b 482 340 471 93 474 217 b 725 365 514 356 683 369 b 731 -29 746 250 724 75 b 1043 -25 768 -33 982 -37 b 1058 782 1046 93 1060 474 b 1131 788 1083 783 1107 785 z "},"ħ":{"ha":1049,"x_min":0,"x_max":0,"o":"m 658 624 b 654 589 657 610 657 599 b 422 574 625 578 482 558 b 422 613 422 586 422 599 b 658 624 500 617 579 619 z m 990 643 b 979 813 1008 681 996 776 b 943 813 968 813 956 813 b 938 890 942 842 939 868 b 656 871 892 900 697 892 b 654 804 654 851 654 829 b 425 793 579 800 500 797 b 433 871 426 821 429 847 b 122 864 417 890 192 883 b 119 778 121 843 121 813 b 83 775 106 776 93 776 b 76 589 53 738 35 650 b 115 593 89 590 103 592 b 128 -43 111 357 111 56 b 419 -32 221 -50 333 -49 b 428 228 415 64 421 132 b 646 247 447 264 608 250 b 651 -31 664 158 646 50 b 932 -26 686 -33 878 -36 b 946 639 935 65 947 386 b 990 643 961 640 975 642 z "},"Ĩ":{"ha":486,"x_min":0,"x_max":0,"o":"m 410 960 b 93 940 314 961 190 960 b 103 -19 83 672 85 275 b 383 3 150 -25 347 -19 b 410 960 399 324 410 647 z m 572 1213 b 483 1286 553 1244 518 1269 b 361 1215 483 1286 418 1190 b 131 1297 275 1251 194 1326 b -40 1092 68 1268 -3 1165 b 50 1022 -28 1068 4 1043 b 122 1090 72 1051 104 1083 b 358 1010 150 1103 283 1017 b 572 1213 428 1004 543 1175 z "},"ĩ":{"ha":438,"x_min":0,"x_max":0,"o":"m 369 846 b 83 829 283 847 171 846 b 92 3 75 601 75 253 b 344 22 135 -1 311 4 b 369 846 358 294 369 581 z m 514 1076 b 435 1143 497 1106 467 1128 b 325 1079 435 1143 376 1058 b 117 1153 247 1113 175 1179 b -36 968 61 1128 -3 1035 b 46 906 -25 947 4 925 b 110 968 65 932 93 961 b 322 896 135 978 254 900 b 514 1076 385 890 489 1044 z "},"Ī":{"ha":486,"x_min":0,"x_max":0,"o":"m 410 960 b 93 940 314 961 190 960 b 103 -19 83 672 85 275 b 383 3 150 -25 347 -19 b 410 960 399 324 410 647 z m 488 1046 b 482 1244 497 1089 490 1201 b 24 1242 393 1254 118 1247 b 21 1025 8 1199 0 1097 b 488 1046 169 1042 338 1036 z "},"ī":{"ha":438,"x_min":0,"x_max":0,"o":"m 369 846 b 83 829 283 847 171 846 b 92 3 75 601 75 253 b 344 22 135 -1 311 4 b 369 846 358 294 369 581 z m 425 931 b 419 1108 432 969 426 1069 b 44 1106 347 1117 121 1111 b 42 911 32 1068 24 976 b 425 931 164 926 301 921 z "},"Į":{"ha":486,"x_min":0,"x_max":0,"o":"m 467 -117 b 268 -74 415 -110 308 -104 b 256 -18 260 -56 256 -37 b 383 3 313 -14 365 -8 b 410 960 399 324 410 647 b 93 940 314 961 190 960 b 96 107 85 708 85 382 b 21 79 71 104 44 96 b 13 -61 17 28 13 -10 b 44 -207 13 -110 17 -165 b 446 -254 153 -253 328 -253 b 467 -125 463 -239 467 -149 z "},"į":{"ha":438,"x_min":0,"x_max":0,"o":"m 431 -85 b 251 -46 385 -79 288 -72 b 240 4 243 -29 240 -14 l 240 6 b 344 21 288 8 329 14 b 369 824 358 279 369 572 b 83 807 283 825 171 824 b 86 115 76 624 75 342 b 29 92 67 111 47 104 b 21 -35 25 46 21 11 b 50 -165 21 -78 25 -128 b 411 -208 147 -207 304 -207 b 431 -92 426 -194 431 -114 z m 407 932 b 378 1064 415 978 401 1024 b 238 1086 343 1076 275 1090 b 74 1021 193 1081 85 1063 b 74 907 67 994 56 931 b 407 932 101 872 375 890 z "},"İ":{"ha":486,"x_min":0,"x_max":0,"o":"m 410 960 b 93 940 314 961 190 960 b 103 -19 83 672 85 275 b 383 3 150 -25 347 -19 b 410 960 399 324 410 647 z m 372 1128 b 285 1231 372 1165 325 1231 b 160 1201 267 1231 185 1222 b 129 1094 138 1182 129 1133 b 214 1017 129 1051 190 1017 b 361 1064 246 1017 349 1025 b 372 1128 368 1083 372 1106 z "},"Ĳ":{"ha":1325,"x_min":0,"x_max":0,"o":"m 410 1067 b 93 1044 314 1068 190 1067 b 103 -22 83 746 85 306 b 383 3 150 -28 347 -21 b 410 1067 399 360 410 718 z m 1236 1071 b 883 1051 1111 1100 963 1075 b 878 244 906 794 911 386 b 532 185 763 186 653 189 b 532 -56 517 78 528 -11 b 1221 36 615 -101 1097 -47 b 1236 1071 1238 228 1265 854 z "},"ĳ":{"ha":868,"x_min":0,"x_max":0,"o":"m 369 824 b 83 807 283 825 171 824 b 92 3 75 592 75 240 b 344 21 135 -1 311 4 b 369 824 358 279 369 572 z m 826 814 b 508 799 714 836 579 817 b 503 -32 528 603 532 75 b 192 -76 400 -76 300 -72 b 192 -260 178 -157 188 -226 b 803 -132 267 -294 717 -264 b 826 814 818 14 853 649 z m 407 932 b 378 1064 415 978 401 1024 b 238 1086 343 1076 275 1090 b 74 1021 193 1081 85 1063 b 74 907 67 994 56 931 b 407 932 101 872 375 890 z m 838 932 b 808 1064 846 978 832 1024 b 668 1086 774 1076 706 1090 b 504 1021 624 1081 515 1063 b 504 907 497 994 486 931 b 838 932 532 872 806 890 z "},"Ĵ":{"ha":851,"x_min":0,"x_max":0,"o":"m 764 964 b 411 946 639 990 490 967 b 406 219 433 715 439 347 b 60 167 290 168 181 171 b 60 -50 44 71 56 -10 b 749 32 143 -92 625 -43 b 764 964 765 206 793 769 z m 863 1053 b 700 1333 815 1131 746 1251 b 444 1329 654 1336 501 1338 b 299 1040 388 1240 329 1121 b 486 1035 317 1035 403 1028 b 558 1160 503 1076 535 1124 b 583 1182 561 1167 569 1182 b 600 1165 593 1182 597 1169 b 679 1038 615 1143 657 1079 b 863 1053 693 1033 800 1047 z "},"ĵ":{"ha":479,"x_min":0,"x_max":0,"o":"m 396 814 b 78 799 283 836 149 817 b 72 -32 97 603 101 75 b -239 -76 -31 -76 -131 -72 b -239 -260 -253 -157 -243 -226 b 372 -132 -164 -294 286 -264 b 396 814 388 14 422 649 z m 478 919 b 343 1189 439 993 381 1110 b 129 1185 304 1192 176 1193 b 7 907 81 1100 32 985 b 163 903 22 903 93 894 b 224 1024 178 943 203 988 b 244 1043 226 1028 233 1043 b 258 1026 253 1043 256 1031 b 324 906 271 1007 306 944 b 478 919 336 901 425 915 z "},"Ķ":{"ha":1038,"x_min":0,"x_max":0,"o":"m 694 -97 b 431 -67 619 -67 529 -57 b 325 -321 411 -124 376 -237 b 488 -336 371 -335 439 -337 b 694 -97 557 -282 628 -185 z m 1011 1032 b 683 1092 907 1058 779 1097 b 474 703 626 988 521 781 l 414 703 b 408 1060 399 818 404 958 b 78 1054 369 1064 161 1072 b 71 -49 74 890 49 228 b 404 -25 122 -61 357 -51 b 406 317 411 74 407 238 l 457 318 b 668 -51 497 249 575 90 b 1000 7 735 -49 922 -29 b 751 510 926 181 818 318 b 1011 1032 822 665 965 943 z "},"ķ":{"ha":933,"x_min":0,"x_max":0,"o":"m 633 -76 b 396 -49 565 -50 485 -40 b 301 -278 379 -100 347 -203 b 447 -292 342 -290 404 -293 b 633 -76 510 -243 574 -156 z m 897 43 b 656 482 821 240 715 356 b 872 706 736 565 807 651 b 633 864 796 789 721 832 b 374 629 539 796 439 692 b 368 1069 363 717 365 996 b 69 1053 333 1072 144 1067 b 64 -18 65 928 43 193 b 364 1 111 -28 321 -19 b 367 286 369 76 368 233 l 411 286 b 593 -24 446 231 539 83 b 897 43 654 -22 826 15 z "},"ĸ":{"ha":1038,"x_min":0,"x_max":0,"o":"m 1011 1032 b 683 1092 907 1058 779 1097 b 474 703 626 988 521 781 l 414 703 b 408 1060 399 818 404 958 b 78 1054 369 1064 161 1072 b 71 -49 74 890 49 228 b 404 -25 122 -61 357 -51 b 406 317 411 74 407 238 l 457 318 b 668 -51 497 249 575 90 b 1000 7 735 -49 922 -29 b 751 510 926 181 818 318 b 1011 1032 822 665 965 943 z "},"Ĺ":{"ha":840,"x_min":0,"x_max":0,"o":"m 793 272 b 425 268 679 260 540 240 b 428 956 425 375 422 707 b 67 939 367 963 106 960 b 82 -4 51 701 78 200 b 789 25 303 -18 676 13 b 793 272 804 111 801 188 z m 667 1278 b 403 1308 592 1308 501 1318 b 297 1054 383 1251 349 1138 b 460 1039 343 1040 411 1038 b 667 1278 529 1093 600 1190 z "},"ĺ":{"ha":490,"x_min":0,"x_max":0,"o":"m 407 963 b 96 946 336 979 208 968 b 100 -3 69 790 85 136 b 400 18 218 -18 283 -14 b 407 963 383 140 388 778 z m 551 1281 b 288 1311 476 1311 388 1321 b 183 1057 269 1254 235 1140 b 346 1042 229 1043 297 1040 b 551 1281 414 1096 486 1193 z "},"Ļ":{"ha":840,"x_min":0,"x_max":0,"o":"m 569 -97 b 306 -67 494 -67 404 -57 b 200 -321 286 -124 251 -237 b 363 -336 246 -335 314 -337 b 569 -97 432 -282 503 -185 z m 793 303 b 425 297 679 289 540 267 b 428 1061 425 417 422 786 b 67 1043 367 1069 106 1067 b 82 -4 51 779 78 222 b 789 28 303 -19 676 14 b 793 303 804 122 801 208 z "},"ļ":{"ha":490,"x_min":0,"x_max":0,"o":"m 411 -90 b 174 -62 343 -64 263 -54 b 79 -292 157 -114 125 -217 b 225 -306 119 -304 182 -307 b 411 -90 288 -257 351 -169 z m 407 1069 b 96 1051 336 1088 208 1075 b 100 -3 69 878 85 150 b 400 19 218 -19 283 -15 b 407 1069 383 156 388 864 z "},"Ľ":{"ha":840,"x_min":0,"x_max":0,"o":"m 793 303 b 425 297 679 289 540 267 b 428 1061 425 417 422 786 b 67 1043 367 1069 106 1067 b 82 -4 51 779 78 222 b 789 28 303 -19 676 14 b 793 303 804 122 801 208 z m 840 1172 b 576 1201 765 1201 676 1213 b 471 949 558 1146 524 1031 b 635 932 517 933 586 931 b 840 1172 703 986 775 1083 z "},"ľ":{"ha":560,"x_min":0,"x_max":0,"o":"m 407 1069 b 96 1051 336 1088 208 1075 b 100 -3 69 878 85 150 b 400 19 218 -19 283 -15 b 407 1069 383 156 388 864 z m 799 1117 b 535 1146 724 1146 635 1157 b 429 893 517 1090 482 975 b 593 876 475 878 544 875 b 799 1117 661 931 733 1028 z "},"Ŀ":{"ha":840,"x_min":0,"x_max":0,"o":"m 793 303 b 425 297 679 289 540 267 b 428 1061 425 417 422 786 b 67 1043 367 1069 106 1067 b 82 -4 51 779 78 222 b 789 28 303 -19 676 14 b 793 303 804 122 801 208 z m 719 864 b 632 967 719 901 672 967 b 507 938 614 967 532 958 b 476 831 485 918 476 869 b 561 753 476 788 538 753 b 708 800 593 753 696 761 b 719 864 715 819 719 842 z "},"ŀ":{"ha":768,"x_min":0,"x_max":0,"o":"m 407 1069 b 96 1051 336 1088 208 1075 b 100 -3 69 878 85 150 b 400 19 218 -19 283 -15 b 407 1069 383 156 388 864 z m 706 822 b 618 925 706 860 658 925 b 493 896 600 925 518 917 b 463 789 471 876 463 828 b 547 711 463 746 524 711 b 694 758 579 711 682 719 b 706 822 701 778 706 800 z "},"Ń":{"ha":1149,"x_min":0,"x_max":0,"o":"m 1074 960 b 788 938 978 968 882 961 b 775 563 785 847 779 578 l 710 558 b 546 974 653 696 592 831 b 69 929 464 988 94 954 b 82 -17 60 676 63 146 b 356 -7 178 -35 267 -31 b 363 388 349 143 351 283 l 431 394 b 632 -18 488 253 551 108 b 1067 21 794 -15 971 7 b 1074 960 1076 329 1076 651 z m 875 1278 b 611 1308 800 1308 710 1318 b 506 1054 592 1251 557 1138 b 668 1039 551 1040 619 1038 b 875 1278 738 1093 808 1190 z "},"ń":{"ha":1033,"x_min":0,"x_max":0,"o":"m 965 868 b 708 850 879 875 793 869 b 696 474 706 775 697 549 l 642 467 b 492 881 590 581 533 763 b 63 843 418 892 85 864 b 74 -6 54 635 57 129 b 321 4 160 -21 240 -15 b 329 331 314 128 319 244 l 388 335 b 569 -7 439 217 497 97 b 960 26 715 -6 874 15 b 965 868 968 282 968 613 z m 774 1183 b 510 1214 699 1214 610 1224 b 406 960 492 1157 457 1043 b 568 944 451 946 519 943 b 774 1183 636 999 708 1096 z "},"Ņ":{"ha":1149,"x_min":0,"x_max":0,"o":"m 708 -83 b 444 -53 633 -53 543 -43 b 339 -307 425 -110 390 -224 b 501 -322 385 -321 453 -324 b 708 -83 571 -268 642 -171 z m 1074 960 b 788 938 978 968 882 961 b 775 563 785 847 779 578 l 710 558 b 546 974 653 696 592 831 b 69 929 464 988 94 954 b 82 -17 60 676 63 146 b 356 -7 178 -35 267 -31 b 363 388 349 143 351 283 l 431 394 b 632 -18 488 253 551 108 b 1067 21 794 -15 971 7 b 1074 960 1076 329 1076 651 z "},"ņ":{"ha":1033,"x_min":0,"x_max":0,"o":"m 619 -76 b 382 -49 551 -50 471 -40 b 288 -278 365 -100 333 -203 b 433 -292 328 -290 390 -293 b 619 -76 496 -243 560 -156 z m 965 868 b 708 850 879 875 793 869 b 696 474 706 775 697 549 l 642 467 b 492 881 590 581 533 763 b 63 843 418 892 85 864 b 74 -6 54 635 57 129 b 321 4 160 -21 240 -15 b 329 331 314 128 319 244 l 388 335 b 569 -7 439 217 497 97 b 960 26 715 -6 874 15 b 965 868 968 282 968 613 z "},"Ň":{"ha":1149,"x_min":0,"x_max":0,"o":"m 1074 960 b 788 938 978 968 882 961 b 775 563 785 847 779 578 l 710 558 b 567 911 661 676 610 792 b 690 918 615 913 663 914 b 836 1207 747 1007 806 1126 b 649 1213 818 1213 732 1219 b 576 1086 632 1169 600 1124 b 551 1065 574 1081 565 1065 b 535 1082 542 1065 538 1078 b 456 1208 519 1103 478 1168 b 272 1193 442 1213 335 1199 b 400 974 308 1135 358 1049 b 69 929 264 967 86 946 b 82 -17 60 676 63 146 b 356 -7 178 -35 267 -31 b 363 388 349 143 351 283 l 431 394 b 632 -18 488 253 551 108 b 1067 21 794 -15 971 7 b 1074 960 1076 329 1076 651 z "},"ň":{"ha":1033,"x_min":0,"x_max":0,"o":"m 965 868 b 708 850 879 875 793 869 b 696 474 706 775 697 549 l 642 467 b 492 881 590 581 533 763 b 63 843 418 892 85 864 b 74 -6 54 635 57 129 b 321 4 160 -21 240 -15 b 329 331 314 128 319 244 l 388 335 b 569 -7 439 217 497 97 b 960 26 715 -6 874 15 b 965 868 968 282 968 613 z m 760 1189 b 592 1193 743 1193 667 1200 b 526 1089 575 1158 547 1119 b 503 1071 524 1083 515 1071 b 488 1085 494 1071 490 1081 b 418 1190 475 1103 436 1157 b 253 1178 406 1194 308 1183 b 397 943 294 1114 357 1013 b 628 946 439 942 576 939 b 760 1189 679 1021 732 1121 z "},"ŉ":{"ha":1311,"x_min":0,"x_max":0,"o":"m 394 994 b 147 1099 324 1058 240 1094 b 43 700 128 1008 93 825 b 196 640 86 667 150 647 b 394 994 261 715 331 863 z m 1243 868 b 986 850 1157 875 1071 869 b 974 474 983 775 975 549 l 919 467 b 769 881 868 581 811 763 b 340 843 696 892 363 864 b 351 -6 332 635 335 129 b 599 4 438 -21 518 -15 b 607 331 592 128 597 244 l 665 335 b 847 -7 717 217 775 97 b 1238 26 993 -6 1151 15 b 1243 868 1246 282 1246 613 z "},"Ō":{"ha":1144,"x_min":0,"x_max":0,"o":"m 700 725 b 694 235 721 550 706 382 b 438 231 642 210 511 213 b 465 710 435 304 442 660 b 700 725 533 731 650 735 z m 1088 738 b 881 969 1039 814 946 914 b 160 919 697 988 346 976 b 40 217 74 763 38 385 b 193 -4 64 149 147 43 b 985 26 418 -44 813 -10 b 1088 738 1086 197 1104 482 z m 888 1046 b 881 1244 899 1089 890 1201 b 325 1242 774 1254 439 1247 b 321 1025 307 1199 294 1097 b 888 1046 501 1042 706 1036 z "},"ō":{"ha":992,"x_min":0,"x_max":0,"o":"m 611 250 b 379 231 568 235 439 218 b 400 624 369 324 379 583 b 608 638 474 649 539 644 b 611 250 626 497 614 358 z m 925 706 b 747 840 899 738 804 801 b 131 804 611 872 267 839 b 46 201 58 633 42 413 b 285 -12 108 111 199 22 b 876 49 432 -15 629 -11 b 925 706 944 188 950 588 z m 761 931 b 756 1108 772 969 764 1069 b 256 1106 658 1117 357 1111 b 251 911 239 1068 228 976 b 761 931 414 926 599 921 z "},"Ŏ":{"ha":1144,"x_min":0,"x_max":0,"o":"m 700 725 b 694 235 721 550 706 382 b 438 231 642 210 511 213 b 465 710 435 304 442 660 b 700 725 533 731 650 735 z m 1088 738 b 881 969 1039 814 946 914 b 160 919 697 988 346 976 b 40 217 74 763 38 385 b 193 -4 64 149 147 43 b 985 26 418 -44 813 -10 b 1088 738 1086 197 1104 482 z m 890 1224 b 685 1253 871 1228 776 1260 b 578 1171 675 1233 615 1171 b 474 1250 558 1171 494 1213 b 271 1211 458 1254 349 1231 b 433 1049 322 1143 357 1106 b 731 1053 481 1013 661 1006 b 890 1224 819 1114 857 1151 z "},"ŏ":{"ha":992,"x_min":0,"x_max":0,"o":"m 611 250 b 379 231 568 235 439 218 b 400 624 369 324 379 583 b 608 638 474 649 539 644 b 611 250 626 497 614 358 z m 925 706 b 747 840 899 738 804 801 b 131 804 611 872 267 839 b 46 201 58 633 42 413 b 285 -12 108 111 199 22 b 876 49 432 -15 629 -11 b 925 706 944 188 950 588 z m 776 1090 b 592 1117 758 1094 674 1122 b 494 1043 582 1099 528 1043 b 401 1114 478 1042 419 1081 b 218 1079 388 1117 289 1096 b 365 932 265 1018 296 983 b 632 936 408 900 571 893 b 776 1090 713 992 746 1025 z "},"Ő":{"ha":1144,"x_min":0,"x_max":0,"o":"m 700 725 b 694 235 721 550 706 382 b 438 231 642 210 511 213 b 465 710 435 304 442 660 b 700 725 533 731 650 735 z m 1088 738 b 881 969 1039 814 946 914 b 160 919 697 988 346 976 b 40 217 74 763 38 385 b 193 -4 64 149 147 43 b 985 26 418 -44 813 -10 b 1088 738 1086 197 1104 482 z m 668 1263 b 439 1275 600 1285 522 1290 b 393 1038 433 1222 424 1115 b 535 1032 435 1026 493 1026 b 668 1263 583 1085 628 1178 z m 981 1244 b 750 1274 917 1272 838 1282 b 640 1050 729 1225 692 1122 b 783 1035 679 1036 740 1033 b 981 1244 847 1081 917 1167 z "},"ő":{"ha":992,"x_min":0,"x_max":0,"o":"m 611 250 b 379 231 568 235 439 218 b 400 624 369 324 379 583 b 608 638 474 649 539 644 b 611 250 626 497 614 358 z m 925 706 b 747 840 899 738 804 801 b 131 804 611 872 267 839 b 46 201 58 633 42 413 b 285 -12 108 111 199 22 b 876 49 432 -15 629 -11 b 925 706 944 188 950 588 z m 546 1108 b 340 1119 483 1129 414 1133 b 299 906 335 1072 325 976 b 425 900 336 896 389 896 b 546 1108 469 949 508 1032 z m 828 1092 b 619 1119 769 1117 699 1126 b 521 917 601 1074 567 982 b 649 903 556 906 610 901 b 828 1092 707 946 769 1022 z "},"Ŕ":{"ha":1092,"x_min":0,"x_max":0,"o":"m 663 714 b 618 507 671 656 663 581 b 456 488 565 490 515 489 b 453 725 444 539 447 653 b 663 714 501 733 631 746 z m 1043 44 b 879 357 1026 82 917 296 b 1028 740 957 481 1017 619 b 829 964 986 835 896 931 b 63 946 607 978 160 975 b 38 736 47 890 39 801 b 114 732 63 732 96 732 b 128 -19 110 493 108 222 b 449 -1 260 -32 390 -18 b 456 225 453 64 457 160 b 536 238 493 242 494 238 b 728 -24 599 156 661 53 b 1043 44 828 -19 993 15 z m 806 1278 b 542 1308 731 1308 640 1318 b 436 1054 522 1251 488 1138 b 599 1039 482 1040 550 1038 b 806 1278 668 1093 739 1190 z "},"ŕ":{"ha":975,"x_min":0,"x_max":0,"o":"m 593 461 b 386 410 549 418 442 411 b 385 613 376 454 379 549 b 574 640 419 635 543 651 b 593 461 576 626 599 507 z m 931 25 b 779 297 915 58 814 244 b 925 442 838 349 896 408 b 771 869 940 597 849 807 b 376 831 672 874 478 856 l 376 897 b 86 875 272 908 131 888 b 83 -31 57 778 71 118 b 381 -14 206 -42 326 -28 b 383 157 385 43 379 89 l 465 179 b 625 -33 529 101 594 0 b 931 25 717 -31 885 0 z m 774 1183 b 510 1214 699 1214 610 1224 b 406 960 492 1157 457 1043 b 568 944 451 946 519 943 b 774 1183 636 999 708 1096 z "},"Ŗ":{"ha":1092,"x_min":0,"x_max":0,"o":"m 663 793 b 618 563 671 728 663 646 b 456 542 565 544 515 543 b 453 806 444 599 447 725 b 663 793 501 815 631 828 z m 736 -83 b 472 -53 661 -53 571 -43 b 367 -307 453 -110 418 -224 b 529 -322 413 -321 481 -324 b 736 -83 599 -268 669 -171 z m 1043 49 b 879 396 1026 90 917 328 b 1028 822 957 533 1017 688 b 829 1071 986 928 896 1033 b 63 1051 607 1088 160 1083 b 38 818 47 989 39 890 b 114 813 63 813 96 814 b 128 -22 110 549 108 246 b 449 -1 260 -36 390 -19 b 456 250 453 71 457 176 b 536 264 493 269 494 264 b 728 -26 599 172 661 58 b 1043 49 828 -22 993 17 z "},"ŗ":{"ha":975,"x_min":0,"x_max":0,"o":"m 593 461 b 386 410 549 418 442 411 b 385 613 376 454 379 549 b 574 640 419 635 543 651 b 593 461 576 626 599 507 z m 647 -90 b 410 -62 579 -64 499 -54 b 315 -292 393 -114 361 -217 b 461 -306 356 -304 418 -307 b 647 -90 524 -257 588 -169 z m 931 25 b 779 297 915 58 814 244 b 925 442 838 349 896 408 b 771 869 940 597 849 807 b 376 831 672 874 478 856 l 376 897 b 86 875 272 908 131 888 b 83 -31 57 778 71 118 b 381 -14 206 -42 326 -28 b 383 157 385 43 379 89 l 465 179 b 625 -33 529 101 594 0 b 931 25 717 -31 885 0 z "},"Ř":{"ha":1092,"x_min":0,"x_max":0,"o":"m 663 714 b 618 507 671 656 663 581 b 456 488 565 490 515 489 b 453 725 444 539 447 653 b 663 714 501 733 631 746 z m 1043 44 b 879 357 1026 82 917 296 b 1028 740 957 481 1017 619 b 829 964 986 835 896 931 b 681 971 786 967 736 968 b 794 1207 726 1050 769 1142 b 607 1213 776 1213 690 1219 b 535 1086 590 1169 558 1124 b 510 1065 532 1081 524 1065 b 493 1082 500 1065 496 1078 b 414 1208 478 1103 436 1168 b 231 1193 400 1213 293 1199 b 361 971 268 1133 318 1046 b 63 946 225 968 107 960 b 38 736 47 890 39 801 b 114 732 63 732 96 732 b 128 -19 110 493 108 222 b 449 -1 260 -32 390 -18 b 456 225 453 64 457 160 b 536 238 493 242 494 238 b 728 -24 599 156 661 53 b 1043 44 828 -19 993 15 z "},"ř":{"ha":975,"x_min":0,"x_max":0,"o":"m 593 461 b 386 410 549 418 442 411 b 385 613 376 454 379 549 b 574 640 419 635 543 651 b 593 461 576 626 599 507 z m 931 25 b 779 297 915 58 814 244 b 925 442 838 349 896 408 b 771 869 940 597 849 807 b 376 831 672 874 478 856 l 376 897 b 86 875 272 908 131 888 b 83 -31 57 778 71 118 b 381 -14 206 -42 326 -28 b 383 157 385 43 379 89 l 465 179 b 625 -33 529 101 594 0 b 931 25 717 -31 885 0 z m 718 1197 b 550 1201 701 1201 625 1207 b 485 1096 533 1165 506 1128 b 461 1079 482 1092 474 1079 b 446 1093 453 1079 449 1089 b 376 1199 433 1110 394 1164 b 211 1186 364 1201 267 1190 b 356 953 253 1122 315 1021 b 586 956 397 950 535 949 b 718 1197 638 1031 690 1129 z "},"Ś":{"ha":922,"x_min":0,"x_max":0,"o":"m 849 772 b 826 996 850 842 849 931 b 132 897 600 1004 347 975 b 44 433 65 757 38 593 b 468 343 128 381 414 382 b 460 257 471 315 467 276 b 82 188 396 225 208 194 b 122 -49 79 147 93 8 b 800 82 319 -32 600 6 b 846 521 863 192 899 403 b 438 589 710 544 574 564 b 469 725 439 636 444 685 b 849 772 594 749 722 754 z m 750 1278 b 486 1308 675 1308 585 1318 b 381 1054 467 1251 432 1138 b 543 1039 426 1040 494 1038 b 750 1278 613 1093 683 1190 z "},"ś":{"ha":858,"x_min":0,"x_max":0,"o":"m 778 697 b 757 886 779 756 776 831 b 133 803 554 893 326 868 b 54 378 74 683 49 511 b 435 275 129 332 386 308 b 428 196 438 251 433 214 b 88 138 371 169 201 143 b 125 -62 85 104 100 -46 b 747 79 331 -40 557 -8 b 775 451 804 171 822 351 b 408 536 653 471 531 515 b 436 657 410 576 414 624 b 778 697 549 676 664 681 z m 732 1183 b 468 1214 657 1214 568 1224 b 364 960 450 1157 415 1043 b 526 944 410 946 478 943 b 732 1183 594 999 667 1096 z "},"Ŝ":{"ha":922,"x_min":0,"x_max":0,"o":"m 849 772 b 826 996 850 842 849 931 b 132 897 600 1004 347 975 b 44 433 65 757 38 593 b 468 343 128 381 414 382 b 460 257 471 315 467 276 b 82 188 396 225 208 194 b 122 -49 79 147 93 8 b 800 82 319 -32 600 6 b 846 521 863 192 899 403 b 438 589 710 544 574 564 b 469 725 439 636 444 685 b 849 772 594 749 722 754 z m 793 1053 b 631 1333 746 1131 676 1251 b 375 1329 585 1336 432 1338 b 229 1040 318 1240 260 1121 b 417 1035 247 1035 333 1028 b 489 1160 433 1076 465 1124 b 514 1182 492 1167 500 1182 b 531 1165 524 1182 528 1169 b 610 1038 546 1143 588 1079 b 793 1053 624 1033 731 1047 z "},"ŝ":{"ha":858,"x_min":0,"x_max":0,"o":"m 778 697 b 757 886 779 756 776 831 b 133 803 554 893 326 868 b 54 378 74 683 49 511 b 435 275 129 332 386 308 b 428 196 438 251 433 214 b 88 138 371 169 201 143 b 125 -62 85 104 100 -46 b 747 79 331 -40 557 -8 b 775 451 804 171 822 351 b 408 536 653 471 531 515 b 436 657 410 576 414 624 b 778 697 549 676 664 681 z m 733 944 b 572 1224 686 1021 617 1142 b 317 1219 525 1226 374 1228 b 169 931 258 1131 200 1011 b 357 925 188 925 274 918 b 429 1051 375 967 406 1014 b 454 1072 432 1057 442 1072 b 471 1056 464 1072 468 1060 b 550 929 486 1035 528 969 b 733 944 564 925 671 939 z "},"Ş":{"ha":922,"x_min":0,"x_max":0,"o":"m 849 858 b 826 1107 850 936 849 1035 b 132 997 600 1115 347 1083 b 44 482 65 840 38 658 b 468 381 128 422 414 425 b 460 285 471 350 467 308 b 82 208 396 250 208 217 b 122 -54 79 164 93 10 b 388 -19 201 -47 293 -36 b 371 -101 385 -54 379 -83 b 172 -144 333 -131 238 -136 b 193 -282 171 -185 179 -269 b 594 -235 306 -281 488 -281 b 636 35 626 -189 636 -71 b 800 92 694 51 750 69 b 846 579 863 213 899 447 b 438 654 710 604 574 626 b 469 806 439 707 444 761 b 849 858 594 832 722 838 z "},"ş":{"ha":858,"x_min":0,"x_max":0,"o":"m 778 697 b 757 886 779 756 776 831 b 133 803 554 893 326 868 b 54 378 74 683 49 511 b 435 275 129 332 386 308 b 428 196 438 251 433 214 b 88 138 371 169 201 143 b 125 -62 85 104 100 -46 b 376 -28 207 -54 292 -43 b 360 -110 374 -62 369 -92 b 182 -149 326 -136 240 -142 b 200 -272 181 -186 188 -262 b 561 -231 301 -271 465 -272 b 599 24 592 -187 600 -75 b 747 79 650 39 700 57 b 775 451 804 171 822 351 b 408 536 653 471 531 515 b 436 657 410 576 414 624 b 778 697 549 676 664 681 z "},"Ţ":{"ha":1004,"x_min":0,"x_max":0,"o":"m 961 1060 b 64 1026 868 1079 142 1065 b 39 742 42 935 35 829 b 317 756 118 750 232 764 b 335 -26 315 472 308 289 b 499 -21 389 -31 444 -28 b 482 -101 496 -54 490 -83 b 283 -144 444 -131 349 -136 b 304 -282 282 -185 290 -269 b 706 -235 417 -281 599 -281 b 743 163 751 -168 751 49 b 672 172 728 165 703 168 b 713 790 678 396 694 700 b 947 811 792 796 869 800 b 961 1060 957 867 968 988 z "},"ţ":{"ha":904,"x_min":0,"x_max":0,"o":"m 864 782 b 617 789 835 788 735 790 b 619 1058 618 857 619 1014 b 276 1018 533 1060 378 1057 b 264 781 267 950 264 846 b 57 757 142 775 82 768 b 35 540 36 688 31 607 b 261 551 107 546 185 558 b 278 -21 260 336 253 219 b 446 -15 328 -25 388 -21 b 429 -97 443 -50 439 -79 b 251 -136 396 -122 310 -128 b 269 -260 250 -172 257 -249 b 631 -217 371 -258 535 -258 b 665 140 672 -157 672 39 b 607 149 653 143 631 146 b 624 576 606 310 608 510 b 853 593 694 581 782 585 b 864 782 861 635 871 728 z "},"Ť":{"ha":1004,"x_min":0,"x_max":0,"o":"m 961 954 b 683 961 928 960 817 963 b 794 1193 728 1040 771 1129 b 607 1199 776 1199 690 1206 b 535 1072 590 1156 558 1110 b 510 1051 532 1067 524 1051 b 493 1068 500 1051 496 1064 b 414 1194 478 1089 436 1154 b 231 1179 400 1199 293 1185 b 363 954 268 1118 319 1029 b 64 924 215 947 93 938 b 39 668 42 842 35 746 b 317 681 118 675 232 688 b 335 -24 315 425 308 260 b 671 7 446 -32 560 -11 b 713 711 668 190 690 607 b 947 731 792 717 869 721 b 961 954 957 779 968 889 z "},"ť":{"ha":904,"x_min":0,"x_max":0,"o":"m 864 782 b 617 789 835 788 735 790 b 619 1058 618 857 619 1014 b 276 1018 533 1060 378 1057 b 264 781 267 950 264 846 b 57 757 142 775 82 768 b 35 540 36 688 31 607 b 261 551 107 546 185 558 b 278 -21 260 336 253 219 b 608 7 378 -28 508 -8 b 624 576 606 161 604 488 b 853 593 694 581 782 585 b 864 782 861 635 871 728 z m 1035 1144 b 771 1174 960 1174 871 1185 b 665 921 753 1118 718 1003 b 829 904 711 906 781 903 b 1035 1144 897 958 969 1056 z "},"Ŧ":{"ha":1004,"x_min":0,"x_max":0,"o":"m 961 1060 b 64 1026 868 1079 142 1065 b 39 742 42 935 35 829 b 317 756 118 750 232 764 b 315 579 317 693 315 635 b 207 575 271 578 233 576 b 201 358 186 532 172 431 b 315 365 239 361 276 364 b 335 -26 317 249 322 126 b 671 8 446 -36 560 -11 b 679 374 669 97 674 236 b 847 379 736 375 793 376 b 840 578 861 422 851 535 b 692 582 806 581 753 582 b 713 790 697 675 706 751 b 947 811 792 796 869 800 b 961 1060 957 867 968 988 z "},"ŧ":{"ha":904,"x_min":0,"x_max":0,"o":"m 864 782 b 617 789 835 788 735 790 b 619 1058 618 857 619 1014 b 276 1018 533 1060 378 1057 b 264 781 267 950 264 846 b 57 757 142 775 82 768 b 35 540 36 688 31 607 b 261 551 107 546 185 558 b 260 461 261 519 261 490 b 143 458 213 461 171 460 b 138 258 122 418 110 325 b 260 265 178 261 218 263 b 278 -21 261 182 267 94 b 608 7 378 -28 508 -8 b 607 272 607 74 606 174 b 754 278 657 274 707 275 b 747 461 767 317 758 421 b 613 465 717 463 668 464 b 624 576 615 514 618 553 b 853 593 694 581 782 585 b 864 782 861 635 871 728 z "},"Ũ":{"ha":1082,"x_min":0,"x_max":0,"o":"m 1014 943 b 657 922 890 940 775 949 b 660 292 654 742 658 490 b 426 267 608 243 488 240 b 425 919 414 461 406 653 b 75 917 299 936 194 931 b 72 208 57 786 71 365 b 204 -1 92 151 164 40 b 871 7 403 -19 701 3 b 1008 225 921 67 988 163 b 1014 943 1003 415 1010 728 z m 879 1185 b 786 1258 860 1217 824 1242 b 658 1188 786 1258 718 1163 b 415 1269 567 1224 483 1299 b 236 1064 350 1240 276 1138 b 332 994 250 1040 283 1015 b 407 1063 354 1024 388 1056 b 656 982 436 1075 576 989 b 879 1185 728 976 849 1147 z "},"ũ":{"ha":978,"x_min":0,"x_max":0,"o":"m 913 849 b 592 832 814 857 697 854 b 593 311 589 679 592 479 b 385 278 549 278 444 271 b 410 860 385 471 392 635 b 94 818 325 858 167 843 b 51 182 78 708 50 314 b 197 -1 69 133 161 33 b 608 50 354 13 501 22 l 611 -17 b 907 18 697 -19 868 -4 b 913 849 901 179 908 667 z m 849 1119 b 756 1192 829 1150 793 1176 b 626 1122 756 1192 688 1097 b 385 1203 536 1158 453 1232 b 206 999 319 1175 246 1072 b 300 929 219 975 253 950 b 375 997 324 957 357 990 b 625 917 404 1010 544 922 b 849 1119 697 911 818 1082 z "},"Ū":{"ha":1082,"x_min":0,"x_max":0,"o":"m 1014 943 b 657 922 890 940 775 949 b 660 292 654 742 658 490 b 426 267 608 243 488 240 b 425 919 414 461 406 653 b 75 917 299 936 194 931 b 72 208 57 786 71 365 b 204 -1 92 151 164 40 b 871 7 403 -19 701 3 b 1008 225 921 67 988 163 b 1014 943 1003 415 1010 728 z m 846 1018 b 839 1217 857 1061 849 1174 b 283 1214 732 1226 397 1219 b 279 997 265 1171 253 1069 b 846 1018 460 1014 664 1008 z "},"ū":{"ha":978,"x_min":0,"x_max":0,"o":"m 913 849 b 592 832 814 857 697 854 b 593 311 589 679 592 479 b 385 278 549 278 444 271 b 410 860 385 471 392 635 b 94 818 325 858 167 843 b 51 182 78 708 50 314 b 197 -1 69 133 161 33 b 608 50 354 13 501 22 l 611 -17 b 907 18 697 -19 868 -4 b 913 849 901 179 908 667 z m 775 931 b 769 1108 786 969 778 1069 b 269 1106 672 1117 371 1111 b 265 911 253 1068 242 976 b 775 931 428 926 613 921 z "},"Ŭ":{"ha":1082,"x_min":0,"x_max":0,"o":"m 1014 943 b 657 922 890 940 775 949 b 660 292 654 742 658 490 b 426 267 608 243 488 240 b 425 919 414 461 406 653 b 75 917 299 936 194 931 b 72 208 57 786 71 365 b 204 -1 92 151 164 40 b 871 7 403 -19 701 3 b 1008 225 921 67 988 163 b 1014 943 1003 415 1010 728 z m 863 1196 b 657 1225 843 1200 749 1232 b 550 1143 647 1206 588 1143 b 446 1222 531 1143 467 1185 b 243 1183 431 1226 321 1203 b 406 1021 294 1115 329 1078 b 703 1025 453 985 633 978 b 863 1196 792 1086 829 1124 z "},"ŭ":{"ha":978,"x_min":0,"x_max":0,"o":"m 913 849 b 592 832 814 857 697 854 b 593 311 589 679 592 479 b 385 278 549 278 444 271 b 410 860 385 471 392 635 b 94 818 325 858 167 843 b 51 182 78 708 50 314 b 197 -1 69 133 161 33 b 608 50 354 13 501 22 l 611 -17 b 907 18 697 -19 868 -4 b 913 849 901 179 908 667 z m 776 1090 b 592 1117 758 1094 674 1122 b 494 1043 582 1099 528 1043 b 401 1114 478 1042 419 1081 b 218 1079 388 1117 289 1096 b 365 932 265 1018 296 983 b 632 936 408 900 571 893 b 776 1090 713 992 746 1025 z "},"Ů":{"ha":1082,"x_min":0,"x_max":0,"o":"m 639 1165 b 636 1104 639 1144 638 1124 b 542 1089 611 1092 572 1089 b 504 1092 529 1089 517 1090 b 503 1114 503 1099 503 1107 b 508 1204 503 1144 500 1174 b 619 1215 542 1214 583 1215 l 631 1215 b 639 1165 636 1199 639 1182 z m 1014 943 b 657 922 890 940 775 949 b 660 292 654 742 658 490 b 426 267 608 243 488 240 b 425 919 414 461 406 653 b 75 917 299 936 194 931 b 72 208 57 786 71 365 b 204 -1 92 151 164 40 b 871 7 403 -19 701 3 b 1008 225 921 67 988 163 b 1014 943 1003 415 1010 728 z m 824 1238 b 681 1332 821 1267 721 1326 b 333 1279 607 1343 381 1314 b 301 1079 313 1218 299 1150 b 414 976 303 1056 361 985 b 799 1029 515 958 754 986 b 824 1238 821 1074 831 1164 z "},"ů":{"ha":978,"x_min":0,"x_max":0,"o":"m 585 1085 b 582 1026 585 1065 582 1046 b 493 1014 558 1015 522 1014 b 457 1015 481 1014 468 1014 b 456 1036 456 1022 456 1029 b 461 1122 456 1065 453 1093 b 565 1133 492 1131 532 1133 l 576 1133 b 585 1085 582 1117 585 1101 z m 913 849 b 592 832 814 857 697 854 b 593 311 589 679 592 479 b 385 278 549 278 444 271 b 410 860 385 471 392 635 b 94 818 325 858 167 843 b 51 182 78 708 50 314 b 197 -1 69 133 161 33 b 608 50 354 13 501 22 l 611 -17 b 907 18 697 -19 868 -4 b 913 849 901 179 908 667 z m 758 1153 b 624 1243 756 1181 661 1238 b 296 1192 554 1253 340 1225 b 267 1003 275 1135 263 1071 b 371 906 267 982 322 914 b 735 956 467 889 693 915 b 758 1153 756 999 764 1083 z "},"Ű":{"ha":1082,"x_min":0,"x_max":0,"o":"m 1014 943 b 657 922 890 940 775 949 b 660 292 654 742 658 490 b 426 267 608 243 488 240 b 425 919 414 461 406 653 b 75 917 299 936 194 931 b 72 208 57 786 71 365 b 204 -1 92 151 164 40 b 871 7 403 -19 701 3 b 1008 225 921 67 988 163 b 1014 943 1003 415 1010 728 z m 599 1221 b 369 1233 531 1243 453 1249 b 324 996 364 1181 354 1074 b 465 990 365 985 424 985 b 599 1221 514 1043 558 1136 z m 911 1203 b 681 1232 847 1231 768 1240 b 571 1008 660 1183 622 1081 b 714 993 610 994 671 992 b 911 1203 778 1039 847 1125 z "},"ű":{"ha":978,"x_min":0,"x_max":0,"o":"m 913 849 b 592 832 814 857 697 854 b 593 311 589 679 592 479 b 385 278 549 278 444 271 b 410 860 385 471 392 635 b 94 818 325 858 167 843 b 51 182 78 708 50 314 b 197 -1 69 133 161 33 b 608 50 354 13 501 22 l 611 -17 b 907 18 697 -19 868 -4 b 913 849 901 179 908 667 z m 560 1122 b 354 1133 497 1143 428 1147 b 313 919 349 1086 339 990 b 439 914 350 910 403 910 b 560 1122 483 963 522 1046 z m 842 1106 b 633 1133 783 1131 713 1140 b 535 931 615 1088 581 996 b 663 917 569 919 624 915 b 842 1106 721 960 783 1036 z "},"Ų":{"ha":1082,"x_min":0,"x_max":0,"o":"m 1014 943 b 657 922 890 940 775 949 b 660 292 654 742 658 490 b 426 267 608 243 488 240 b 425 919 414 461 406 653 b 75 917 299 936 194 931 b 72 208 57 786 71 365 b 204 -1 92 151 164 40 b 403 -8 264 -7 332 -8 b 401 -61 401 -25 401 -42 b 433 -207 401 -110 406 -165 b 835 -254 542 -253 717 -253 b 856 -125 851 -239 856 -149 l 856 -117 b 657 -74 804 -110 697 -104 b 644 -18 649 -56 644 -37 b 644 -1 644 -12 644 -7 b 871 7 729 1 808 6 b 1008 225 921 67 988 163 b 1014 943 1003 415 1010 728 z "},"ų":{"ha":978,"x_min":0,"x_max":0,"o":"m 913 849 b 592 832 814 857 697 854 b 593 311 589 679 592 479 b 385 278 549 278 444 271 b 410 860 385 471 392 635 b 94 818 325 858 167 843 b 51 182 78 708 50 314 b 197 -1 69 133 161 33 b 442 21 283 6 365 13 b 438 -49 439 -1 438 -22 b 467 -179 438 -92 442 -142 b 828 -222 564 -221 721 -221 b 847 -106 843 -208 847 -128 l 847 -99 b 668 -60 801 -93 704 -86 b 657 -17 661 -46 658 -32 b 907 18 747 -14 874 -1 b 913 849 901 179 908 667 z "},"Ŵ":{"ha":1453,"x_min":0,"x_max":0,"o":"m 1429 968 b 1149 968 1329 978 1233 985 b 1100 582 1135 839 1118 707 l 1050 586 b 928 958 1011 713 969 835 b 617 958 828 976 719 968 b 488 544 582 853 532 654 l 450 544 b 378 949 428 679 406 814 b 43 939 258 969 149 956 b 207 -19 104 618 132 300 b 619 -19 353 -28 458 -33 b 721 354 656 124 701 288 l 781 354 b 847 -15 794 297 839 24 b 1285 0 1000 -17 1125 -11 b 1429 968 1322 188 1415 672 z m 1043 1039 b 881 1319 996 1117 926 1238 b 625 1315 835 1322 682 1324 b 479 1026 568 1226 510 1107 b 667 1021 497 1021 583 1014 b 739 1146 683 1063 715 1110 b 764 1168 742 1153 750 1168 b 781 1151 774 1168 778 1156 b 860 1024 796 1129 838 1065 b 1043 1039 874 1019 981 1033 z "},"ŵ":{"ha":1322,"x_min":0,"x_max":0,"o":"m 1286 869 b 1021 869 1196 878 1097 885 b 976 479 1008 761 993 585 l 935 472 b 821 863 899 588 860 754 b 542 863 731 878 633 871 b 429 458 511 776 468 561 l 389 457 b 326 868 368 569 336 696 b 39 846 219 885 133 861 b 186 -31 54 546 118 240 b 544 -29 318 -37 399 -40 b 635 285 578 92 618 229 l 689 285 b 749 -25 701 238 740 7 b 1156 -12 886 -26 1011 -22 b 1286 869 1189 146 1274 621 z m 956 944 b 794 1224 908 1021 839 1142 b 539 1219 747 1226 596 1228 b 392 931 481 1131 422 1011 b 579 925 410 925 496 918 b 651 1051 597 967 628 1014 b 676 1072 654 1057 664 1072 b 693 1056 686 1072 690 1060 b 772 929 708 1035 750 969 b 956 944 786 925 893 939 z "},"Ŷ":{"ha":1071,"x_min":0,"x_max":0,"o":"m 1040 951 b 729 968 1007 960 882 978 b 546 657 700 918 596 703 b 375 969 492 714 383 938 b 40 951 350 976 154 958 b 346 372 72 821 249 490 b 354 0 350 249 354 124 b 676 7 453 -1 576 -12 b 685 360 681 110 683 232 b 1040 951 800 542 935 793 z m 849 1039 b 686 1319 801 1117 732 1238 b 431 1315 640 1322 488 1324 b 285 1026 374 1226 315 1107 b 472 1021 303 1021 389 1014 b 544 1146 489 1063 521 1110 b 569 1168 547 1153 556 1168 b 586 1151 579 1168 583 1156 b 665 1024 601 1129 643 1065 b 849 1039 679 1019 786 1033 z "},"ŷ":{"ha":964,"x_min":0,"x_max":0,"o":"m 926 868 b 613 857 819 886 689 871 b 489 601 575 775 539 708 b 357 850 418 714 368 819 b 36 807 244 847 138 850 b 342 317 60 738 221 465 b 356 -39 340 210 344 136 b 636 -19 399 -43 603 -37 b 657 321 646 171 653 218 b 926 868 792 560 858 710 z m 775 944 b 614 1224 728 1021 658 1142 b 358 1219 567 1226 415 1228 b 211 931 300 1131 242 1011 b 399 925 229 925 315 918 b 471 1051 417 967 447 1014 b 496 1072 474 1057 483 1072 b 513 1056 506 1072 510 1060 b 592 929 528 1035 569 969 b 775 944 606 925 713 939 z "},"Ź":{"ha":861,"x_min":0,"x_max":0,"o":"m 806 183 b 428 193 707 193 528 182 b 788 744 546 368 669 517 b 785 967 799 807 789 904 b 54 969 543 1024 203 976 b 74 772 51 899 54 836 b 429 765 186 754 314 769 b 43 194 361 644 179 379 b 83 -18 36 146 57 47 b 789 -7 278 -28 554 -39 b 806 183 804 58 811 121 z m 722 1292 b 458 1322 647 1322 557 1332 b 353 1068 439 1265 404 1151 b 515 1053 399 1054 467 1051 b 722 1292 585 1107 656 1204 z "},"ź":{"ha":760,"x_min":0,"x_max":0,"o":"m 711 168 b 378 175 625 176 465 167 b 694 664 482 326 590 468 b 693 856 704 718 696 803 b 47 858 479 906 182 876 b 65 667 44 799 47 721 b 379 661 164 651 278 665 b 38 157 319 557 157 315 b 75 -26 32 114 53 29 b 696 -17 247 -36 489 -44 b 711 168 710 39 717 114 z m 635 1183 b 371 1214 560 1214 471 1224 b 267 960 353 1157 318 1043 b 429 944 313 946 381 943 b 635 1183 497 999 569 1096 z "},"Ż":{"ha":861,"x_min":0,"x_max":0,"o":"m 806 183 b 428 193 707 193 528 182 b 788 744 546 368 669 517 b 785 967 799 807 789 904 b 54 969 543 1024 203 976 b 74 772 51 899 54 836 b 429 765 186 754 314 769 b 43 194 361 644 179 379 b 83 -18 36 146 57 47 b 789 -7 278 -28 554 -39 b 806 183 804 58 811 121 z m 567 1156 b 479 1258 567 1193 519 1258 b 354 1229 461 1258 379 1250 b 324 1122 332 1210 324 1161 b 408 1044 324 1079 385 1044 b 556 1092 440 1044 543 1053 b 567 1156 563 1111 567 1133 z "},"ż":{"ha":760,"x_min":0,"x_max":0,"o":"m 711 168 b 378 175 625 176 465 167 b 694 664 482 326 590 468 b 693 856 704 718 696 803 b 47 858 479 906 182 876 b 65 667 44 799 47 721 b 379 661 164 651 278 665 b 38 157 319 557 157 315 b 75 -26 32 114 53 29 b 696 -17 247 -36 489 -44 b 711 168 710 39 717 114 z m 500 1036 b 422 1128 500 1069 458 1128 b 308 1101 404 1128 331 1121 b 282 1006 289 1085 282 1040 b 358 936 282 967 336 936 b 490 978 386 936 479 943 b 500 1036 496 996 500 1017 z "},"ſ":{"ha":781,"x_min":0,"x_max":0,"o":"m 736 893 b 736 1076 750 974 740 1043 b 125 949 661 1111 211 1081 b 101 3 110 803 75 168 b 419 18 214 -19 347 1 b 425 849 399 214 394 742 b 736 893 528 893 626 890 z "},"Ș":{"ha":922,"x_min":0,"x_max":0,"o":"m 708 -83 b 444 -53 633 -53 543 -43 b 339 -307 425 -110 390 -224 b 501 -322 385 -321 453 -324 b 708 -83 571 -268 642 -171 z m 849 858 b 826 1107 850 936 849 1035 b 132 997 600 1115 347 1083 b 44 482 65 840 38 658 b 468 381 128 422 414 425 b 460 285 471 350 467 308 b 82 208 396 250 208 217 b 122 -54 79 164 93 10 b 800 92 319 -36 600 6 b 846 579 863 213 899 447 b 438 654 710 604 574 626 b 469 806 439 707 444 761 b 849 858 594 832 722 838 z "},"ș":{"ha":858,"x_min":0,"x_max":0,"o":"m 647 -90 b 410 -62 579 -64 499 -54 b 315 -292 393 -114 361 -217 b 461 -306 356 -304 418 -307 b 647 -90 524 -257 588 -169 z m 778 697 b 757 886 779 756 776 831 b 133 803 554 893 326 868 b 54 378 74 683 49 511 b 435 275 129 332 386 308 b 428 196 438 251 433 214 b 88 138 371 169 201 143 b 125 -62 85 104 100 -46 b 747 79 331 -40 557 -8 b 775 451 804 171 822 351 b 408 536 653 471 531 515 b 436 657 410 576 414 624 b 778 697 549 676 664 681 z "},"Ț":{"ha":1004,"x_min":0,"x_max":0,"o":"m 681 -111 b 417 -81 606 -81 515 -71 b 311 -335 397 -137 363 -251 b 474 -350 357 -349 425 -351 b 681 -111 543 -296 614 -199 z m 961 1060 b 64 1026 868 1079 142 1065 b 39 742 42 935 35 829 b 317 756 118 750 232 764 b 335 -26 315 472 308 289 b 671 8 446 -36 560 -11 b 713 790 668 211 690 674 b 947 811 792 796 869 800 b 961 1060 957 867 968 988 z "},"ț":{"ha":904,"x_min":0,"x_max":0,"o":"m 592 -90 b 354 -62 524 -64 443 -54 b 260 -292 338 -114 306 -217 b 406 -306 300 -304 363 -307 b 592 -90 468 -257 532 -169 z m 864 782 b 617 789 835 788 735 790 b 619 1058 618 857 619 1014 b 276 1018 533 1060 378 1057 b 264 781 267 950 264 846 b 57 757 142 775 82 768 b 35 540 36 688 31 607 b 261 551 107 546 185 558 b 278 -21 260 336 253 219 b 608 7 378 -28 508 -8 b 624 576 606 161 604 488 b 853 593 694 581 782 585 b 864 782 861 635 871 728 z "},"ȷ":{"ha":479,"x_min":0,"x_max":0,"o":"m 396 814 b 78 799 283 836 149 817 b 72 -32 97 603 101 75 b -239 -76 -31 -76 -131 -72 b -239 -260 -253 -157 -243 -226 b 372 -132 -164 -294 286 -264 b 396 814 388 14 422 649 z "},"ˉ":{"ha":1128,"x_min":0,"x_max":0,"o":"m 860 1060 b 853 1258 871 1103 863 1215 b 297 1256 746 1268 411 1261 b 293 1039 279 1213 267 1111 b 860 1060 474 1056 678 1050 z "},"Δ":{"ha":1019,"x_min":0,"x_max":0,"o":"m 603 250 b 386 247 533 250 456 249 b 457 522 418 367 449 482 b 486 575 460 538 471 575 b 531 510 510 575 525 529 b 603 250 554 424 579 339 z m 986 1 b 672 1060 922 296 789 782 b 335 1067 565 1072 442 1072 b 21 -4 263 829 117 288 b 986 1 296 -39 758 -24 z "},"Ω":{"ha":1140,"x_min":0,"x_max":0,"o":"m 1067 249 b 956 254 1049 253 1006 254 b 1050 832 1008 364 1056 569 b 872 1075 1001 913 938 1017 b 228 1040 807 1072 419 1081 b 67 840 171 978 118 900 b 169 251 47 592 110 364 b 53 236 122 250 71 239 b 63 -26 43 182 49 65 b 463 -11 165 -28 361 -24 b 485 228 478 53 485 144 b 447 771 436 406 431 615 b 675 779 517 804 617 797 b 629 225 689 636 678 425 b 674 -26 625 135 644 53 b 1049 -11 771 -32 947 -24 b 1067 249 1056 43 1072 194 z "},"μ":{"ha":1067,"x_min":0,"x_max":0,"o":"m 994 1058 b 663 1049 960 1065 738 1060 b 651 507 669 907 668 606 b 406 514 596 492 426 496 b 428 1053 397 681 418 885 b 94 1036 379 1057 122 1060 b 103 -24 81 681 83 315 b 383 0 150 -29 347 -22 b 396 228 388 99 392 129 b 758 243 507 228 639 238 b 985 325 815 253 899 276 b 994 1058 997 524 1018 826 z "},"π":{"ha":899,"x_min":0,"x_max":0,"o":"m 851 606 b 851 842 872 686 864 756 b 54 836 611 863 289 861 b 44 597 43 749 26 681 b 146 600 90 593 114 604 b 163 4 146 475 142 75 b 410 25 246 -7 344 -8 b 419 610 410 218 408 422 b 499 613 431 613 469 613 b 511 3 497 414 500 186 b 740 22 554 -1 707 4 b 761 603 750 217 757 411 b 851 606 801 603 833 603 z "},"Ẁ":{"ha":1453,"x_min":0,"x_max":0,"o":"m 1429 968 b 1149 968 1329 978 1233 985 b 1100 582 1135 839 1118 707 l 1050 586 b 928 958 1011 713 969 835 b 617 958 828 976 719 968 b 488 544 582 853 532 654 l 450 544 b 378 949 428 679 406 814 b 43 939 258 969 149 956 b 207 -19 104 618 132 300 b 619 -19 353 -28 458 -33 b 721 354 656 124 701 288 l 781 354 b 847 -15 794 297 839 24 b 1285 0 1000 -17 1125 -11 b 1429 968 1322 188 1415 672 z m 856 1040 b 751 1307 804 1126 769 1247 b 488 1265 651 1314 563 1299 b 693 1018 553 1174 625 1072 b 856 1040 742 1018 810 1024 z "},"ẁ":{"ha":1322,"x_min":0,"x_max":0,"o":"m 1286 869 b 1021 869 1196 878 1097 885 b 976 479 1008 761 993 585 l 935 472 b 821 863 899 588 860 754 b 542 863 731 878 633 871 b 429 458 511 776 468 561 l 389 457 b 326 868 368 569 336 696 b 39 846 219 885 133 861 b 186 -31 54 546 118 240 b 544 -29 318 -37 399 -40 b 635 285 578 92 618 229 l 689 285 b 749 -25 701 238 740 7 b 1156 -12 886 -26 1011 -22 b 1286 869 1189 146 1274 621 z m 758 950 b 654 1217 707 1036 672 1157 b 390 1175 554 1224 465 1208 b 596 928 456 1083 528 982 b 758 950 644 928 713 933 z "},"Ẃ":{"ha":1453,"x_min":0,"x_max":0,"o":"m 1429 968 b 1149 968 1329 978 1233 985 b 1100 582 1135 839 1118 707 l 1050 586 b 928 958 1011 713 969 835 b 617 958 828 976 719 968 b 488 544 582 853 532 654 l 450 544 b 378 949 428 679 406 814 b 43 939 258 969 149 956 b 207 -19 104 618 132 300 b 619 -19 353 -28 458 -33 b 721 354 656 124 701 288 l 781 354 b 847 -15 794 297 839 24 b 1285 0 1000 -17 1125 -11 b 1429 968 1322 188 1415 672 z m 1042 1278 b 778 1308 967 1308 876 1318 b 672 1054 758 1251 724 1138 b 835 1039 718 1040 786 1038 b 1042 1278 904 1093 975 1190 z "},"ẃ":{"ha":1322,"x_min":0,"x_max":0,"o":"m 1286 869 b 1021 869 1196 878 1097 885 b 976 479 1008 761 993 585 l 935 472 b 821 863 899 588 860 754 b 542 863 731 878 633 871 b 429 458 511 776 468 561 l 389 457 b 326 868 368 569 336 696 b 39 846 219 885 133 861 b 186 -31 54 546 118 240 b 544 -29 318 -37 399 -40 b 635 285 578 92 618 229 l 689 285 b 749 -25 701 238 740 7 b 1156 -12 886 -26 1011 -22 b 1286 869 1189 146 1274 621 z m 968 1183 b 704 1214 893 1214 804 1224 b 600 960 686 1157 651 1043 b 763 944 646 946 714 943 b 968 1183 831 999 903 1096 z "},"Ẅ":{"ha":1453,"x_min":0,"x_max":0,"o":"m 1429 968 b 1149 968 1329 978 1233 985 b 1100 582 1135 839 1118 707 l 1050 586 b 928 958 1011 713 969 835 b 617 958 828 976 719 968 b 488 544 582 853 532 654 l 450 544 b 378 949 428 679 406 814 b 43 939 258 969 149 956 b 207 -19 104 618 132 300 b 619 -19 353 -28 458 -33 b 721 354 656 124 701 288 l 781 354 b 847 -15 794 297 839 24 b 1285 0 1000 -17 1125 -11 b 1429 968 1322 188 1415 672 z m 728 1153 b 639 1276 728 1197 679 1276 b 511 1240 619 1276 536 1267 b 481 1113 488 1217 481 1160 b 567 1019 481 1060 542 1019 b 717 1075 599 1019 704 1029 b 728 1153 724 1100 728 1126 z m 1071 1161 b 985 1283 1071 1206 1024 1283 b 861 1247 967 1283 886 1274 b 832 1122 840 1225 832 1168 b 915 1029 832 1071 892 1029 b 1060 1085 947 1029 1047 1040 b 1071 1161 1067 1110 1071 1136 z "},"ẅ":{"ha":1322,"x_min":0,"x_max":0,"o":"m 1286 869 b 1021 869 1196 878 1097 885 b 976 479 1008 761 993 585 l 935 472 b 821 863 899 588 860 754 b 542 863 731 878 633 871 b 429 458 511 776 468 561 l 389 457 b 326 868 368 569 336 696 b 39 846 219 885 133 861 b 186 -31 54 546 118 240 b 544 -29 318 -37 399 -40 b 635 285 578 92 618 229 l 689 285 b 749 -25 701 238 740 7 b 1156 -12 886 -26 1011 -22 b 1286 869 1189 146 1274 621 z m 640 1036 b 561 1147 640 1076 597 1147 b 446 1115 543 1147 468 1138 b 418 1000 425 1094 418 1042 b 496 915 418 953 474 915 b 631 967 525 915 619 925 b 640 1036 638 989 640 1013 z m 949 1043 b 872 1153 949 1083 908 1153 b 761 1121 856 1153 783 1144 b 735 1008 742 1101 735 1050 b 810 925 735 961 789 925 b 940 975 838 925 929 935 b 949 1043 946 997 949 1021 z "},"₤":{"ha":844,"x_min":0,"x_max":0,"o":"m 811 850 b 790 1074 813 919 811 1008 b 129 975 575 1082 333 1053 b 92 739 104 897 99 806 b 219 638 133 710 182 667 b 85 632 151 636 101 633 b 82 422 75 578 68 514 b 175 432 101 426 133 429 b 60 253 153 400 122 349 b 63 14 49 186 58 79 b 779 11 300 -49 633 3 b 760 224 782 86 779 156 b 411 232 650 243 524 226 b 549 433 472 313 507 372 b 722 461 649 435 686 457 b 722 642 729 515 728 588 b 481 689 615 663 578 658 b 489 801 467 714 465 761 b 811 850 608 825 692 831 z "},"€":{"ha":926,"x_min":0,"x_max":0,"o":"m 894 182 b 493 239 846 208 565 183 b 483 269 489 247 486 258 b 814 275 594 271 704 271 b 822 464 829 314 836 425 b 474 471 754 468 615 469 b 479 547 475 496 476 522 b 817 550 593 546 706 546 b 806 742 832 589 819 703 b 508 747 743 746 629 747 b 514 771 510 756 513 763 b 885 831 624 825 742 815 b 874 1042 900 929 878 1000 b 213 943 793 1085 332 1021 b 154 743 188 897 168 825 b 92 742 131 743 110 742 b 75 542 67 703 40 607 b 133 544 94 543 114 543 b 131 471 132 519 131 496 b 72 469 108 471 89 469 b 79 258 47 431 40 338 b 140 261 100 260 119 260 b 190 75 150 178 167 111 b 856 -22 394 -14 640 -19 b 894 182 882 1 897 103 z "},"Ω":{"ha":1140,"x_min":0,"x_max":0,"o":"m 1067 249 b 956 254 1049 253 1006 254 b 1050 832 1008 364 1056 569 b 872 1075 1001 913 938 1017 b 228 1040 807 1072 419 1081 b 67 840 171 978 118 900 b 169 251 47 592 110 364 b 53 236 122 250 71 239 b 63 -26 43 182 49 65 b 463 -11 165 -28 361 -24 b 485 228 478 53 485 144 b 447 771 436 406 431 615 b 675 779 517 804 617 797 b 629 225 689 636 678 425 b 674 -26 625 135 644 53 b 1049 -11 771 -32 947 -24 b 1067 249 1056 43 1072 194 z "},"℮":{"ha":978,"x_min":0,"x_max":0,"o":"m 601 525 b 394 500 550 510 475 497 b 428 644 401 557 415 601 b 583 671 496 671 533 668 b 601 525 603 636 604 565 z m 928 347 b 832 874 932 514 901 758 b 139 797 756 907 253 857 b 99 64 44 660 14 164 b 786 -31 294 -4 581 -28 b 824 178 811 -12 826 117 b 394 242 776 197 464 199 b 375 306 385 258 378 279 b 928 347 554 311 833 332 z "},"∂":{"ha":982,"x_min":0,"x_max":0,"o":"m 607 396 b 582 228 608 331 600 275 b 392 236 519 203 407 218 b 369 375 382 278 357 340 b 607 396 411 403 556 404 z m 881 57 b 844 1015 964 219 922 860 b 182 1110 714 1074 329 1118 b 147 885 171 1067 140 961 b 560 799 250 874 458 822 b 586 674 581 767 586 717 b 57 572 454 663 193 638 b 133 51 40 447 75 154 b 881 57 307 -54 625 -65 z "},"∆":{"ha":1019,"x_min":0,"x_max":0,"o":"m 603 250 b 386 247 533 250 456 249 b 457 522 418 367 449 482 b 486 575 460 538 471 575 b 531 510 510 575 525 529 b 603 250 554 424 579 339 z m 986 1 b 672 1060 922 296 789 782 b 335 1067 565 1072 442 1072 b 21 -4 263 829 117 288 b 986 1 296 -39 758 -24 z "},"∏":{"ha":997,"x_min":0,"x_max":0,"o":"m 946 757 b 946 1051 969 858 961 944 b 60 1046 679 1078 321 1075 b 50 746 47 936 29 850 b 163 750 100 742 126 756 b 181 6 163 593 157 94 b 456 32 274 -10 383 -10 b 465 763 454 272 453 528 b 554 765 478 765 521 765 b 568 4 551 518 554 232 b 822 28 615 -1 786 6 b 846 754 833 271 842 514 b 946 757 890 753 926 753 z "},"∑":{"ha":851,"x_min":0,"x_max":0,"o":"m 794 839 b 782 1058 800 907 797 989 b 92 1071 551 1092 283 1082 b 50 843 67 1001 43 896 b 214 558 88 768 149 664 b 60 253 157 465 133 367 b 63 14 49 186 58 79 b 779 11 300 -49 633 3 b 793 224 800 72 813 156 b 411 232 683 243 524 226 b 589 558 476 318 517 439 b 428 846 529 657 476 750 b 794 839 525 857 699 829 z "},"∕":{"ha":899,"x_min":0,"x_max":0,"o":"m 879 1053 b 581 1081 850 1063 713 1094 b 22 -42 364 725 218 425 b 317 -51 51 -51 185 -65 b 879 1053 479 317 686 739 z "},"∙":{"ha":492,"x_min":0,"x_max":0,"o":"m 400 494 b 288 619 400 540 340 619 b 126 583 264 619 158 610 b 88 454 97 560 88 501 b 197 360 88 401 165 360 b 386 417 238 360 369 371 b 400 494 394 442 400 468 z "},"√":{"ha":1075,"x_min":0,"x_max":0,"o":"m 1043 1049 b 433 1050 715 1061 599 1069 b 290 417 350 779 331 642 b 136 596 238 471 206 519 b 21 444 90 556 54 504 b 372 -25 151 222 253 117 b 540 90 432 -1 513 50 b 661 824 575 336 629 651 b 1003 838 772 831 893 817 b 1043 1049 1029 906 1038 974 z "},"∞":{"ha":1015,"x_min":0,"x_max":0,"o":"m 389 586 b 381 444 396 557 407 465 b 239 464 369 436 257 443 b 254 589 228 493 222 568 b 389 586 293 603 353 600 z m 775 600 b 765 444 775 560 781 481 b 618 432 747 425 664 422 b 615 619 607 488 600 586 b 775 600 647 639 746 632 z m 908 208 b 900 844 951 329 981 721 b 629 950 832 907 683 954 b 458 776 533 917 479 817 b 268 921 428 835 346 899 b 82 800 188 908 113 849 b 92 242 58 722 56 464 b 369 161 144 189 267 147 b 501 286 401 178 458 256 b 624 149 542 250 568 182 b 908 208 706 117 842 179 z "},"∫":{"ha":874,"x_min":0,"x_max":0,"o":"m 835 893 b 807 1079 836 957 826 1060 b 315 1004 656 1076 460 1076 b 264 199 228 853 268 392 b 60 151 188 153 142 156 b 60 -40 49 67 57 -6 b 578 33 115 -76 494 -33 b 624 825 606 211 582 724 b 835 893 675 871 747 879 z "},"≈":{"ha":789,"x_min":0,"x_max":0,"o":"m 749 350 b 646 461 728 399 688 436 b 503 354 646 461 571 318 b 233 478 403 410 310 522 b 35 168 161 436 79 279 b 140 63 50 132 88 94 b 224 167 167 107 203 156 b 500 44 257 185 413 54 b 749 350 581 36 715 294 z m 760 838 b 657 949 738 886 697 925 b 514 842 657 949 581 806 b 244 965 413 897 319 1010 b 46 656 171 924 90 767 b 151 550 61 619 97 582 b 235 654 176 594 214 643 b 511 532 267 672 422 542 b 760 838 590 524 725 782 z "},"≠":{"ha":531,"x_min":0,"x_max":0,"o":"m 506 968 b 350 992 490 976 418 1004 b 276 788 324 922 300 854 b 72 779 196 786 114 783 b 69 518 60 728 51 606 b 194 531 110 524 151 528 b 161 419 183 494 172 457 b 72 414 125 418 93 415 b 69 153 60 363 51 240 b 89 156 76 154 82 154 b 60 39 79 118 69 79 b 213 31 75 31 144 18 b 250 168 225 75 238 122 b 471 178 325 171 400 171 b 465 417 479 231 472 364 b 325 422 436 421 383 422 b 360 536 336 460 349 499 b 471 543 397 538 435 540 b 465 782 479 596 472 729 b 440 785 458 783 450 783 b 506 968 463 850 483 911 z "},"≤":{"ha":603,"x_min":0,"x_max":0,"o":"m 547 13 b 542 244 557 64 550 193 b 72 242 450 254 168 249 b 68 -11 57 192 46 74 b 547 13 221 7 394 1 z m 546 1035 b 296 1053 522 1042 406 1063 b 53 679 214 924 140 804 b 288 322 121 557 199 440 b 531 343 307 318 449 336 b 317 686 469 436 376 585 b 546 1035 389 793 465 894 z "},"≥":{"ha":603,"x_min":0,"x_max":0,"o":"m 547 13 b 542 244 557 64 550 193 b 72 242 450 254 168 249 b 68 -11 57 192 46 74 b 547 13 221 7 394 1 z m 585 694 b 349 1050 517 817 438 932 b 104 1031 329 1054 186 1036 b 319 686 165 936 258 788 b 88 338 246 579 169 479 b 340 319 113 332 229 311 b 585 694 422 449 497 568 z "},"◊":{"ha":893,"x_min":0,"x_max":0,"o":"m 578 529 b 446 307 535 457 492 385 b 335 515 406 381 367 454 b 467 738 378 588 421 660 b 578 529 507 664 546 590 z m 860 539 b 608 976 788 689 703 832 b 313 968 535 983 390 983 b 53 506 225 808 146 661 b 304 68 125 356 210 213 b 600 76 400 46 501 49 b 860 539 688 236 767 383 z "},"ﬀ":{"ha":1728,"x_min":0,"x_max":0,"o":"m 840 953 b 803 1124 842 1014 828 1106 b 292 1053 600 1121 485 1122 b 228 750 258 1013 228 822 b 49 738 158 749 78 740 b 46 522 39 696 32 592 b 224 533 90 529 163 532 b 238 -4 224 344 232 72 b 565 10 318 -15 469 -10 b 565 546 564 82 563 397 b 803 568 647 556 697 553 b 808 754 822 640 825 681 b 572 764 756 760 631 765 b 593 907 572 789 581 885 b 840 953 661 951 758 949 z m 1701 953 b 1664 1124 1703 1014 1689 1106 b 1153 1053 1461 1121 1346 1122 b 1089 750 1119 1013 1089 822 b 910 738 1019 749 939 740 b 907 522 900 696 893 592 b 1085 533 951 529 1024 532 b 1099 -4 1085 344 1093 72 b 1426 10 1179 -15 1331 -10 b 1426 546 1425 82 1424 397 b 1664 568 1508 556 1558 553 b 1669 754 1683 640 1686 681 b 1433 764 1617 760 1492 765 b 1454 907 1433 789 1442 885 b 1701 953 1522 951 1619 949 z "},"ﬃ":{"ha":2150,"x_min":0,"x_max":0,"o":"m 840 953 b 803 1124 842 1014 828 1106 b 292 1053 600 1121 485 1122 b 228 750 258 1013 228 822 b 49 738 158 749 78 740 b 46 522 39 696 32 592 b 224 533 90 529 163 532 b 238 -4 224 344 232 72 b 565 10 318 -15 469 -10 b 565 546 564 82 563 397 b 803 568 647 556 697 553 b 808 754 822 640 825 681 b 572 764 756 760 631 765 b 593 907 572 789 581 885 b 840 953 661 951 758 949 z m 1701 953 b 1664 1124 1703 1014 1689 1106 b 1153 1053 1461 1121 1346 1122 b 1089 750 1119 1013 1089 822 b 910 738 1019 749 939 740 b 907 522 900 696 893 592 b 1085 533 951 529 1024 532 b 1099 -4 1085 344 1093 72 b 1426 10 1179 -15 1331 -10 b 1426 546 1425 82 1424 397 b 1664 568 1508 556 1558 553 b 1669 754 1683 640 1686 681 b 1433 764 1617 760 1492 765 b 1454 907 1433 789 1442 885 b 1701 953 1522 951 1619 949 z m 2075 817 b 1789 800 1990 818 1876 817 b 1797 -4 1781 585 1782 233 b 2050 14 1840 -8 2018 -3 b 2075 817 2064 272 2075 564 z m 2113 925 b 2083 1057 2122 971 2107 1017 b 1943 1079 2050 1069 1982 1083 b 1779 1014 1900 1074 1792 1056 b 1779 900 1772 988 1761 924 b 2113 925 1807 865 2081 883 z "},"ﬄ":{"ha":2228,"x_min":0,"x_max":0,"o":"m 840 953 b 803 1124 842 1014 828 1106 b 292 1053 600 1121 485 1122 b 228 750 258 1013 228 822 b 49 738 158 749 78 740 b 46 522 39 696 32 592 b 224 533 90 529 163 532 b 238 -4 224 344 232 72 b 565 10 318 -15 469 -10 b 565 546 564 82 563 397 b 803 568 647 556 697 553 b 808 754 822 640 825 681 b 572 764 756 760 631 765 b 593 907 572 789 581 885 b 840 953 661 951 758 949 z m 1701 953 b 1664 1124 1703 1014 1689 1106 b 1153 1053 1461 1121 1346 1122 b 1089 750 1119 1013 1089 822 b 910 738 1019 749 939 740 b 907 522 900 696 893 592 b 1085 533 951 529 1024 532 b 1099 -4 1085 344 1093 72 b 1426 10 1179 -15 1331 -10 b 1426 546 1425 82 1424 397 b 1664 568 1508 556 1558 553 b 1669 754 1683 640 1686 681 b 1433 764 1617 760 1492 765 b 1454 907 1433 789 1442 885 b 1701 953 1522 951 1619 949 z m 2142 1069 b 1831 1051 2069 1088 1943 1075 b 1835 -3 1804 878 1819 150 b 2135 19 1953 -19 2018 -15 b 2142 1069 2118 156 2122 864 z "},"ﬅ":{"ha":1515,"x_min":0,"x_max":0,"o":"m 736 893 b 736 1076 750 974 740 1043 b 125 949 661 1111 211 1081 b 101 3 110 803 75 168 b 419 18 214 -19 347 1 b 425 849 399 214 394 742 b 736 893 528 893 626 890 z m 1475 782 b 1228 789 1446 788 1346 790 b 1231 1058 1229 857 1231 1014 b 888 1018 1144 1060 989 1057 b 875 781 878 950 875 846 b 668 757 753 775 693 768 b 646 540 647 688 642 607 b 872 551 718 546 796 558 b 889 -21 871 336 864 219 b 1219 7 989 -28 1119 -8 b 1235 576 1217 161 1215 488 b 1464 593 1306 581 1393 585 b 1475 782 1472 635 1482 728 z "},"":{"ha":2076,"x_min":0,"x_max":0,"o":"m 443 506 b 424 414 443 492 442 414 b 403 504 408 414 403 492 b 424 600 403 518 407 600 b 443 506 442 600 443 519 z m 1167 749 b 1153 718 1167 738 1163 725 l 1153 775 b 1167 749 1163 771 1167 758 z m 1347 678 l 1354 717 l 1363 679 z m 474 507 b 424 642 474 539 468 642 b 372 504 385 642 372 533 b 425 374 372 476 388 374 b 474 507 468 374 474 476 z m 1193 751 b 1129 819 1193 788 1164 814 l 1129 658 b 1193 751 1158 676 1193 714 z m 1351 831 l 1321 654 l 1388 660 z m 417 118 b 144 486 267 175 144 322 b 396 839 144 643 243 790 l 396 764 b 211 482 276 729 211 599 b 417 192 211 356 297 233 l 417 118 z m 525 492 b 426 318 525 440 490 318 b 322 506 354 318 322 449 b 425 689 322 564 349 689 b 525 492 508 689 525 553 z m 156 849 b 132 822 156 836 144 824 l 132 819 b 146 794 132 810 139 801 b 101 847 126 804 101 824 b 129 875 101 863 114 875 b 156 849 143 875 156 863 z m 226 850 b 203 824 226 836 217 825 l 203 821 b 218 796 203 810 210 801 b 172 847 199 804 172 822 b 201 876 172 864 185 876 b 226 850 215 876 226 863 z m 707 425 l 708 651 l 656 525 l 601 610 l 601 386 l 551 368 l 551 718 l 596 735 l 653 633 l 703 765 l 757 785 l 757 442 z m 799 453 l 799 797 l 849 814 l 849 469 z m 1688 563 b 1538 239 1688 435 1635 321 b 1458 183 1513 218 1485 203 b 1451 169 1454 181 1451 175 b 1364 14 1451 100 1429 49 b 1381 72 1374 32 1381 51 b 1354 132 1381 86 1374 132 b 1349 131 1353 132 1350 131 b 954 68 1217 90 1093 68 b 443 189 781 68 593 96 l 443 213 b 240 489 332 257 240 365 b 422 742 240 600 307 719 l 422 878 b 335 844 392 872 363 858 b 954 1056 482 1007 744 1056 b 1468 935 1128 1056 1318 1028 l 1443 933 l 1443 781 l 1407 931 l 1289 924 l 1268 794 b 1104 911 1246 876 1186 911 b 878 786 1015 911 917 871 l 878 858 l 679 786 l 651 701 l 610 768 l 524 739 l 524 636 b 425 717 508 681 475 717 b 299 507 331 717 299 582 b 426 289 299 432 331 289 b 526 381 474 289 508 342 l 525 328 l 631 371 l 631 494 l 656 444 l 679 499 l 679 389 l 879 454 l 879 575 b 1039 494 911 522 979 494 b 1163 514 1081 494 1122 506 l 1163 532 l 1179 518 b 1332 543 1229 528 1281 539 l 1343 586 l 1378 590 l 1393 547 l 1551 561 l 1551 639 l 1607 643 l 1607 744 l 1556 742 l 1556 838 l 1585 839 b 1631 775 1601 819 1618 797 l 1631 568 l 1686 568 b 1688 563 1686 567 1688 564 z m 1047 525 b 879 686 951 525 879 588 b 1051 879 879 785 958 861 l 1051 828 b 933 692 989 813 933 760 b 1054 572 933 617 981 572 l 1058 572 l 1058 525 z m 1050 597 b 958 686 1000 599 958 635 b 1050 797 958 742 1000 782 l 1050 597 z m 1183 549 l 1129 599 l 1131 539 l 1082 529 l 1082 881 b 1104 882 1089 882 1097 882 b 1239 757 1183 882 1239 840 b 1174 626 1239 708 1211 656 l 1239 558 z m 1233 607 l 1213 628 b 1251 689 1231 644 1244 665 z m 1408 581 l 1396 621 l 1313 614 l 1304 568 l 1253 560 l 1313 897 l 1385 903 l 1460 585 z m 1529 868 l 1524 714 l 1579 718 l 1579 671 l 1524 668 l 1524 589 l 1474 586 l 1474 910 l 1583 914 l 1583 871 z m 1713 874 l 1713 593 l 1658 594 l 1658 874 l 1608 874 l 1608 915 l 1763 915 l 1763 874 z m 1631 822 b 1618 840 1628 829 1622 835 l 1631 842 l 1631 822 z m 1811 922 b 1792 899 1807 913 1800 906 l 1792 940 b 1811 922 1796 932 1803 926 z m 1868 958 b 1821 907 1868 935 1840 915 b 1836 932 1829 913 1836 921 l 1836 935 b 1813 964 1822 936 1813 950 b 1838 988 1813 975 1826 988 b 1868 958 1854 988 1868 975 z m 1939 958 b 1893 906 1939 933 1914 915 b 1907 932 1901 913 1907 921 l 1907 935 b 1885 960 1894 935 1885 947 b 1910 986 1885 974 1896 986 b 1939 958 1925 986 1939 974 z m 1965 958 b 1914 1010 1965 986 1943 1010 b 1874 994 1900 1010 1883 1006 b 1835 1010 1863 1004 1849 1010 b 1785 964 1808 1010 1785 992 b 1789 944 1785 957 1786 950 b 1513 938 1697 944 1604 942 b 954 1082 1354 1047 1143 1082 b 347 893 749 1082 504 1035 b 267 800 315 864 294 832 b 253 789 264 796 257 792 b 235 818 242 794 238 807 b 253 861 246 828 253 846 b 201 901 253 889 225 901 b 167 890 189 901 176 897 b 131 901 157 899 143 901 b 75 847 99 901 75 879 b 182 768 75 794 136 768 b 200 769 188 768 194 768 b 179 790 192 774 183 782 b 231 767 194 781 213 771 b 117 496 157 706 117 589 b 443 72 117 286 256 144 l 443 158 b 954 42 594 69 781 42 b 1347 103 1088 42 1222 58 b 1354 74 1351 93 1354 83 b 1307 -14 1354 22 1307 -4 b 1324 -29 1307 -24 1315 -29 b 1364 -17 1331 -29 1356 -19 b 1479 153 1431 13 1479 79 l 1479 164 b 1713 568 1629 257 1713 390 l 1742 568 l 1742 846 l 1792 846 l 1792 867 b 1867 903 1814 872 1853 885 b 1846 875 1863 892 1856 882 b 1965 958 1897 876 1965 896 z m 2006 1001 l 1974 1001 l 1974 997 l 1986 997 l 1986 958 l 1992 958 l 1992 997 l 2006 997 z m 2054 1001 l 2046 1001 l 2033 967 l 2019 1001 l 2011 1001 l 2011 958 l 2015 958 l 2015 996 l 2017 996 l 2031 958 l 2035 958 l 2049 996 l 2049 958 l 2054 958 z "},"А":{"ha":1128,"x_min":0,"x_max":0,"o":"m 676 436 b 456 435 647 428 506 422 b 549 779 454 472 536 751 b 610 779 567 783 592 783 b 676 436 639 706 668 539 z m 1119 -3 b 924 1065 1068 390 993 713 b 224 1057 768 1107 363 1093 b 174 863 204 1014 188 921 b 250 846 190 851 250 846 b 4 -24 158 582 31 179 b 317 -19 79 -36 235 -42 b 374 150 333 56 342 85 b 731 160 449 169 626 174 b 779 -26 744 79 757 51 b 1119 -3 869 -29 1007 -25 z "},"Б":{"ha":1088,"x_min":0,"x_max":0,"o":"m 644 461 b 608 211 647 369 642 263 b 431 210 563 197 483 199 b 429 476 422 268 415 371 b 644 461 488 497 611 490 z m 1040 472 b 764 721 989 578 872 678 l 735 721 b 424 703 631 721 526 721 b 422 750 422 718 422 735 b 422 828 422 776 422 801 b 924 840 592 832 764 832 b 914 1085 940 893 928 1031 b 118 1082 760 1096 281 1089 b 113 1069 115 1078 114 1074 b 85 1065 103 1068 94 1067 b 71 165 78 765 71 465 b 79 -12 71 106 71 47 b 297 -29 150 -29 225 -29 b 899 15 499 -29 700 -12 b 1040 472 967 81 1031 374 z "},"В":{"ha":1142,"x_min":0,"x_max":0,"o":"m 708 399 b 671 176 711 307 704 228 b 493 158 625 163 546 147 b 492 414 485 217 478 308 b 708 399 550 435 675 428 z m 676 675 b 485 654 649 651 521 642 b 492 858 481 693 488 789 b 629 861 533 875 589 871 b 676 675 660 818 679 746 z m 1108 410 b 872 582 1049 490 940 553 b 1051 768 940 618 1006 696 b 960 1068 1043 854 992 1025 b 68 1056 693 1107 279 1096 b 49 821 60 986 51 908 b 142 813 74 807 122 817 b 138 -33 135 508 118 107 b 582 -51 263 -61 419 -60 b 993 3 722 -44 901 -18 b 1108 410 1050 56 1097 281 z "},"Г":{"ha":840,"x_min":0,"x_max":0,"o":"m 793 793 b 789 1067 801 888 804 972 b 82 1047 676 1072 303 1079 b 67 -1 78 821 51 261 b 428 7 106 -22 367 -6 b 425 771 422 282 425 651 b 793 793 540 810 679 799 z "},"Д":{"ha":1250,"x_min":0,"x_max":0,"o":"m 775 315 b 536 315 699 317 617 315 b 554 810 546 450 554 644 b 768 815 625 813 697 813 b 775 315 767 654 769 478 z m 1225 297 b 1081 311 1176 311 1129 315 l 1071 311 b 1090 1067 1082 565 1090 818 b 879 1075 1028 1071 951 1074 b 460 1074 767 1076 590 1072 b 189 1046 357 1074 251 1061 b 183 356 211 826 217 476 b 32 304 158 339 103 324 l 32 293 l 31 293 b 36 188 32 265 35 229 b 40 81 33 153 33 117 b 32 -108 40 17 39 -50 b 197 -93 82 -118 150 -107 b 238 21 213 -61 226 -22 b 985 36 482 31 742 31 b 990 -122 989 -18 992 -74 b 1154 -107 1042 -132 1108 -121 b 1225 297 1192 -11 1208 151 z "},"Е":{"ha":942,"x_min":0,"x_max":0,"o":"m 881 864 b 871 1094 883 919 888 1046 b 65 1067 658 1103 294 1118 b 39 854 50 1003 40 925 b 128 853 64 854 103 853 b 136 -14 121 572 115 243 b 869 -14 410 -46 626 -39 b 872 211 888 56 882 143 b 528 221 789 222 593 199 b 531 435 518 269 510 392 b 844 454 631 456 743 442 b 840 633 851 508 846 579 b 532 638 781 644 546 632 b 543 856 510 692 518 821 b 881 864 656 868 768 858 z "},"Ж":{"ha":1318,"x_min":0,"x_max":0,"o":"m 1311 1053 b 979 1081 1279 1063 1125 1094 b 824 804 929 988 878 882 b 826 1082 825 901 826 996 b 510 1061 731 1083 607 1082 b 504 808 507 989 506 903 b 379 1075 463 886 413 1000 b 58 1049 294 1082 140 1058 b 281 519 88 921 219 614 b 25 0 179 351 78 154 b 351 -10 57 -10 206 -24 b 508 232 381 65 460 168 b 519 -24 511 128 515 60 b 800 0 567 -29 764 -22 b 810 222 804 79 807 136 b 969 -4 850 168 938 63 b 1290 26 994 -12 1182 15 b 1006 529 1208 171 1086 372 b 1311 1053 1101 693 1203 836 z "},"З":{"ha":875,"x_min":0,"x_max":0,"o":"m 850 399 b 626 583 800 497 715 554 b 796 782 690 617 772 700 b 710 1032 789 861 740 992 b 133 1075 501 1100 354 1101 b 74 836 107 1051 71 917 b 424 807 128 831 339 856 b 442 669 442 764 454 735 b 249 629 415 647 283 632 b 219 439 229 574 217 496 b 472 414 286 444 440 440 b 460 261 475 329 492 308 b 61 181 353 207 206 197 b 89 -53 51 94 74 0 b 740 49 207 -64 621 -32 b 850 399 794 97 839 279 z "},"И":{"ha":1149,"x_min":0,"x_max":0,"o":"m 1069 1058 b 593 1083 1044 1085 675 1101 b 429 614 547 922 486 769 l 364 614 b 351 1031 361 631 354 929 b 65 1040 258 1051 161 1054 b 72 -3 63 697 63 339 b 507 -22 168 -12 344 -29 b 708 446 588 121 651 285 l 776 442 b 783 4 788 326 790 171 b 1057 7 872 -18 961 -17 b 1069 1058 1076 189 1079 779 z "},"Й":{"ha":1149,"x_min":0,"x_max":0,"o":"m 1069 953 b 593 975 1044 976 675 992 b 429 553 547 829 486 692 l 364 553 b 351 928 361 568 354 836 b 65 936 258 946 161 949 b 72 -3 63 628 63 306 b 507 -21 168 -11 344 -26 b 708 401 588 110 651 256 l 776 397 b 783 4 788 293 790 154 b 1057 7 872 -15 961 -15 b 1069 953 1076 169 1079 701 z m 876 1238 b 671 1267 857 1242 763 1274 b 564 1185 661 1247 601 1185 b 460 1264 544 1185 481 1226 b 257 1225 444 1268 335 1244 b 419 1063 308 1157 343 1119 b 717 1067 467 1026 647 1019 b 876 1238 806 1128 843 1165 z "},"К":{"ha":1038,"x_min":0,"x_max":0,"o":"m 1011 1032 b 683 1092 907 1058 779 1097 b 474 703 626 988 521 781 l 414 703 b 408 1060 399 818 404 958 b 78 1054 369 1064 161 1072 b 71 -49 74 890 49 228 b 404 -25 122 -61 357 -51 b 406 317 411 74 407 238 l 457 318 b 668 -51 497 249 575 90 b 1000 7 735 -49 922 -29 b 751 510 926 181 818 318 b 1011 1032 822 665 965 943 z "},"Л":{"ha":1181,"x_min":0,"x_max":0,"o":"m 1104 1063 b 944 1072 1056 1067 1000 1069 b 432 1072 832 1078 585 1076 b 372 1069 413 1071 392 1071 b 347 1068 363 1068 354 1068 l 347 1067 b 203 1039 290 1061 239 1050 b 197 232 225 782 231 374 b 46 172 172 213 117 194 b 74 -68 47 83 53 -8 b 540 51 240 -68 417 -32 b 568 810 553 190 569 543 b 782 815 639 813 711 813 b 797 -3 779 550 783 243 b 1078 0 844 -12 1042 -21 b 1104 1063 1093 357 1104 714 z "},"М":{"ha":1372,"x_min":0,"x_max":0,"o":"m 1313 -4 b 1269 1097 1293 369 1285 731 b 838 1092 1163 1115 926 1117 b 689 718 819 1042 715 785 l 638 718 b 517 1081 590 831 553 963 b 88 1029 489 1089 214 1072 b 44 -35 74 894 39 253 b 329 -28 149 -47 236 -47 b 354 425 331 38 342 375 l 401 426 b 576 -1 439 325 497 147 b 701 -4 618 -8 660 -4 b 888 446 769 154 851 360 l 938 446 b 965 -25 943 424 960 51 b 1313 -4 1078 -35 1246 -43 z "},"Н":{"ha":1058,"x_min":0,"x_max":0,"o":"m 981 1090 b 667 1065 929 1103 714 1092 b 664 721 660 965 678 789 b 407 700 632 707 475 697 b 419 1065 407 814 403 953 b 74 1056 400 1090 151 1081 b 81 -46 67 851 53 144 b 406 -31 185 -54 310 -53 b 413 340 401 93 404 217 b 656 365 444 356 614 369 b 661 -29 676 250 654 75 b 974 -25 699 -33 913 -37 b 981 1090 978 140 1003 811 z "},"О":{"ha":1144,"x_min":0,"x_max":0,"o":"m 700 806 b 694 261 721 611 706 425 b 438 256 642 233 511 236 b 465 789 435 339 442 733 b 700 806 533 813 650 817 z m 1088 819 b 881 1076 1039 904 946 1017 b 160 1022 697 1097 346 1085 b 40 240 74 847 38 428 b 193 -4 64 165 147 49 b 985 29 418 -50 813 -11 b 1088 819 1086 219 1104 536 z "},"П":{"ha":1042,"x_min":0,"x_max":0,"o":"m 965 1063 b 806 1072 917 1067 861 1069 b 283 1071 692 1079 435 1074 b 93 1064 218 1071 151 1074 b 103 -3 83 767 85 326 b 383 0 150 -12 347 -21 b 408 808 394 271 404 542 b 643 815 486 811 565 813 b 658 -3 640 550 644 243 b 939 0 706 -12 903 -21 b 965 1063 954 357 965 714 z "},"Р":{"ha":1115,"x_min":0,"x_max":0,"o":"m 694 793 b 671 601 690 713 685 636 b 463 554 640 563 510 549 b 476 829 454 610 461 735 b 694 793 526 843 640 838 z m 1068 896 b 846 1088 1046 926 929 1039 b 78 1069 710 1103 193 1104 b 44 839 74 1028 47 932 b 121 825 69 831 106 825 b 121 -33 110 518 106 56 b 442 -21 217 -42 358 -31 b 438 261 447 69 436 171 b 953 343 553 269 813 297 b 1068 896 1008 450 1067 733 z "},"С":{"ha":911,"x_min":0,"x_max":0,"o":"m 867 218 b 439 279 815 246 515 219 b 460 772 392 379 426 632 b 844 835 578 829 692 818 b 844 1089 860 940 850 1044 b 139 985 758 1135 265 1068 b 94 63 35 794 1 201 b 825 -43 313 -32 596 -40 b 867 218 854 -18 869 135 z "},"Т":{"ha":1004,"x_min":0,"x_max":0,"o":"m 961 1060 b 64 1026 868 1079 142 1065 b 39 742 42 935 35 829 b 317 756 118 750 232 764 b 335 -26 315 472 308 289 b 671 8 446 -36 560 -11 b 713 790 668 211 690 674 b 947 811 792 796 869 800 b 961 1060 957 867 968 988 z "},"У":{"ha":1071,"x_min":0,"x_max":0,"o":"m 1054 1057 b 714 1075 1019 1067 865 1086 b 572 743 692 1019 615 794 b 360 1076 510 807 372 1042 b 26 1015 333 1085 139 1047 b 411 414 76 871 297 544 b 192 39 322 222 240 117 b 550 -40 300 -14 450 -35 b 1054 1057 785 336 892 622 z "},"Ф":{"ha":1310,"x_min":0,"x_max":0,"o":"m 508 296 b 422 319 472 301 440 308 b 442 742 379 392 411 640 b 504 761 464 750 485 757 b 508 296 503 611 504 451 z m 886 739 b 867 317 929 667 897 418 b 811 299 847 310 829 303 b 824 758 817 453 821 606 b 886 739 850 754 872 747 z m 1224 896 b 826 964 1104 938 964 956 b 826 1106 826 1011 826 1058 b 510 1082 731 1107 607 1106 b 507 972 508 1047 508 1011 b 125 894 358 958 189 928 b 85 163 31 757 0 263 b 514 92 213 118 365 100 b 519 -26 515 51 518 11 b 800 -1 567 -32 764 -25 b 803 86 801 28 803 57 b 1183 164 951 100 1119 131 b 1224 896 1278 301 1308 796 z "},"Х":{"ha":1040,"x_min":0,"x_max":0,"o":"m 1033 1053 b 701 1081 1001 1063 847 1094 b 524 774 644 975 586 853 b 379 1075 481 847 418 989 b 58 1049 294 1082 140 1058 b 281 506 88 921 219 600 b 25 -42 179 338 78 113 b 351 -51 57 -51 206 -65 b 517 243 382 28 469 181 b 692 -46 543 203 654 31 b 1013 -15 717 -54 904 -26 b 728 515 931 129 808 358 b 1033 1053 824 679 925 836 z "},"Ц":{"ha":1111,"x_min":0,"x_max":0,"o":"m 1072 269 b 950 285 1032 281 990 286 b 965 1081 958 553 965 819 b 649 1058 869 1082 746 1081 b 647 256 642 835 640 532 b 393 249 564 253 478 251 b 410 1063 403 522 410 794 b 93 1064 314 1071 190 1079 b 103 -3 83 767 85 326 b 310 -11 135 -10 236 -12 b 681 -10 414 -11 563 -11 b 833 -4 718 -10 779 -10 b 838 -150 836 -54 839 -104 b 1001 -135 889 -160 956 -149 b 1072 269 1039 -39 1056 124 z "},"Ч":{"ha":1049,"x_min":0,"x_max":0,"o":"m 965 1081 b 649 1058 869 1082 746 1081 b 643 533 644 908 642 722 b 396 526 561 531 478 529 b 410 1076 404 711 410 896 b 93 1078 314 1083 190 1089 b 103 271 83 853 85 519 b 338 265 140 265 265 265 b 647 267 429 264 546 265 b 658 -8 650 171 654 78 b 939 17 706 -14 903 -7 b 965 1081 954 374 965 732 z "},"Ш":{"ha":1350,"x_min":0,"x_max":0,"o":"m 1271 1081 b 954 1058 1175 1082 1051 1081 b 953 261 947 836 946 535 b 822 256 910 258 867 257 b 840 1032 833 517 840 778 b 524 1013 744 1033 621 1032 b 524 250 517 800 515 510 b 393 247 481 249 436 249 b 410 1063 403 521 410 794 b 93 1064 314 1071 190 1079 b 103 -3 83 767 85 326 b 290 -12 132 -8 219 -11 b 976 -10 464 -15 786 -11 b 1244 17 1038 -8 1210 -6 b 1271 1081 1260 374 1271 732 z "},"Щ":{"ha":1407,"x_min":0,"x_max":0,"o":"m 1364 269 b 1256 285 1328 279 1292 285 b 1271 1081 1264 553 1271 819 b 954 1058 1175 1082 1051 1081 b 953 261 947 836 946 535 b 822 256 910 258 867 257 b 840 1032 833 517 840 778 b 524 1013 744 1033 621 1032 b 524 250 517 800 515 510 b 393 247 481 249 436 249 b 410 1063 403 521 410 794 b 93 1064 314 1071 190 1079 b 103 -3 83 767 85 326 b 290 -12 132 -8 219 -11 b 976 -10 464 -15 786 -12 b 1125 -6 1007 -8 1068 -10 b 1129 -150 1129 -56 1131 -106 b 1293 -135 1181 -160 1247 -149 b 1364 269 1331 -39 1347 124 z "},"Ъ":{"ha":1226,"x_min":0,"x_max":0,"o":"m 783 461 b 747 211 786 369 781 263 b 569 210 701 197 622 199 b 568 476 561 268 554 371 b 783 461 626 497 750 490 z m 1179 472 b 903 721 1128 578 1011 678 l 874 721 b 563 703 769 721 665 721 b 561 750 561 718 561 735 b 568 1075 561 858 561 967 b 449 1085 529 1083 489 1085 b 303 1076 400 1085 351 1078 b 69 1068 222 1072 115 1074 b 67 796 60 1014 53 888 b 218 811 115 806 167 810 b 210 165 214 596 210 381 b 218 -12 210 106 210 47 b 436 -29 289 -29 364 -29 b 1038 15 638 -29 839 -12 b 1179 472 1106 81 1169 374 z "},"Ы":{"ha":1542,"x_min":0,"x_max":0,"o":"m 644 461 b 608 211 647 369 642 263 b 431 210 563 197 483 199 b 429 476 422 268 415 371 b 644 461 488 497 611 490 z m 1040 472 b 764 721 989 578 872 678 l 735 721 b 424 703 631 721 526 721 b 422 750 422 718 422 735 b 429 1075 422 858 422 967 b 310 1085 390 1083 350 1085 b 85 1065 235 1085 158 1078 b 71 165 78 765 71 465 b 79 -12 71 106 71 47 b 297 -29 150 -29 225 -29 b 899 15 499 -29 700 -12 b 1040 472 967 81 1031 374 z m 1465 1067 b 1149 1044 1369 1068 1246 1067 b 1158 -22 1139 746 1140 306 b 1439 3 1206 -28 1403 -21 b 1465 1067 1454 360 1465 718 z "},"Ь":{"ha":1088,"x_min":0,"x_max":0,"o":"m 644 461 b 608 211 647 369 642 263 b 431 210 563 197 483 199 b 429 476 422 268 415 371 b 644 461 488 497 611 490 z m 1040 472 b 764 721 989 578 872 678 l 735 721 b 424 703 631 721 526 721 b 422 750 422 718 422 735 b 429 1075 422 858 422 967 b 310 1085 390 1083 350 1085 b 85 1065 235 1085 158 1078 b 71 165 78 765 71 465 b 79 -12 71 106 71 47 b 297 -29 150 -29 225 -29 b 899 15 499 -29 700 -12 b 1040 472 967 81 1031 374 z "},"Э":{"ha":911,"x_min":0,"x_max":0,"o":"m 813 999 b 82 1104 594 1093 311 1100 b 40 843 53 1079 38 926 b 468 782 92 815 390 840 b 490 660 482 751 489 708 b 118 651 369 663 190 657 b 114 379 103 597 92 471 b 469 399 226 394 350 394 b 447 289 463 358 454 321 b 63 226 329 232 214 243 b 63 -28 46 121 57 15 b 768 76 147 -74 640 -7 b 813 999 872 267 906 860 z "},"Ю":{"ha":1700,"x_min":0,"x_max":0,"o":"m 1256 806 b 1250 261 1276 611 1261 425 b 993 256 1197 233 1067 236 b 1021 789 990 339 997 733 b 1256 806 1089 813 1206 817 z m 1643 819 b 1436 1076 1594 904 1501 1017 b 715 1022 1253 1097 901 1085 b 619 617 671 931 639 774 b 404 614 561 621 469 618 b 410 1067 407 767 410 918 b 93 1044 314 1068 190 1067 b 103 -22 83 746 85 306 b 383 3 150 -28 347 -21 b 396 346 388 117 393 232 b 599 358 463 354 532 354 b 596 240 596 314 596 274 b 749 -4 619 165 703 49 b 1540 29 974 -50 1368 -11 b 1643 819 1642 219 1660 536 z "},"Я":{"ha":1092,"x_min":0,"x_max":0,"o":"m 628 814 b 625 549 633 733 636 607 b 463 556 565 546 515 542 b 418 782 418 635 410 717 b 628 814 450 821 579 818 z m 1043 863 b 1018 1093 1042 935 1033 1032 b 251 1046 921 1117 474 1082 b 53 779 185 1003 94 889 b 201 367 64 646 124 497 b 38 4 164 294 54 47 b 353 -43 88 -24 253 -47 b 544 264 419 47 482 168 b 625 257 586 268 588 274 b 632 7 624 185 628 79 b 953 14 690 -7 821 -11 b 967 850 972 285 971 586 b 1043 863 985 853 1018 854 z "},"Ґ":{"ha":840,"x_min":0,"x_max":0,"o":"m 793 714 b 789 960 801 800 804 875 l 779 960 b 772 1136 781 1015 776 1078 b 546 1090 694 1143 617 1128 b 592 964 557 1061 575 1014 b 82 943 433 965 225 961 b 67 -1 78 739 51 235 b 428 7 106 -19 367 -6 b 425 694 422 254 425 586 b 793 714 540 729 679 718 z "},"І":{"ha":486,"x_min":0,"x_max":0,"o":"m 410 1067 b 93 1044 314 1068 190 1067 b 103 -22 83 746 85 306 b 383 3 150 -28 347 -21 b 410 1067 399 360 410 718 z "},"Ђ":{"ha":1294,"x_min":0,"x_max":0,"o":"m 1196 540 b 693 614 1046 593 864 608 b 713 790 700 692 706 756 b 947 811 792 796 869 800 b 961 1060 957 867 968 988 b 64 1026 868 1079 142 1065 b 39 742 42 935 35 829 b 317 756 118 750 232 764 b 335 -26 315 472 308 289 b 671 8 446 -36 560 -11 b 682 414 669 106 674 264 b 858 383 753 410 825 404 b 839 -39 901 311 869 63 b 521 -85 733 -81 658 -72 b 521 -268 507 -161 517 -236 b 1156 -192 597 -301 1042 -251 b 1196 540 1250 -54 1281 440 z "},"ђ":{"ha":1156,"x_min":0,"x_max":0,"o":"m 1057 425 b 614 486 925 465 765 479 b 624 576 615 525 619 557 b 853 593 694 581 782 585 b 864 782 861 635 871 728 b 617 789 835 788 735 790 b 619 1058 618 857 619 1014 b 276 1018 533 1060 378 1057 b 264 781 267 950 264 846 b 57 757 142 775 82 768 b 35 540 36 688 31 607 b 261 551 107 546 185 558 b 278 -21 260 336 253 219 b 608 7 378 -28 508 -8 b 607 314 607 83 606 203 b 719 292 654 310 697 304 b 700 -68 763 231 731 18 b 382 -107 594 -103 519 -97 b 382 -262 368 -172 378 -236 b 1017 -199 458 -292 903 -249 b 1057 425 1111 -81 1142 340 z "},"Ѓ":{"ha":840,"x_min":0,"x_max":0,"o":"m 793 714 b 789 960 801 800 804 875 b 82 943 676 965 303 971 b 67 -1 78 739 51 235 b 428 7 106 -19 367 -6 b 425 694 422 254 425 586 b 793 714 540 729 679 718 z m 729 1269 b 465 1299 654 1299 565 1310 b 360 1046 447 1243 413 1128 b 524 1029 406 1031 475 1028 b 729 1269 592 1083 664 1181 z "},"ѓ":{"ha":756,"x_min":0,"x_max":0,"o":"m 714 635 b 710 853 722 711 724 778 b 74 838 608 858 272 864 b 60 -1 71 657 47 210 b 385 6 94 -18 329 -4 b 382 617 379 225 382 522 b 714 635 486 649 611 639 z m 674 1158 b 410 1188 599 1188 510 1199 b 304 935 392 1132 357 1017 b 468 918 350 919 419 917 b 674 1158 536 972 608 1069 z "},"і":{"ha":438,"x_min":0,"x_max":0,"o":"m 369 824 b 83 807 283 825 171 824 b 92 3 75 592 75 240 b 344 21 135 -1 311 4 b 369 824 358 279 369 572 z m 407 932 b 378 1064 415 978 401 1024 b 238 1086 343 1076 275 1090 b 74 1021 193 1081 85 1063 b 74 907 67 994 56 931 b 407 932 101 872 375 890 z "},"ґ":{"ha":756,"x_min":0,"x_max":0,"o":"m 714 571 b 710 768 722 639 724 700 l 701 768 b 696 908 701 813 699 861 b 490 872 625 914 556 903 b 533 771 501 849 518 811 b 74 754 390 772 203 769 b 60 -1 71 592 47 189 b 385 6 94 -15 329 -4 b 382 556 379 203 382 469 b 714 571 486 583 611 575 z "},"Ј":{"ha":643,"x_min":0,"x_max":0,"o":"m 556 1071 b 203 1051 431 1100 282 1075 b 197 244 225 794 231 386 b 46 185 172 225 117 207 b 74 -56 47 96 53 4 b 540 64 240 -56 417 -19 b 556 1071 557 256 585 854 z "},"Є":{"ha":911,"x_min":0,"x_max":0,"o":"m 867 218 b 439 279 815 246 515 219 b 417 385 426 306 419 343 b 838 406 554 399 703 394 b 831 654 846 460 839 600 b 436 656 757 664 558 661 b 460 772 443 699 451 739 b 844 835 578 829 692 818 b 844 1089 860 940 850 1044 b 139 985 758 1135 265 1068 b 94 63 35 794 1 201 b 825 -43 313 -32 596 -40 b 867 218 854 -18 869 135 z "},"є":{"ha":819,"x_min":0,"x_max":0,"o":"m 781 164 b 422 208 733 183 492 165 b 401 310 410 229 404 267 b 754 322 519 315 642 314 b 747 522 763 365 756 479 b 418 525 686 529 538 528 b 442 631 425 567 433 604 b 760 676 547 672 622 664 b 760 860 774 753 764 828 b 125 783 683 893 239 843 b 85 51 31 646 0 151 b 742 -25 281 -17 535 -22 b 781 164 768 -7 783 103 z "},"Ї":{"ha":486,"x_min":0,"x_max":0,"o":"m 410 960 b 93 940 314 961 190 960 b 103 -19 83 672 85 275 b 383 3 150 -25 347 -19 b 410 960 399 324 410 647 z m 210 1146 b 138 1271 210 1192 171 1271 b 33 1235 122 1271 54 1260 b 8 1107 15 1211 8 1154 b 79 1013 8 1054 60 1013 b 200 1069 106 1013 190 1024 b 210 1146 206 1094 210 1121 z m 488 1156 b 418 1278 488 1200 450 1278 b 318 1242 403 1278 338 1268 b 294 1115 300 1219 294 1163 b 361 1024 294 1064 343 1024 b 478 1079 388 1024 468 1035 b 488 1156 483 1103 488 1129 z "},"ї":{"ha":438,"x_min":0,"x_max":0,"o":"m 369 846 b 83 829 283 847 171 846 b 92 3 75 601 75 253 b 344 22 135 -1 311 4 b 369 846 358 294 369 581 z m 179 1060 b 107 1183 179 1106 140 1183 b 3 1149 92 1183 24 1174 b -21 1021 -15 1125 -21 1067 b 49 926 -21 968 29 926 b 169 983 75 926 160 938 b 179 1060 175 1007 179 1035 z m 457 1069 b 388 1190 457 1114 419 1190 b 288 1156 372 1190 307 1181 b 264 1029 269 1133 264 1076 b 332 938 264 978 313 938 b 449 993 357 938 438 947 b 457 1069 453 1017 457 1043 z "},"Љ":{"ha":1796,"x_min":0,"x_max":0,"o":"m 1353 447 b 1317 197 1356 356 1350 249 b 1139 196 1271 183 1192 185 b 1138 463 1131 254 1124 357 b 1353 447 1196 483 1319 476 z m 1749 458 b 1472 707 1697 564 1581 664 l 1443 707 b 1132 689 1339 707 1235 707 b 1131 736 1131 704 1131 721 b 1138 1061 1131 844 1131 953 b 1018 1071 1099 1069 1058 1071 b 964 1069 1000 1071 982 1071 l 964 1071 b 432 1072 865 1081 594 1076 b 372 1069 413 1071 392 1071 b 347 1068 363 1068 354 1068 l 347 1067 b 203 1039 290 1061 239 1050 b 197 232 225 782 231 374 b 46 172 172 213 117 194 b 74 -68 47 83 53 -8 b 540 51 240 -68 417 -32 b 568 810 553 190 569 543 b 788 815 642 813 715 813 b 779 151 783 593 779 372 b 788 -26 779 92 779 33 b 1006 -43 858 -43 933 -43 b 1607 1 1207 -43 1408 -26 b 1749 458 1675 67 1739 360 z "},"љ":{"ha":1617,"x_min":0,"x_max":0,"o":"m 1218 358 b 1185 158 1221 285 1215 199 b 1025 157 1144 147 1072 147 b 1024 369 1017 203 1011 285 b 1218 358 1076 388 1188 381 z m 1574 367 b 1325 565 1526 451 1424 532 l 1299 565 b 1019 551 1206 565 1111 565 b 1018 589 1018 564 1018 576 b 1024 849 1018 675 1018 763 b 917 857 989 856 953 857 b 868 856 900 857 883 857 l 868 857 b 390 857 779 864 536 861 b 335 856 371 857 353 857 b 313 854 326 856 319 854 l 313 854 b 182 831 261 849 215 840 b 178 186 203 625 207 299 b 42 138 156 169 106 156 b 67 -54 43 67 47 -7 b 486 42 217 -54 375 -26 b 511 647 497 153 513 435 b 710 651 576 650 643 650 b 701 121 706 475 701 299 b 708 -21 701 74 701 26 b 906 -35 772 -33 840 -35 b 1446 1 1086 -35 1267 -21 b 1574 367 1507 53 1565 288 z "},"Њ":{"ha":1643,"x_min":0,"x_max":0,"o":"m 1200 461 b 1164 211 1203 369 1197 263 b 986 210 1118 197 1039 199 b 985 476 978 268 971 371 b 1200 461 1043 497 1167 490 z m 1596 472 b 1319 721 1544 578 1428 678 l 1290 721 b 979 703 1186 721 1082 721 b 978 750 978 718 978 735 b 985 1075 978 858 978 967 b 865 1085 946 1083 906 1085 b 640 1065 790 1085 714 1078 b 631 615 638 915 633 765 b 404 614 575 621 474 618 b 410 1067 407 767 410 918 b 93 1044 314 1068 190 1067 b 103 -22 83 746 85 306 b 383 3 150 -28 347 -21 b 396 346 388 117 393 232 b 628 361 472 356 553 354 b 626 165 626 296 626 231 b 635 -12 626 106 626 47 b 853 -29 706 -29 781 -29 b 1454 15 1054 -29 1256 -12 b 1596 472 1522 81 1586 374 z "},"њ":{"ha":1479,"x_min":0,"x_max":0,"o":"m 1081 369 b 1047 169 1083 296 1078 210 b 888 168 1007 158 935 158 b 886 381 879 214 874 296 b 1081 369 939 399 1050 392 z m 1436 378 b 1188 576 1389 463 1286 543 l 1161 576 b 882 563 1068 576 974 576 b 881 600 881 575 881 588 b 886 860 881 686 881 774 b 779 868 851 867 815 868 b 576 853 711 868 643 863 b 568 493 574 732 571 613 b 364 492 517 497 426 494 b 369 853 367 613 368 733 b 83 836 283 854 171 854 b 93 -18 75 597 76 244 b 344 3 135 -22 313 -17 b 357 276 350 93 353 185 b 565 289 425 283 497 283 b 564 132 564 236 564 185 b 571 -10 564 85 564 38 b 768 -24 635 -22 703 -24 b 1308 13 949 -24 1129 -10 b 1436 378 1369 64 1428 299 z "},"ј":{"ha":479,"x_min":0,"x_max":0,"o":"m 396 814 b 78 799 283 836 149 817 b 72 -32 97 603 101 75 b -239 -76 -31 -76 -131 -72 b -239 -260 -253 -157 -243 -226 b 372 -132 -164 -294 286 -264 b 396 814 388 14 422 649 z m 407 932 b 378 1064 415 978 401 1024 b 238 1086 343 1076 275 1090 b 74 1021 193 1081 85 1063 b 74 907 67 994 56 931 b 407 932 101 872 375 890 z "},"Ѕ":{"ha":922,"x_min":0,"x_max":0,"o":"m 849 858 b 826 1107 850 936 849 1035 b 132 997 600 1115 347 1083 b 44 482 65 840 38 658 b 468 381 128 422 414 425 b 460 285 471 350 467 308 b 82 208 396 250 208 217 b 122 -54 79 164 93 10 b 800 92 319 -36 600 6 b 846 579 863 213 899 447 b 438 654 710 604 574 626 b 469 806 439 707 444 761 b 849 858 594 832 722 838 z "},"Ћ":{"ha":1283,"x_min":0,"x_max":0,"o":"m 1201 -207 b 1186 683 1215 17 1190 492 b 699 674 1050 692 853 683 b 713 790 703 725 708 765 b 947 811 792 796 869 800 b 961 1060 957 867 968 988 b 64 1026 868 1079 142 1065 b 39 742 42 935 35 829 b 317 756 118 750 232 764 b 335 -26 315 472 308 289 b 671 8 446 -36 560 -11 b 682 440 669 111 674 282 b 847 428 739 442 796 439 b 844 -224 847 326 850 11 b 1201 -207 906 -229 1163 -228 z "},"ћ":{"ha":1113,"x_min":0,"x_max":0,"o":"m 1043 -228 b 1029 518 1057 -39 1032 357 b 615 511 914 524 751 519 b 624 576 618 539 621 561 b 853 593 694 581 782 585 b 864 782 861 635 871 728 b 617 789 835 788 735 790 b 619 1058 618 857 619 1014 b 276 1018 533 1060 378 1057 b 264 781 267 950 264 846 b 57 757 142 775 82 768 b 35 540 36 688 31 607 b 261 551 107 546 185 558 b 278 -21 260 336 253 219 b 608 7 378 -28 508 -8 b 607 314 607 83 606 203 b 711 303 643 313 679 310 b 710 -240 713 218 715 -44 b 1043 -228 767 -246 1007 -244 z "},"Ќ":{"ha":1038,"x_min":0,"x_max":0,"o":"m 1011 929 b 683 982 907 953 779 988 b 474 632 626 889 521 703 l 414 632 b 408 954 399 736 404 863 b 78 949 369 957 161 965 b 71 -44 74 801 49 206 b 404 -22 122 -56 357 -47 b 406 285 411 67 407 214 l 457 286 b 668 -46 497 224 575 82 b 1000 7 735 -44 922 -26 b 751 458 926 163 818 286 b 1011 929 822 599 965 849 z m 785 1256 b 521 1285 710 1285 621 1296 b 415 1032 503 1229 468 1114 b 579 1015 461 1017 531 1014 b 785 1256 647 1069 719 1167 z "},"ќ":{"ha":933,"x_min":0,"x_max":0,"o":"m 910 825 b 615 874 817 847 701 878 b 426 563 564 790 468 624 l 372 563 b 368 847 358 654 364 767 b 69 843 333 851 144 858 b 64 -39 67 713 43 182 b 364 -19 111 -49 321 -42 b 365 253 369 60 365 190 l 411 254 b 601 -42 449 199 517 72 b 900 6 661 -39 829 -24 b 676 408 833 144 736 254 b 910 825 740 532 869 754 z m 743 1158 b 479 1188 668 1188 579 1199 b 374 935 461 1132 426 1017 b 538 918 419 919 489 917 b 743 1158 606 972 678 1069 z "},"ѕ":{"ha":858,"x_min":0,"x_max":0,"o":"m 778 697 b 757 886 779 756 776 831 b 133 803 554 893 326 868 b 54 378 74 683 49 511 b 435 275 129 332 386 308 b 428 196 438 251 433 214 b 88 138 371 169 201 143 b 125 -62 85 104 100 -46 b 747 79 331 -40 557 -8 b 775 451 804 171 822 351 b 408 536 653 471 531 515 b 436 657 410 576 414 624 b 778 697 549 676 664 681 z "},"Ў":{"ha":1071,"x_min":0,"x_max":0,"o":"m 1054 951 b 714 968 1019 960 865 978 b 572 669 692 918 615 715 b 360 969 510 726 372 938 b 26 914 333 976 139 943 b 411 372 76 783 297 490 b 192 35 322 200 240 106 b 550 -36 300 -12 450 -32 b 1054 951 785 303 892 560 z m 863 1210 b 657 1239 843 1214 749 1246 b 550 1157 647 1219 588 1157 b 446 1236 531 1157 467 1199 b 243 1197 431 1240 321 1217 b 406 1035 294 1129 329 1092 b 703 1039 453 999 633 992 b 863 1210 792 1100 829 1138 z "}}}
